<?xml version="1.0" encoding="utf-8" standalone="no"?>
<!DOCTYPE svg PUBLIC "-//W3C//DTD SVG 1.1//EN"
  "http://www.w3.org/Graphics/SVG/1.1/DTD/svg11.dtd">
<svg xmlns:xlink="http://www.w3.org/1999/xlink" width="460.8pt" height="345.6pt" viewBox="0 0 460.8 345.6" xmlns="http://www.w3.org/2000/svg" version="1.1">
 <metadata>
  <rdf:RDF xmlns:dc="http://purl.org/dc/elements/1.1/" xmlns:cc="http://creativecommons.org/ns#" xmlns:rdf="http://www.w3.org/1999/02/22-rdf-syntax-ns#">
   <cc:Work>
    <dc:type rdf:resource="http://purl.org/dc/dcmitype/StillImage"/>
    <dc:date>1980-01-01T00:00:00+00:00</dc:date>
    <dc:format>image/svg+xml</dc:format>
    <dc:creator>
     <cc:Agent>
      <dc:title>Matplotlib v3.9.2, https://matplotlib.org/</dc:title>
     </cc:Agent>
    </dc:creator>
   </cc:Work>
  </rdf:RDF>
 </metadata>
 <defs>
  <style type="text/css">*{stroke-linejoin: round; stroke-linecap: butt}</style>
 </defs>
 <g id="figure_1">
  <g id="patch_1">
   <path d="M 0 345.6 
L 460.8 345.6 
L 460.8 0 
L 0 0 
z
" style="fill: #ffffff"/>
  </g>
  <g id="axes_1">
   <g id="patch_2">
    <path d="M 57.6 307.584 
L 414.72 307.584 
L 414.72 41.472 
L 57.6 41.472 
z
" style="fill: #ffffff"/>
   </g>
   <g id="matplotlib.axis_1">
    <g id="xtick_1">
     <g id="line2d_1">
      <path d="M 66.516582 307.584 
L 66.516582 41.472 
" clip-path="url(#pb7feb86c26)" style="fill: none; stroke: #b0b0b0; stroke-width: 0.8; stroke-linecap: square"/>
     </g>
     <g id="line2d_2">
      <defs>
       <path id="m8e805dfe42" d="M 0 0 
L 0 3.5 
" style="stroke: #000000; stroke-width: 0.8"/>
      </defs>
      <g>
       <use xlink:href="#m8e805dfe42" x="66.516582" y="307.584" style="stroke: #000000; stroke-width: 0.8"/>
      </g>
     </g>
     <g id="text_1">
      <!-- 3 -->
      <g transform="translate(63.335332 322.182437) scale(0.1 -0.1)">
       <defs>
        <path id="DejaVuSans-33" d="M 2597 2516 
Q 3050 2419 3304 2112 
Q 3559 1806 3559 1356 
Q 3559 666 3084 287 
Q 2609 -91 1734 -91 
Q 1441 -91 1130 -33 
Q 819 25 488 141 
L 488 750 
Q 750 597 1062 519 
Q 1375 441 1716 441 
Q 2309 441 2620 675 
Q 2931 909 2931 1356 
Q 2931 1769 2642 2001 
Q 2353 2234 1838 2234 
L 1294 2234 
L 1294 2753 
L 1863 2753 
Q 2328 2753 2575 2939 
Q 2822 3125 2822 3475 
Q 2822 3834 2567 4026 
Q 2313 4219 1838 4219 
Q 1578 4219 1281 4162 
Q 984 4106 628 3988 
L 628 4550 
Q 988 4650 1302 4700 
Q 1616 4750 1894 4750 
Q 2613 4750 3031 4423 
Q 3450 4097 3450 3541 
Q 3450 3153 3228 2886 
Q 3006 2619 2597 2516 
z
" transform="scale(0.015625)"/>
       </defs>
       <use xlink:href="#DejaVuSans-33"/>
      </g>
     </g>
    </g>
    <g id="xtick_2">
     <g id="line2d_3">
      <path d="M 118.186957 307.584 
L 118.186957 41.472 
" clip-path="url(#pb7feb86c26)" style="fill: none; stroke: #b0b0b0; stroke-width: 0.8; stroke-linecap: square"/>
     </g>
     <g id="line2d_4">
      <g>
       <use xlink:href="#m8e805dfe42" x="118.186957" y="307.584" style="stroke: #000000; stroke-width: 0.8"/>
      </g>
     </g>
     <g id="text_2">
      <!-- 4 -->
      <g transform="translate(115.005707 322.182437) scale(0.1 -0.1)">
       <defs>
        <path id="DejaVuSans-34" d="M 2419 4116 
L 825 1625 
L 2419 1625 
L 2419 4116 
z
M 2253 4666 
L 3047 4666 
L 3047 1625 
L 3713 1625 
L 3713 1100 
L 3047 1100 
L 3047 0 
L 2419 0 
L 2419 1100 
L 313 1100 
L 313 1709 
L 2253 4666 
z
" transform="scale(0.015625)"/>
       </defs>
       <use xlink:href="#DejaVuSans-34"/>
      </g>
     </g>
    </g>
    <g id="xtick_3">
     <g id="line2d_5">
      <path d="M 169.857333 307.584 
L 169.857333 41.472 
" clip-path="url(#pb7feb86c26)" style="fill: none; stroke: #b0b0b0; stroke-width: 0.8; stroke-linecap: square"/>
     </g>
     <g id="line2d_6">
      <g>
       <use xlink:href="#m8e805dfe42" x="169.857333" y="307.584" style="stroke: #000000; stroke-width: 0.8"/>
      </g>
     </g>
     <g id="text_3">
      <!-- 5 -->
      <g transform="translate(166.676083 322.182437) scale(0.1 -0.1)">
       <defs>
        <path id="DejaVuSans-35" d="M 691 4666 
L 3169 4666 
L 3169 4134 
L 1269 4134 
L 1269 2991 
Q 1406 3038 1543 3061 
Q 1681 3084 1819 3084 
Q 2600 3084 3056 2656 
Q 3513 2228 3513 1497 
Q 3513 744 3044 326 
Q 2575 -91 1722 -91 
Q 1428 -91 1123 -41 
Q 819 9 494 109 
L 494 744 
Q 775 591 1075 516 
Q 1375 441 1709 441 
Q 2250 441 2565 725 
Q 2881 1009 2881 1497 
Q 2881 1984 2565 2268 
Q 2250 2553 1709 2553 
Q 1456 2553 1204 2497 
Q 953 2441 691 2322 
L 691 4666 
z
" transform="scale(0.015625)"/>
       </defs>
       <use xlink:href="#DejaVuSans-35"/>
      </g>
     </g>
    </g>
    <g id="xtick_4">
     <g id="line2d_7">
      <path d="M 221.527709 307.584 
L 221.527709 41.472 
" clip-path="url(#pb7feb86c26)" style="fill: none; stroke: #b0b0b0; stroke-width: 0.8; stroke-linecap: square"/>
     </g>
     <g id="line2d_8">
      <g>
       <use xlink:href="#m8e805dfe42" x="221.527709" y="307.584" style="stroke: #000000; stroke-width: 0.8"/>
      </g>
     </g>
     <g id="text_4">
      <!-- 6 -->
      <g transform="translate(218.346459 322.182437) scale(0.1 -0.1)">
       <defs>
        <path id="DejaVuSans-36" d="M 2113 2584 
Q 1688 2584 1439 2293 
Q 1191 2003 1191 1497 
Q 1191 994 1439 701 
Q 1688 409 2113 409 
Q 2538 409 2786 701 
Q 3034 994 3034 1497 
Q 3034 2003 2786 2293 
Q 2538 2584 2113 2584 
z
M 3366 4563 
L 3366 3988 
Q 3128 4100 2886 4159 
Q 2644 4219 2406 4219 
Q 1781 4219 1451 3797 
Q 1122 3375 1075 2522 
Q 1259 2794 1537 2939 
Q 1816 3084 2150 3084 
Q 2853 3084 3261 2657 
Q 3669 2231 3669 1497 
Q 3669 778 3244 343 
Q 2819 -91 2113 -91 
Q 1303 -91 875 529 
Q 447 1150 447 2328 
Q 447 3434 972 4092 
Q 1497 4750 2381 4750 
Q 2619 4750 2861 4703 
Q 3103 4656 3366 4563 
z
" transform="scale(0.015625)"/>
       </defs>
       <use xlink:href="#DejaVuSans-36"/>
      </g>
     </g>
    </g>
    <g id="xtick_5">
     <g id="line2d_9">
      <path d="M 273.198084 307.584 
L 273.198084 41.472 
" clip-path="url(#pb7feb86c26)" style="fill: none; stroke: #b0b0b0; stroke-width: 0.8; stroke-linecap: square"/>
     </g>
     <g id="line2d_10">
      <g>
       <use xlink:href="#m8e805dfe42" x="273.198084" y="307.584" style="stroke: #000000; stroke-width: 0.8"/>
      </g>
     </g>
     <g id="text_5">
      <!-- 7 -->
      <g transform="translate(270.016834 322.182437) scale(0.1 -0.1)">
       <defs>
        <path id="DejaVuSans-37" d="M 525 4666 
L 3525 4666 
L 3525 4397 
L 1831 0 
L 1172 0 
L 2766 4134 
L 525 4134 
L 525 4666 
z
" transform="scale(0.015625)"/>
       </defs>
       <use xlink:href="#DejaVuSans-37"/>
      </g>
     </g>
    </g>
    <g id="xtick_6">
     <g id="line2d_11">
      <path d="M 324.86846 307.584 
L 324.86846 41.472 
" clip-path="url(#pb7feb86c26)" style="fill: none; stroke: #b0b0b0; stroke-width: 0.8; stroke-linecap: square"/>
     </g>
     <g id="line2d_12">
      <g>
       <use xlink:href="#m8e805dfe42" x="324.86846" y="307.584" style="stroke: #000000; stroke-width: 0.8"/>
      </g>
     </g>
     <g id="text_6">
      <!-- 8 -->
      <g transform="translate(321.68721 322.182437) scale(0.1 -0.1)">
       <defs>
        <path id="DejaVuSans-38" d="M 2034 2216 
Q 1584 2216 1326 1975 
Q 1069 1734 1069 1313 
Q 1069 891 1326 650 
Q 1584 409 2034 409 
Q 2484 409 2743 651 
Q 3003 894 3003 1313 
Q 3003 1734 2745 1975 
Q 2488 2216 2034 2216 
z
M 1403 2484 
Q 997 2584 770 2862 
Q 544 3141 544 3541 
Q 544 4100 942 4425 
Q 1341 4750 2034 4750 
Q 2731 4750 3128 4425 
Q 3525 4100 3525 3541 
Q 3525 3141 3298 2862 
Q 3072 2584 2669 2484 
Q 3125 2378 3379 2068 
Q 3634 1759 3634 1313 
Q 3634 634 3220 271 
Q 2806 -91 2034 -91 
Q 1263 -91 848 271 
Q 434 634 434 1313 
Q 434 1759 690 2068 
Q 947 2378 1403 2484 
z
M 1172 3481 
Q 1172 3119 1398 2916 
Q 1625 2713 2034 2713 
Q 2441 2713 2670 2916 
Q 2900 3119 2900 3481 
Q 2900 3844 2670 4047 
Q 2441 4250 2034 4250 
Q 1625 4250 1398 4047 
Q 1172 3844 1172 3481 
z
" transform="scale(0.015625)"/>
       </defs>
       <use xlink:href="#DejaVuSans-38"/>
      </g>
     </g>
    </g>
    <g id="xtick_7">
     <g id="line2d_13">
      <path d="M 376.538836 307.584 
L 376.538836 41.472 
" clip-path="url(#pb7feb86c26)" style="fill: none; stroke: #b0b0b0; stroke-width: 0.8; stroke-linecap: square"/>
     </g>
     <g id="line2d_14">
      <g>
       <use xlink:href="#m8e805dfe42" x="376.538836" y="307.584" style="stroke: #000000; stroke-width: 0.8"/>
      </g>
     </g>
     <g id="text_7">
      <!-- 9 -->
      <g transform="translate(373.357586 322.182437) scale(0.1 -0.1)">
       <defs>
        <path id="DejaVuSans-39" d="M 703 97 
L 703 672 
Q 941 559 1184 500 
Q 1428 441 1663 441 
Q 2288 441 2617 861 
Q 2947 1281 2994 2138 
Q 2813 1869 2534 1725 
Q 2256 1581 1919 1581 
Q 1219 1581 811 2004 
Q 403 2428 403 3163 
Q 403 3881 828 4315 
Q 1253 4750 1959 4750 
Q 2769 4750 3195 4129 
Q 3622 3509 3622 2328 
Q 3622 1225 3098 567 
Q 2575 -91 1691 -91 
Q 1453 -91 1209 -44 
Q 966 3 703 97 
z
M 1959 2075 
Q 2384 2075 2632 2365 
Q 2881 2656 2881 3163 
Q 2881 3666 2632 3958 
Q 2384 4250 1959 4250 
Q 1534 4250 1286 3958 
Q 1038 3666 1038 3163 
Q 1038 2656 1286 2365 
Q 1534 2075 1959 2075 
z
" transform="scale(0.015625)"/>
       </defs>
       <use xlink:href="#DejaVuSans-39"/>
      </g>
     </g>
    </g>
   </g>
   <g id="matplotlib.axis_2">
    <g id="ytick_1">
     <g id="line2d_15">
      <path d="M 57.6 286.380863 
L 414.72 286.380863 
" clip-path="url(#pb7feb86c26)" style="fill: none; stroke: #b0b0b0; stroke-width: 0.8; stroke-linecap: square"/>
     </g>
     <g id="line2d_16">
      <defs>
       <path id="mbcea224c4b" d="M 0 0 
L -3.5 0 
" style="stroke: #000000; stroke-width: 0.8"/>
      </defs>
      <g>
       <use xlink:href="#mbcea224c4b" x="57.6" y="286.380863" style="stroke: #000000; stroke-width: 0.8"/>
      </g>
     </g>
     <g id="text_8">
      <!-- −0.3 -->
      <g transform="translate(26.317187 290.180082) scale(0.1 -0.1)">
       <defs>
        <path id="DejaVuSans-2212" d="M 678 2272 
L 4684 2272 
L 4684 1741 
L 678 1741 
L 678 2272 
z
" transform="scale(0.015625)"/>
        <path id="DejaVuSans-30" d="M 2034 4250 
Q 1547 4250 1301 3770 
Q 1056 3291 1056 2328 
Q 1056 1369 1301 889 
Q 1547 409 2034 409 
Q 2525 409 2770 889 
Q 3016 1369 3016 2328 
Q 3016 3291 2770 3770 
Q 2525 4250 2034 4250 
z
M 2034 4750 
Q 2819 4750 3233 4129 
Q 3647 3509 3647 2328 
Q 3647 1150 3233 529 
Q 2819 -91 2034 -91 
Q 1250 -91 836 529 
Q 422 1150 422 2328 
Q 422 3509 836 4129 
Q 1250 4750 2034 4750 
z
" transform="scale(0.015625)"/>
        <path id="DejaVuSans-2e" d="M 684 794 
L 1344 794 
L 1344 0 
L 684 0 
L 684 794 
z
" transform="scale(0.015625)"/>
       </defs>
       <use xlink:href="#DejaVuSans-2212"/>
       <use xlink:href="#DejaVuSans-30" x="83.789062"/>
       <use xlink:href="#DejaVuSans-2e" x="147.412109"/>
       <use xlink:href="#DejaVuSans-33" x="179.199219"/>
      </g>
     </g>
    </g>
    <g id="ytick_2">
     <g id="line2d_17">
      <path d="M 57.6 236.64196 
L 414.72 236.64196 
" clip-path="url(#pb7feb86c26)" style="fill: none; stroke: #b0b0b0; stroke-width: 0.8; stroke-linecap: square"/>
     </g>
     <g id="line2d_18">
      <g>
       <use xlink:href="#mbcea224c4b" x="57.6" y="236.64196" style="stroke: #000000; stroke-width: 0.8"/>
      </g>
     </g>
     <g id="text_9">
      <!-- −0.2 -->
      <g transform="translate(26.317187 240.441179) scale(0.1 -0.1)">
       <defs>
        <path id="DejaVuSans-32" d="M 1228 531 
L 3431 531 
L 3431 0 
L 469 0 
L 469 531 
Q 828 903 1448 1529 
Q 2069 2156 2228 2338 
Q 2531 2678 2651 2914 
Q 2772 3150 2772 3378 
Q 2772 3750 2511 3984 
Q 2250 4219 1831 4219 
Q 1534 4219 1204 4116 
Q 875 4013 500 3803 
L 500 4441 
Q 881 4594 1212 4672 
Q 1544 4750 1819 4750 
Q 2544 4750 2975 4387 
Q 3406 4025 3406 3419 
Q 3406 3131 3298 2873 
Q 3191 2616 2906 2266 
Q 2828 2175 2409 1742 
Q 1991 1309 1228 531 
z
" transform="scale(0.015625)"/>
       </defs>
       <use xlink:href="#DejaVuSans-2212"/>
       <use xlink:href="#DejaVuSans-30" x="83.789062"/>
       <use xlink:href="#DejaVuSans-2e" x="147.412109"/>
       <use xlink:href="#DejaVuSans-32" x="179.199219"/>
      </g>
     </g>
    </g>
    <g id="ytick_3">
     <g id="line2d_19">
      <path d="M 57.6 186.903057 
L 414.72 186.903057 
" clip-path="url(#pb7feb86c26)" style="fill: none; stroke: #b0b0b0; stroke-width: 0.8; stroke-linecap: square"/>
     </g>
     <g id="line2d_20">
      <g>
       <use xlink:href="#mbcea224c4b" x="57.6" y="186.903057" style="stroke: #000000; stroke-width: 0.8"/>
      </g>
     </g>
     <g id="text_10">
      <!-- −0.1 -->
      <g transform="translate(26.317187 190.702276) scale(0.1 -0.1)">
       <defs>
        <path id="DejaVuSans-31" d="M 794 531 
L 1825 531 
L 1825 4091 
L 703 3866 
L 703 4441 
L 1819 4666 
L 2450 4666 
L 2450 531 
L 3481 531 
L 3481 0 
L 794 0 
L 794 531 
z
" transform="scale(0.015625)"/>
       </defs>
       <use xlink:href="#DejaVuSans-2212"/>
       <use xlink:href="#DejaVuSans-30" x="83.789062"/>
       <use xlink:href="#DejaVuSans-2e" x="147.412109"/>
       <use xlink:href="#DejaVuSans-31" x="179.199219"/>
      </g>
     </g>
    </g>
    <g id="ytick_4">
     <g id="line2d_21">
      <path d="M 57.6 137.164154 
L 414.72 137.164154 
" clip-path="url(#pb7feb86c26)" style="fill: none; stroke: #b0b0b0; stroke-width: 0.8; stroke-linecap: square"/>
     </g>
     <g id="line2d_22">
      <g>
       <use xlink:href="#mbcea224c4b" x="57.6" y="137.164154" style="stroke: #000000; stroke-width: 0.8"/>
      </g>
     </g>
     <g id="text_11">
      <!-- 0.0 -->
      <g transform="translate(34.696875 140.963373) scale(0.1 -0.1)">
       <use xlink:href="#DejaVuSans-30"/>
       <use xlink:href="#DejaVuSans-2e" x="63.623047"/>
       <use xlink:href="#DejaVuSans-30" x="95.410156"/>
      </g>
     </g>
    </g>
    <g id="ytick_5">
     <g id="line2d_23">
      <path d="M 57.6 87.425251 
L 414.72 87.425251 
" clip-path="url(#pb7feb86c26)" style="fill: none; stroke: #b0b0b0; stroke-width: 0.8; stroke-linecap: square"/>
     </g>
     <g id="line2d_24">
      <g>
       <use xlink:href="#mbcea224c4b" x="57.6" y="87.425251" style="stroke: #000000; stroke-width: 0.8"/>
      </g>
     </g>
     <g id="text_12">
      <!-- 0.1 -->
      <g transform="translate(34.696875 91.22447) scale(0.1 -0.1)">
       <use xlink:href="#DejaVuSans-30"/>
       <use xlink:href="#DejaVuSans-2e" x="63.623047"/>
       <use xlink:href="#DejaVuSans-31" x="95.410156"/>
      </g>
     </g>
    </g>
   </g>
   <g id="line2d_25">
    <path d="M 73.832727 295.488 
L 78.382441 286.381421 
L 83.582113 275.455221 
L 89.431744 262.60303 
L 95.931335 247.771954 
L 104.380803 227.899558 
L 129.729206 167.869517 
L 136.553776 152.497738 
L 142.403407 139.851595 
L 147.603079 129.107028 
L 152.477772 119.51897 
L 157.027486 111.038309 
L 161.252219 103.601227 
L 165.476953 96.613245 
L 169.376708 90.582261 
L 173.276462 84.97128 
L 176.851237 80.20946 
L 180.426011 75.82274 
L 183.675807 72.167297 
L 186.925602 68.833813 
L 190.175397 65.826344 
L 193.100213 63.400872 
L 196.025029 61.243381 
L 198.949844 59.354646 
L 201.87466 57.734756 
L 204.799476 56.383125 
L 207.724292 55.298498 
L 210.324128 54.557001 
L 212.923964 54.02319 
L 215.5238 53.694891 
L 218.123636 53.569541 
L 220.723473 53.644196 
L 223.648288 53.963108 
L 226.573104 54.525676 
L 229.49792 55.32607 
L 232.422735 56.357924 
L 235.347551 57.614352 
L 238.597346 59.264779 
L 241.847142 61.172532 
L 245.096937 63.326134 
L 248.671712 65.964587 
L 252.246486 68.868933 
L 256.146241 72.319744 
L 260.370975 76.363659 
L 264.920688 81.038683 
L 269.795381 86.370746 
L 275.320033 92.75428 
L 281.819623 100.627881 
L 290.269091 111.253908 
L 312.367699 139.250256 
L 319.192269 147.427835 
L 325.0419 154.091677 
L 330.241572 159.687251 
L 335.116265 164.611013 
L 339.665979 168.894809 
L 343.890713 172.580951 
L 348.115446 175.968098 
L 352.015201 178.815854 
L 355.914955 181.385029 
L 359.48973 183.487701 
L 363.064505 185.343047 
L 366.639279 186.94653 
L 370.214054 188.29478 
L 373.788829 189.38559 
L 377.038624 190.152935 
L 380.288419 190.706677 
L 383.538215 191.047628 
L 386.78801 191.177365 
L 390.037805 191.09821 
L 393.2876 190.813221 
L 396.862375 190.266513 
L 398.487273 189.93877 
L 398.487273 189.93877 
" clip-path="url(#pb7feb86c26)" style="fill: none; stroke: #808080; stroke-width: 1.5; stroke-linecap: square"/>
   </g>
   <g id="line2d_26">
    <path d="M 73.832727 284.463517 
L 78.382441 276.596262 
L 83.582113 267.131368 
L 89.106765 256.599627 
L 95.606355 243.702128 
L 103.405864 227.701742 
L 117.055004 199.074068 
L 128.429287 175.447004 
L 135.903817 160.427794 
L 142.078428 148.493204 
L 147.603079 138.269365 
L 152.802752 129.103756 
L 157.677445 120.961702 
L 162.227158 113.792119 
L 166.451892 107.532511 
L 170.676626 101.677732 
L 174.57638 96.648859 
L 178.476134 91.993752 
L 182.050909 88.064367 
L 185.625684 84.46547 
L 188.875479 81.485448 
L 192.125274 78.786794 
L 195.37507 76.372019 
L 198.624865 74.242732 
L 201.87466 72.399644 
L 204.799476 70.985433 
L 207.724292 69.802166 
L 210.649107 68.84853 
L 213.573923 68.122654 
L 216.498739 67.622114 
L 219.423554 67.343947 
L 222.34837 67.284667 
L 225.273186 67.440274 
L 228.198002 67.806275 
L 231.122817 68.377695 
L 234.372613 69.246907 
L 237.622408 70.354912 
L 240.872203 71.692975 
L 244.446978 73.419403 
L 248.021753 75.399673 
L 251.921507 77.83302 
L 255.821261 80.532694 
L 260.045995 83.734665 
L 264.595708 87.475848 
L 269.470401 91.783291 
L 274.670074 96.671009 
L 280.844685 102.795224 
L 288.319214 110.548943 
L 300.018477 123.063888 
L 312.367699 136.181599 
L 319.842228 143.794037 
L 326.016839 149.774824 
L 331.541491 154.827433 
L 336.741163 159.281825 
L 341.615856 163.160842 
L 346.165569 166.498587 
L 350.390303 169.336849 
L 354.615037 171.910344 
L 358.514791 174.041209 
L 362.414545 175.92962 
L 366.3143 177.569622 
L 370.214054 178.956655 
L 373.788829 180.003151 
L 377.363604 180.833004 
L 380.938378 181.445783 
L 384.513153 181.842021 
L 388.087928 182.023204 
L 391.662703 181.991745 
L 395.237477 181.750969 
L 398.487273 181.353963 
L 398.487273 181.353963 
" clip-path="url(#pb7feb86c26)" style="fill: none; stroke-dasharray: 5.55,2.4; stroke-dashoffset: 0; stroke: #1f77b4; stroke-width: 1.5"/>
   </g>
   <g id="line2d_27">
    <path d="M 73.832727 289.208465 
L 78.382441 280.812229 
L 83.582113 270.723471 
L 89.106765 259.511553 
L 95.606355 245.798931 
L 103.730844 228.095632 
L 132.979001 163.81003 
L 139.478591 150.348565 
L 145.328223 138.744939 
L 150.527895 128.913303 
L 155.402588 120.162881 
L 159.952301 112.443081 
L 164.177035 105.690539 
L 168.401769 99.362545 
L 172.301523 93.916277 
L 176.201278 88.864095 
L 179.776052 84.589874 
L 183.350827 80.665577 
L 186.600622 77.407443 
L 189.850418 74.448248 
L 193.100213 71.791127 
L 196.350008 69.438246 
L 199.274824 67.58179 
L 202.19964 65.972965 
L 205.124455 64.611362 
L 208.049271 63.495953 
L 210.974087 62.625105 
L 213.898903 61.996587 
L 216.823718 61.607583 
L 219.748534 61.454705 
L 222.67335 61.534006 
L 225.598165 61.840999 
L 228.522981 62.37067 
L 231.447797 63.117498 
L 234.372613 64.075478 
L 237.622408 65.379657 
L 240.872203 66.92699 
L 244.121998 68.707315 
L 247.696773 70.921915 
L 251.271548 73.390298 
L 255.171302 76.353878 
L 259.396036 79.859007 
L 263.945749 83.944545 
L 268.820442 88.638696 
L 274.020115 93.955611 
L 280.194726 100.606517 
L 287.669255 109.013343 
L 300.018477 123.312832 
L 311.39276 136.362275 
L 318.54231 144.241112 
L 324.716921 150.723164 
L 330.241572 156.203103 
L 335.441245 161.037802 
L 339.990958 164.980663 
L 344.540672 168.631108 
L 348.765405 171.7411 
L 352.990139 174.567 
L 356.889894 176.91265 
L 360.789648 178.997492 
L 364.689402 180.814823 
L 368.264177 182.241238 
L 371.838952 183.435586 
L 375.413726 184.396031 
L 378.988501 185.121792 
L 382.563276 185.613133 
L 386.138051 185.871347 
L 389.712826 185.898738 
L 393.2876 185.698596 
L 396.862375 185.275175 
L 398.487273 185.010266 
L 398.487273 185.010266 
" clip-path="url(#pb7feb86c26)" style="fill: none; stroke-dasharray: 5.55,2.4; stroke-dashoffset: 0; stroke: #ff7f0e; stroke-width: 1.5"/>
   </g>
   <g id="line2d_28">
    <path d="M 73.832727 291.445676 
L 78.382441 282.797688 
L 83.582113 272.412092 
L 89.106765 260.876625 
L 95.606355 246.776374 
L 103.730844 228.584692 
L 132.004062 164.750952 
L 138.503653 150.884276 
L 144.353284 138.920321 
L 149.552957 128.774808 
L 154.427649 119.737814 
L 158.977363 111.758953 
L 163.202097 104.774425 
L 167.42683 98.223833 
L 171.326585 92.581322 
L 175.226339 87.342551 
L 178.801114 82.906382 
L 182.375889 78.82936 
L 185.625684 75.440783 
L 188.875479 72.359478 
L 192.125274 69.588871 
L 195.37507 67.131388 
L 198.299885 65.18858 
L 201.224701 63.500935 
L 204.149517 62.068165 
L 207.074333 60.889351 
L 209.999148 59.962939 
L 212.923964 59.28676 
L 215.84878 58.85804 
L 218.773595 58.673406 
L 221.698411 58.728911 
L 224.623227 59.020043 
L 227.548043 59.541743 
L 230.472858 60.288426 
L 233.397674 61.253999 
L 236.647469 62.575562 
L 239.897265 64.14953 
L 243.14706 65.965539 
L 246.721835 68.229567 
L 250.296609 70.757705 
L 254.196364 73.797801 
L 258.421097 77.398546 
L 262.645831 81.290432 
L 267.195545 85.772598 
L 272.395217 91.21568 
L 278.244848 97.676809 
L 285.069419 105.555798 
L 294.818804 117.187158 
L 310.742801 136.194282 
L 317.892351 144.366028 
L 324.066962 151.092424 
L 329.591613 156.781732 
L 334.466306 161.500076 
L 339.01602 165.618493 
L 343.565733 169.436761 
L 347.790467 172.694758 
L 352.015201 175.660332 
L 355.914955 178.126902 
L 359.814709 180.324446 
L 363.389484 182.096382 
L 366.964259 183.631847 
L 370.539034 184.927562 
L 374.113808 185.981349 
L 377.688583 186.792119 
L 381.263358 187.359871 
L 384.838133 187.685671 
L 388.412907 187.771636 
L 391.987682 187.620911 
L 395.562457 187.237644 
L 398.487273 186.754644 
L 398.487273 186.754644 
" clip-path="url(#pb7feb86c26)" style="fill: none; stroke-dasharray: 5.55,2.4; stroke-dashoffset: 0; stroke: #2ca02c; stroke-width: 1.5"/>
   </g>
   <g id="line2d_29">
    <path d="M 73.832727 294.469553 
L 78.382441 285.478958 
L 83.582113 274.689472 
L 89.431744 261.995103 
L 95.931335 247.342551 
L 104.380803 227.703795 
L 130.054185 167.604447 
L 136.878755 152.420958 
L 142.728387 139.932876 
L 147.928059 129.32493 
L 152.802752 119.860695 
L 157.352465 111.491165 
L 161.577199 104.152887 
L 165.801933 97.259011 
L 169.701687 91.310348 
L 173.601441 85.777 
L 177.176216 81.081977 
L 180.750991 76.757667 
L 184.000786 73.154996 
L 187.250581 69.870377 
L 190.500377 66.907757 
L 193.425192 64.519131 
L 196.350008 62.395092 
L 199.274824 60.53636 
L 202.19964 58.942982 
L 205.124455 57.61434 
L 208.049271 56.549153 
L 210.974087 55.745491 
L 213.573923 55.248616 
L 216.173759 54.954138 
L 218.773595 54.859454 
L 221.698411 54.988032 
L 224.623227 55.360908 
L 227.548043 55.972727 
L 230.472858 56.817584 
L 233.397674 57.889053 
L 236.32249 59.180198 
L 239.572285 60.863418 
L 242.82208 62.79785 
L 246.396855 65.202154 
L 249.97163 67.880387 
L 253.871384 71.094574 
L 257.771138 74.591573 
L 261.995872 78.671359 
L 266.545586 83.368615 
L 271.745258 89.071655 
L 277.594889 95.840265 
L 284.419459 104.093362 
L 294.168845 116.276593 
L 310.092842 136.187776 
L 317.242391 144.75011 
L 323.417002 151.799323 
L 328.941654 157.762865 
L 333.816347 162.709673 
L 338.366061 167.028457 
L 342.915774 171.033474 
L 347.140508 174.451766 
L 351.040262 177.335991 
L 354.940016 179.948734 
L 358.839771 182.280702 
L 362.414545 184.16509 
L 365.98932 185.802339 
L 369.564095 187.188869 
L 373.13887 188.322246 
L 376.388665 189.131802 
L 379.63846 189.730905 
L 382.888256 190.120166 
L 386.138051 190.300952 
L 389.387846 190.275369 
L 392.637641 190.046253 
L 396.212416 189.56339 
L 398.487273 189.132679 
L 398.487273 189.132679 
" clip-path="url(#pb7feb86c26)" style="fill: none; stroke-dasharray: 5.55,2.4; stroke-dashoffset: 0; stroke: #d62728; stroke-width: 1.5"/>
   </g>
   <g id="patch_3">
    <path d="M 57.6 307.584 
L 57.6 41.472 
" style="fill: none; stroke: #000000; stroke-width: 0.8; stroke-linejoin: miter; stroke-linecap: square"/>
   </g>
   <g id="patch_4">
    <path d="M 414.72 307.584 
L 414.72 41.472 
" style="fill: none; stroke: #000000; stroke-width: 0.8; stroke-linejoin: miter; stroke-linecap: square"/>
   </g>
   <g id="patch_5">
    <path d="M 57.6 307.584 
L 414.72 307.584 
" style="fill: none; stroke: #000000; stroke-width: 0.8; stroke-linejoin: miter; stroke-linecap: square"/>
   </g>
   <g id="patch_6">
    <path d="M 57.6 41.472 
L 414.72 41.472 
" style="fill: none; stroke: #000000; stroke-width: 0.8; stroke-linejoin: miter; stroke-linecap: square"/>
   </g>
   <g id="legend_1">
    <g id="patch_7">
     <path d="M 222.42 302.584 
L 407.72 302.584 
Q 409.72 302.584 409.72 300.584 
L 409.72 217.205875 
Q 409.72 215.205875 407.72 215.205875 
L 222.42 215.205875 
Q 220.42 215.205875 220.42 217.205875 
L 220.42 300.584 
Q 220.42 302.584 222.42 302.584 
z
" style="fill: #ffffff; opacity: 0.8; stroke: #cccccc; stroke-linejoin: miter"/>
    </g>
    <g id="line2d_30">
     <path d="M 224.42 223.304312 
L 234.42 223.304312 
L 244.42 223.304312 
" style="fill: none; stroke: #808080; stroke-width: 1.5; stroke-linecap: square"/>
    </g>
    <g id="text_13">
     <!-- $f'(x)$ -->
     <g transform="translate(252.42 226.804312) scale(0.1 -0.1)">
      <defs>
       <path id="DejaVuSans-Oblique-66" d="M 3059 4863 
L 2969 4384 
L 2419 4384 
Q 2106 4384 1964 4261 
Q 1822 4138 1753 3809 
L 1691 3500 
L 2638 3500 
L 2553 3053 
L 1606 3053 
L 1013 0 
L 434 0 
L 1031 3053 
L 481 3053 
L 563 3500 
L 1113 3500 
L 1159 3744 
Q 1278 4363 1576 4613 
Q 1875 4863 2516 4863 
L 3059 4863 
z
" transform="scale(0.015625)"/>
       <path id="Cmsy10-30" d="M 225 347 
Q 184 359 184 409 
L 966 3316 
Q 1003 3434 1093 3506 
Q 1184 3578 1300 3578 
Q 1450 3578 1564 3479 
Q 1678 3381 1678 3231 
Q 1678 3166 1644 3084 
L 488 319 
Q 466 275 428 275 
Q 394 275 320 306 
Q 247 338 225 347 
z
" transform="scale(0.015625)"/>
       <path id="DejaVuSans-28" d="M 1984 4856 
Q 1566 4138 1362 3434 
Q 1159 2731 1159 2009 
Q 1159 1288 1364 580 
Q 1569 -128 1984 -844 
L 1484 -844 
Q 1016 -109 783 600 
Q 550 1309 550 2009 
Q 550 2706 781 3412 
Q 1013 4119 1484 4856 
L 1984 4856 
z
" transform="scale(0.015625)"/>
       <path id="DejaVuSans-Oblique-78" d="M 3841 3500 
L 2234 1784 
L 3219 0 
L 2559 0 
L 1819 1388 
L 531 0 
L -166 0 
L 1556 1844 
L 641 3500 
L 1300 3500 
L 1972 2234 
L 3144 3500 
L 3841 3500 
z
" transform="scale(0.015625)"/>
       <path id="DejaVuSans-29" d="M 513 4856 
L 1013 4856 
Q 1481 4119 1714 3412 
Q 1947 2706 1947 2009 
Q 1947 1309 1714 600 
Q 1481 -109 1013 -844 
L 513 -844 
Q 928 -128 1133 580 
Q 1338 1288 1338 2009 
Q 1338 2731 1133 3434 
Q 928 4138 513 4856 
z
" transform="scale(0.015625)"/>
      </defs>
      <use xlink:href="#DejaVuSans-Oblique-66" transform="translate(0 0.584375)"/>
      <use xlink:href="#Cmsy10-30" transform="translate(42.652786 38.865625) scale(0.7)"/>
      <use xlink:href="#DejaVuSans-28" transform="translate(64.630326 0.584375)"/>
      <use xlink:href="#DejaVuSans-Oblique-78" transform="translate(103.643997 0.584375)"/>
      <use xlink:href="#DejaVuSans-29" transform="translate(162.823685 0.584375)"/>
     </g>
    </g>
    <g id="line2d_31">
     <path d="M 224.42 238.784 
L 234.42 238.784 
L 244.42 238.784 
" style="fill: none; stroke-dasharray: 5.55,2.4; stroke-dashoffset: 0; stroke: #1f77b4; stroke-width: 1.5"/>
    </g>
    <g id="text_14">
     <!-- Finite Approximation for $h = \frac{\pi}{3}$ -->
     <g transform="translate(252.42 242.284) scale(0.1 -0.1)">
      <defs>
       <path id="DejaVuSans-46" d="M 628 4666 
L 3309 4666 
L 3309 4134 
L 1259 4134 
L 1259 2759 
L 3109 2759 
L 3109 2228 
L 1259 2228 
L 1259 0 
L 628 0 
L 628 4666 
z
" transform="scale(0.015625)"/>
       <path id="DejaVuSans-69" d="M 603 3500 
L 1178 3500 
L 1178 0 
L 603 0 
L 603 3500 
z
M 603 4863 
L 1178 4863 
L 1178 4134 
L 603 4134 
L 603 4863 
z
" transform="scale(0.015625)"/>
       <path id="DejaVuSans-6e" d="M 3513 2113 
L 3513 0 
L 2938 0 
L 2938 2094 
Q 2938 2591 2744 2837 
Q 2550 3084 2163 3084 
Q 1697 3084 1428 2787 
Q 1159 2491 1159 1978 
L 1159 0 
L 581 0 
L 581 3500 
L 1159 3500 
L 1159 2956 
Q 1366 3272 1645 3428 
Q 1925 3584 2291 3584 
Q 2894 3584 3203 3211 
Q 3513 2838 3513 2113 
z
" transform="scale(0.015625)"/>
       <path id="DejaVuSans-74" d="M 1172 4494 
L 1172 3500 
L 2356 3500 
L 2356 3053 
L 1172 3053 
L 1172 1153 
Q 1172 725 1289 603 
Q 1406 481 1766 481 
L 2356 481 
L 2356 0 
L 1766 0 
Q 1100 0 847 248 
Q 594 497 594 1153 
L 594 3053 
L 172 3053 
L 172 3500 
L 594 3500 
L 594 4494 
L 1172 4494 
z
" transform="scale(0.015625)"/>
       <path id="DejaVuSans-65" d="M 3597 1894 
L 3597 1613 
L 953 1613 
Q 991 1019 1311 708 
Q 1631 397 2203 397 
Q 2534 397 2845 478 
Q 3156 559 3463 722 
L 3463 178 
Q 3153 47 2828 -22 
Q 2503 -91 2169 -91 
Q 1331 -91 842 396 
Q 353 884 353 1716 
Q 353 2575 817 3079 
Q 1281 3584 2069 3584 
Q 2775 3584 3186 3129 
Q 3597 2675 3597 1894 
z
M 3022 2063 
Q 3016 2534 2758 2815 
Q 2500 3097 2075 3097 
Q 1594 3097 1305 2825 
Q 1016 2553 972 2059 
L 3022 2063 
z
" transform="scale(0.015625)"/>
       <path id="DejaVuSans-20" transform="scale(0.015625)"/>
       <path id="DejaVuSans-41" d="M 2188 4044 
L 1331 1722 
L 3047 1722 
L 2188 4044 
z
M 1831 4666 
L 2547 4666 
L 4325 0 
L 3669 0 
L 3244 1197 
L 1141 1197 
L 716 0 
L 50 0 
L 1831 4666 
z
" transform="scale(0.015625)"/>
       <path id="DejaVuSans-70" d="M 1159 525 
L 1159 -1331 
L 581 -1331 
L 581 3500 
L 1159 3500 
L 1159 2969 
Q 1341 3281 1617 3432 
Q 1894 3584 2278 3584 
Q 2916 3584 3314 3078 
Q 3713 2572 3713 1747 
Q 3713 922 3314 415 
Q 2916 -91 2278 -91 
Q 1894 -91 1617 61 
Q 1341 213 1159 525 
z
M 3116 1747 
Q 3116 2381 2855 2742 
Q 2594 3103 2138 3103 
Q 1681 3103 1420 2742 
Q 1159 2381 1159 1747 
Q 1159 1113 1420 752 
Q 1681 391 2138 391 
Q 2594 391 2855 752 
Q 3116 1113 3116 1747 
z
" transform="scale(0.015625)"/>
       <path id="DejaVuSans-72" d="M 2631 2963 
Q 2534 3019 2420 3045 
Q 2306 3072 2169 3072 
Q 1681 3072 1420 2755 
Q 1159 2438 1159 1844 
L 1159 0 
L 581 0 
L 581 3500 
L 1159 3500 
L 1159 2956 
Q 1341 3275 1631 3429 
Q 1922 3584 2338 3584 
Q 2397 3584 2469 3576 
Q 2541 3569 2628 3553 
L 2631 2963 
z
" transform="scale(0.015625)"/>
       <path id="DejaVuSans-6f" d="M 1959 3097 
Q 1497 3097 1228 2736 
Q 959 2375 959 1747 
Q 959 1119 1226 758 
Q 1494 397 1959 397 
Q 2419 397 2687 759 
Q 2956 1122 2956 1747 
Q 2956 2369 2687 2733 
Q 2419 3097 1959 3097 
z
M 1959 3584 
Q 2709 3584 3137 3096 
Q 3566 2609 3566 1747 
Q 3566 888 3137 398 
Q 2709 -91 1959 -91 
Q 1206 -91 779 398 
Q 353 888 353 1747 
Q 353 2609 779 3096 
Q 1206 3584 1959 3584 
z
" transform="scale(0.015625)"/>
       <path id="DejaVuSans-78" d="M 3513 3500 
L 2247 1797 
L 3578 0 
L 2900 0 
L 1881 1375 
L 863 0 
L 184 0 
L 1544 1831 
L 300 3500 
L 978 3500 
L 1906 2253 
L 2834 3500 
L 3513 3500 
z
" transform="scale(0.015625)"/>
       <path id="DejaVuSans-6d" d="M 3328 2828 
Q 3544 3216 3844 3400 
Q 4144 3584 4550 3584 
Q 5097 3584 5394 3201 
Q 5691 2819 5691 2113 
L 5691 0 
L 5113 0 
L 5113 2094 
Q 5113 2597 4934 2840 
Q 4756 3084 4391 3084 
Q 3944 3084 3684 2787 
Q 3425 2491 3425 1978 
L 3425 0 
L 2847 0 
L 2847 2094 
Q 2847 2600 2669 2842 
Q 2491 3084 2119 3084 
Q 1678 3084 1418 2786 
Q 1159 2488 1159 1978 
L 1159 0 
L 581 0 
L 581 3500 
L 1159 3500 
L 1159 2956 
Q 1356 3278 1631 3431 
Q 1906 3584 2284 3584 
Q 2666 3584 2933 3390 
Q 3200 3197 3328 2828 
z
" transform="scale(0.015625)"/>
       <path id="DejaVuSans-61" d="M 2194 1759 
Q 1497 1759 1228 1600 
Q 959 1441 959 1056 
Q 959 750 1161 570 
Q 1363 391 1709 391 
Q 2188 391 2477 730 
Q 2766 1069 2766 1631 
L 2766 1759 
L 2194 1759 
z
M 3341 1997 
L 3341 0 
L 2766 0 
L 2766 531 
Q 2569 213 2275 61 
Q 1981 -91 1556 -91 
Q 1019 -91 701 211 
Q 384 513 384 1019 
Q 384 1609 779 1909 
Q 1175 2209 1959 2209 
L 2766 2209 
L 2766 2266 
Q 2766 2663 2505 2880 
Q 2244 3097 1772 3097 
Q 1472 3097 1187 3025 
Q 903 2953 641 2809 
L 641 3341 
Q 956 3463 1253 3523 
Q 1550 3584 1831 3584 
Q 2591 3584 2966 3190 
Q 3341 2797 3341 1997 
z
" transform="scale(0.015625)"/>
       <path id="DejaVuSans-66" d="M 2375 4863 
L 2375 4384 
L 1825 4384 
Q 1516 4384 1395 4259 
Q 1275 4134 1275 3809 
L 1275 3500 
L 2222 3500 
L 2222 3053 
L 1275 3053 
L 1275 0 
L 697 0 
L 697 3053 
L 147 3053 
L 147 3500 
L 697 3500 
L 697 3744 
Q 697 4328 969 4595 
Q 1241 4863 1831 4863 
L 2375 4863 
z
" transform="scale(0.015625)"/>
       <path id="DejaVuSans-Oblique-68" d="M 3566 2113 
L 3156 0 
L 2578 0 
L 2988 2091 
Q 3016 2238 3031 2350 
Q 3047 2463 3047 2528 
Q 3047 2791 2881 2937 
Q 2716 3084 2419 3084 
Q 1956 3084 1617 2771 
Q 1278 2459 1178 1941 
L 800 0 
L 225 0 
L 1172 4863 
L 1747 4863 
L 1375 2950 
Q 1594 3244 1934 3414 
Q 2275 3584 2650 3584 
Q 3113 3584 3367 3334 
Q 3622 3084 3622 2631 
Q 3622 2519 3608 2391 
Q 3594 2263 3566 2113 
z
" transform="scale(0.015625)"/>
       <path id="DejaVuSans-3d" d="M 678 2906 
L 4684 2906 
L 4684 2381 
L 678 2381 
L 678 2906 
z
M 678 1631 
L 4684 1631 
L 4684 1100 
L 678 1100 
L 678 1631 
z
" transform="scale(0.015625)"/>
       <path id="DejaVuSans-Oblique-3c0" d="M 584 3500 
L 3938 3500 
L 3825 2925 
L 3384 2925 
L 2966 775 
Q 2922 550 2981 450 
Q 3038 353 3209 353 
Q 3256 353 3325 363 
Q 3397 369 3419 372 
L 3338 -44 
Q 3222 -84 3103 -103 
Q 2981 -122 2866 -122 
Q 2491 -122 2388 81 
Q 2284 288 2391 838 
L 2797 2925 
L 1506 2925 
L 938 0 
L 350 0 
L 919 2925 
L 472 2925 
L 584 3500 
z
" transform="scale(0.015625)"/>
      </defs>
      <use xlink:href="#DejaVuSans-46" transform="translate(0 0.5875)"/>
      <use xlink:href="#DejaVuSans-69" transform="translate(57.519531 0.5875)"/>
      <use xlink:href="#DejaVuSans-6e" transform="translate(85.302734 0.5875)"/>
      <use xlink:href="#DejaVuSans-69" transform="translate(148.681641 0.5875)"/>
      <use xlink:href="#DejaVuSans-74" transform="translate(176.464844 0.5875)"/>
      <use xlink:href="#DejaVuSans-65" transform="translate(215.673828 0.5875)"/>
      <use xlink:href="#DejaVuSans-20" transform="translate(277.197266 0.5875)"/>
      <use xlink:href="#DejaVuSans-41" transform="translate(308.984375 0.5875)"/>
      <use xlink:href="#DejaVuSans-70" transform="translate(377.392578 0.5875)"/>
      <use xlink:href="#DejaVuSans-70" transform="translate(440.869141 0.5875)"/>
      <use xlink:href="#DejaVuSans-72" transform="translate(504.345703 0.5875)"/>
      <use xlink:href="#DejaVuSans-6f" transform="translate(545.458984 0.5875)"/>
      <use xlink:href="#DejaVuSans-78" transform="translate(606.640625 0.5875)"/>
      <use xlink:href="#DejaVuSans-69" transform="translate(665.820312 0.5875)"/>
      <use xlink:href="#DejaVuSans-6d" transform="translate(693.603516 0.5875)"/>
      <use xlink:href="#DejaVuSans-61" transform="translate(791.015625 0.5875)"/>
      <use xlink:href="#DejaVuSans-74" transform="translate(852.294922 0.5875)"/>
      <use xlink:href="#DejaVuSans-69" transform="translate(891.503906 0.5875)"/>
      <use xlink:href="#DejaVuSans-6f" transform="translate(919.287109 0.5875)"/>
      <use xlink:href="#DejaVuSans-6e" transform="translate(980.46875 0.5875)"/>
      <use xlink:href="#DejaVuSans-20" transform="translate(1043.847656 0.5875)"/>
      <use xlink:href="#DejaVuSans-66" transform="translate(1075.634766 0.5875)"/>
      <use xlink:href="#DejaVuSans-6f" transform="translate(1110.839844 0.5875)"/>
      <use xlink:href="#DejaVuSans-72" transform="translate(1172.021484 0.5875)"/>
      <use xlink:href="#DejaVuSans-20" transform="translate(1213.134766 0.5875)"/>
      <use xlink:href="#DejaVuSans-Oblique-68" transform="translate(1244.921875 0.5875)"/>
      <use xlink:href="#DejaVuSans-3d" transform="translate(1327.783203 0.5875)"/>
      <use xlink:href="#DejaVuSans-Oblique-3c0" transform="translate(1432.054688 45.71875) scale(0.7)"/>
      <use xlink:href="#DejaVuSans-33" transform="translate(1431.054688 -38.81875) scale(0.7)"/>
      <path d="M 1431.054688 19.384375 
L 1431.054688 25.634375 
L 1475.59082 25.634375 
L 1475.59082 19.384375 
L 1431.054688 19.384375 
z
"/>
     </g>
    </g>
    <g id="line2d_32">
     <path d="M 224.42 256.284 
L 234.42 256.284 
L 244.42 256.284 
" style="fill: none; stroke-dasharray: 5.55,2.4; stroke-dashoffset: 0; stroke: #ff7f0e; stroke-width: 1.5"/>
    </g>
    <g id="text_15">
     <!-- Finite Approximation for $h = \frac{\pi}{4}$ -->
     <g transform="translate(252.42 259.784) scale(0.1 -0.1)">
      <use xlink:href="#DejaVuSans-46" transform="translate(0 0.5875)"/>
      <use xlink:href="#DejaVuSans-69" transform="translate(57.519531 0.5875)"/>
      <use xlink:href="#DejaVuSans-6e" transform="translate(85.302734 0.5875)"/>
      <use xlink:href="#DejaVuSans-69" transform="translate(148.681641 0.5875)"/>
      <use xlink:href="#DejaVuSans-74" transform="translate(176.464844 0.5875)"/>
      <use xlink:href="#DejaVuSans-65" transform="translate(215.673828 0.5875)"/>
      <use xlink:href="#DejaVuSans-20" transform="translate(277.197266 0.5875)"/>
      <use xlink:href="#DejaVuSans-41" transform="translate(308.984375 0.5875)"/>
      <use xlink:href="#DejaVuSans-70" transform="translate(377.392578 0.5875)"/>
      <use xlink:href="#DejaVuSans-70" transform="translate(440.869141 0.5875)"/>
      <use xlink:href="#DejaVuSans-72" transform="translate(504.345703 0.5875)"/>
      <use xlink:href="#DejaVuSans-6f" transform="translate(545.458984 0.5875)"/>
      <use xlink:href="#DejaVuSans-78" transform="translate(606.640625 0.5875)"/>
      <use xlink:href="#DejaVuSans-69" transform="translate(665.820312 0.5875)"/>
      <use xlink:href="#DejaVuSans-6d" transform="translate(693.603516 0.5875)"/>
      <use xlink:href="#DejaVuSans-61" transform="translate(791.015625 0.5875)"/>
      <use xlink:href="#DejaVuSans-74" transform="translate(852.294922 0.5875)"/>
      <use xlink:href="#DejaVuSans-69" transform="translate(891.503906 0.5875)"/>
      <use xlink:href="#DejaVuSans-6f" transform="translate(919.287109 0.5875)"/>
      <use xlink:href="#DejaVuSans-6e" transform="translate(980.46875 0.5875)"/>
      <use xlink:href="#DejaVuSans-20" transform="translate(1043.847656 0.5875)"/>
      <use xlink:href="#DejaVuSans-66" transform="translate(1075.634766 0.5875)"/>
      <use xlink:href="#DejaVuSans-6f" transform="translate(1110.839844 0.5875)"/>
      <use xlink:href="#DejaVuSans-72" transform="translate(1172.021484 0.5875)"/>
      <use xlink:href="#DejaVuSans-20" transform="translate(1213.134766 0.5875)"/>
      <use xlink:href="#DejaVuSans-Oblique-68" transform="translate(1244.921875 0.5875)"/>
      <use xlink:href="#DejaVuSans-3d" transform="translate(1327.783203 0.5875)"/>
      <use xlink:href="#DejaVuSans-Oblique-3c0" transform="translate(1432.054688 45.71875) scale(0.7)"/>
      <use xlink:href="#DejaVuSans-34" transform="translate(1431.054688 -37.9) scale(0.7)"/>
      <path d="M 1431.054688 19.384375 
L 1431.054688 25.634375 
L 1475.59082 25.634375 
L 1475.59082 19.384375 
L 1431.054688 19.384375 
z
"/>
     </g>
    </g>
    <g id="line2d_33">
     <path d="M 224.42 273.584 
L 234.42 273.584 
L 244.42 273.584 
" style="fill: none; stroke-dasharray: 5.55,2.4; stroke-dashoffset: 0; stroke: #2ca02c; stroke-width: 1.5"/>
    </g>
    <g id="text_16">
     <!-- Finite Approximation for $h = \frac{\pi}{5}$ -->
     <g transform="translate(252.42 277.084) scale(0.1 -0.1)">
      <use xlink:href="#DejaVuSans-46" transform="translate(0 0.5875)"/>
      <use xlink:href="#DejaVuSans-69" transform="translate(57.519531 0.5875)"/>
      <use xlink:href="#DejaVuSans-6e" transform="translate(85.302734 0.5875)"/>
      <use xlink:href="#DejaVuSans-69" transform="translate(148.681641 0.5875)"/>
      <use xlink:href="#DejaVuSans-74" transform="translate(176.464844 0.5875)"/>
      <use xlink:href="#DejaVuSans-65" transform="translate(215.673828 0.5875)"/>
      <use xlink:href="#DejaVuSans-20" transform="translate(277.197266 0.5875)"/>
      <use xlink:href="#DejaVuSans-41" transform="translate(308.984375 0.5875)"/>
      <use xlink:href="#DejaVuSans-70" transform="translate(377.392578 0.5875)"/>
      <use xlink:href="#DejaVuSans-70" transform="translate(440.869141 0.5875)"/>
      <use xlink:href="#DejaVuSans-72" transform="translate(504.345703 0.5875)"/>
      <use xlink:href="#DejaVuSans-6f" transform="translate(545.458984 0.5875)"/>
      <use xlink:href="#DejaVuSans-78" transform="translate(606.640625 0.5875)"/>
      <use xlink:href="#DejaVuSans-69" transform="translate(665.820312 0.5875)"/>
      <use xlink:href="#DejaVuSans-6d" transform="translate(693.603516 0.5875)"/>
      <use xlink:href="#DejaVuSans-61" transform="translate(791.015625 0.5875)"/>
      <use xlink:href="#DejaVuSans-74" transform="translate(852.294922 0.5875)"/>
      <use xlink:href="#DejaVuSans-69" transform="translate(891.503906 0.5875)"/>
      <use xlink:href="#DejaVuSans-6f" transform="translate(919.287109 0.5875)"/>
      <use xlink:href="#DejaVuSans-6e" transform="translate(980.46875 0.5875)"/>
      <use xlink:href="#DejaVuSans-20" transform="translate(1043.847656 0.5875)"/>
      <use xlink:href="#DejaVuSans-66" transform="translate(1075.634766 0.5875)"/>
      <use xlink:href="#DejaVuSans-6f" transform="translate(1110.839844 0.5875)"/>
      <use xlink:href="#DejaVuSans-72" transform="translate(1172.021484 0.5875)"/>
      <use xlink:href="#DejaVuSans-20" transform="translate(1213.134766 0.5875)"/>
      <use xlink:href="#DejaVuSans-Oblique-68" transform="translate(1244.921875 0.5875)"/>
      <use xlink:href="#DejaVuSans-3d" transform="translate(1327.783203 0.5875)"/>
      <use xlink:href="#DejaVuSans-Oblique-3c0" transform="translate(1432.054688 45.71875) scale(0.7)"/>
      <use xlink:href="#DejaVuSans-35" transform="translate(1431.054688 -37.9) scale(0.7)"/>
      <path d="M 1431.054688 19.384375 
L 1431.054688 25.634375 
L 1475.59082 25.634375 
L 1475.59082 19.384375 
L 1431.054688 19.384375 
z
"/>
     </g>
    </g>
    <g id="line2d_34">
     <path d="M 224.42 290.984 
L 234.42 290.984 
L 244.42 290.984 
" style="fill: none; stroke-dasharray: 5.55,2.4; stroke-dashoffset: 0; stroke: #d62728; stroke-width: 1.5"/>
    </g>
    <g id="text_17">
     <!-- Finite Approximation for $h = \frac{\pi}{10}$ -->
     <g transform="translate(252.42 294.484) scale(0.1 -0.1)">
      <use xlink:href="#DejaVuSans-46" transform="translate(0 0.5875)"/>
      <use xlink:href="#DejaVuSans-69" transform="translate(57.519531 0.5875)"/>
      <use xlink:href="#DejaVuSans-6e" transform="translate(85.302734 0.5875)"/>
      <use xlink:href="#DejaVuSans-69" transform="translate(148.681641 0.5875)"/>
      <use xlink:href="#DejaVuSans-74" transform="translate(176.464844 0.5875)"/>
      <use xlink:href="#DejaVuSans-65" transform="translate(215.673828 0.5875)"/>
      <use xlink:href="#DejaVuSans-20" transform="translate(277.197266 0.5875)"/>
      <use xlink:href="#DejaVuSans-41" transform="translate(308.984375 0.5875)"/>
      <use xlink:href="#DejaVuSans-70" transform="translate(377.392578 0.5875)"/>
      <use xlink:href="#DejaVuSans-70" transform="translate(440.869141 0.5875)"/>
      <use xlink:href="#DejaVuSans-72" transform="translate(504.345703 0.5875)"/>
      <use xlink:href="#DejaVuSans-6f" transform="translate(545.458984 0.5875)"/>
      <use xlink:href="#DejaVuSans-78" transform="translate(606.640625 0.5875)"/>
      <use xlink:href="#DejaVuSans-69" transform="translate(665.820312 0.5875)"/>
      <use xlink:href="#DejaVuSans-6d" transform="translate(693.603516 0.5875)"/>
      <use xlink:href="#DejaVuSans-61" transform="translate(791.015625 0.5875)"/>
      <use xlink:href="#DejaVuSans-74" transform="translate(852.294922 0.5875)"/>
      <use xlink:href="#DejaVuSans-69" transform="translate(891.503906 0.5875)"/>
      <use xlink:href="#DejaVuSans-6f" transform="translate(919.287109 0.5875)"/>
      <use xlink:href="#DejaVuSans-6e" transform="translate(980.46875 0.5875)"/>
      <use xlink:href="#DejaVuSans-20" transform="translate(1043.847656 0.5875)"/>
      <use xlink:href="#DejaVuSans-66" transform="translate(1075.634766 0.5875)"/>
      <use xlink:href="#DejaVuSans-6f" transform="translate(1110.839844 0.5875)"/>
      <use xlink:href="#DejaVuSans-72" transform="translate(1172.021484 0.5875)"/>
      <use xlink:href="#DejaVuSans-20" transform="translate(1213.134766 0.5875)"/>
      <use xlink:href="#DejaVuSans-Oblique-68" transform="translate(1244.921875 0.5875)"/>
      <use xlink:href="#DejaVuSans-3d" transform="translate(1327.783203 0.5875)"/>
      <use xlink:href="#DejaVuSans-Oblique-3c0" transform="translate(1454.054688 45.71875) scale(0.7)"/>
      <use xlink:href="#DejaVuSans-31" transform="translate(1431.054688 -38.81875) scale(0.7)"/>
      <use xlink:href="#DejaVuSans-30" transform="translate(1475.59082 -38.81875) scale(0.7)"/>
      <path d="M 1431.054688 19.384375 
L 1431.054688 25.634375 
L 1520.126953 25.634375 
L 1520.126953 19.384375 
L 1431.054688 19.384375 
z
"/>
     </g>
    </g>
   </g>
  </g>
 </g>
 <defs>
  <clipPath id="pb7feb86c26">
   <rect x="57.6" y="41.472" width="357.12" height="266.112"/>
  </clipPath>
 </defs>
</svg>
