<?xml version="1.0" encoding="utf-8" standalone="no"?>
<!DOCTYPE svg PUBLIC "-//W3C//DTD SVG 1.1//EN"
  "http://www.w3.org/Graphics/SVG/1.1/DTD/svg11.dtd">
<svg xmlns:xlink="http://www.w3.org/1999/xlink" width="460.8pt" height="345.6pt" viewBox="0 0 460.8 345.6" xmlns="http://www.w3.org/2000/svg" version="1.1">
 <metadata>
  <rdf:RDF xmlns:dc="http://purl.org/dc/elements/1.1/" xmlns:cc="http://creativecommons.org/ns#" xmlns:rdf="http://www.w3.org/1999/02/22-rdf-syntax-ns#">
   <cc:Work>
    <dc:type rdf:resource="http://purl.org/dc/dcmitype/StillImage"/>
    <dc:date>1980-01-01T00:00:00+00:00</dc:date>
    <dc:format>image/svg+xml</dc:format>
    <dc:creator>
     <cc:Agent>
      <dc:title>Matplotlib v3.9.2, https://matplotlib.org/</dc:title>
     </cc:Agent>
    </dc:creator>
   </cc:Work>
  </rdf:RDF>
 </metadata>
 <defs>
  <style type="text/css">*{stroke-linejoin: round; stroke-linecap: butt}</style>
 </defs>
 <g id="figure_1">
  <g id="patch_1">
   <path d="M 0 345.6 
L 460.8 345.6 
L 460.8 0 
L 0 0 
z
" style="fill: #ffffff"/>
  </g>
  <g id="axes_1">
   <g id="patch_2">
    <path d="M 57.6 307.584 
L 414.72 307.584 
L 414.72 41.472 
L 57.6 41.472 
z
" style="fill: #ffffff"/>
   </g>
   <g id="matplotlib.axis_1">
    <g id="xtick_1">
     <g id="line2d_1">
      <path d="M 66.516582 307.584 
L 66.516582 41.472 
" clip-path="url(#p59046f3dd7)" style="fill: none; stroke: #b0b0b0; stroke-width: 0.8; stroke-linecap: square"/>
     </g>
     <g id="line2d_2">
      <defs>
       <path id="ma55c573a46" d="M 0 0 
L 0 3.5 
" style="stroke: #000000; stroke-width: 0.8"/>
      </defs>
      <g>
       <use xlink:href="#ma55c573a46" x="66.516582" y="307.584" style="stroke: #000000; stroke-width: 0.8"/>
      </g>
     </g>
     <g id="text_1">
      <!-- 3 -->
      <g transform="translate(63.335332 322.182437) scale(0.1 -0.1)">
       <defs>
        <path id="DejaVuSans-33" d="M 2597 2516 
Q 3050 2419 3304 2112 
Q 3559 1806 3559 1356 
Q 3559 666 3084 287 
Q 2609 -91 1734 -91 
Q 1441 -91 1130 -33 
Q 819 25 488 141 
L 488 750 
Q 750 597 1062 519 
Q 1375 441 1716 441 
Q 2309 441 2620 675 
Q 2931 909 2931 1356 
Q 2931 1769 2642 2001 
Q 2353 2234 1838 2234 
L 1294 2234 
L 1294 2753 
L 1863 2753 
Q 2328 2753 2575 2939 
Q 2822 3125 2822 3475 
Q 2822 3834 2567 4026 
Q 2313 4219 1838 4219 
Q 1578 4219 1281 4162 
Q 984 4106 628 3988 
L 628 4550 
Q 988 4650 1302 4700 
Q 1616 4750 1894 4750 
Q 2613 4750 3031 4423 
Q 3450 4097 3450 3541 
Q 3450 3153 3228 2886 
Q 3006 2619 2597 2516 
z
" transform="scale(0.015625)"/>
       </defs>
       <use xlink:href="#DejaVuSans-33"/>
      </g>
     </g>
    </g>
    <g id="xtick_2">
     <g id="line2d_3">
      <path d="M 118.186957 307.584 
L 118.186957 41.472 
" clip-path="url(#p59046f3dd7)" style="fill: none; stroke: #b0b0b0; stroke-width: 0.8; stroke-linecap: square"/>
     </g>
     <g id="line2d_4">
      <g>
       <use xlink:href="#ma55c573a46" x="118.186957" y="307.584" style="stroke: #000000; stroke-width: 0.8"/>
      </g>
     </g>
     <g id="text_2">
      <!-- 4 -->
      <g transform="translate(115.005707 322.182437) scale(0.1 -0.1)">
       <defs>
        <path id="DejaVuSans-34" d="M 2419 4116 
L 825 1625 
L 2419 1625 
L 2419 4116 
z
M 2253 4666 
L 3047 4666 
L 3047 1625 
L 3713 1625 
L 3713 1100 
L 3047 1100 
L 3047 0 
L 2419 0 
L 2419 1100 
L 313 1100 
L 313 1709 
L 2253 4666 
z
" transform="scale(0.015625)"/>
       </defs>
       <use xlink:href="#DejaVuSans-34"/>
      </g>
     </g>
    </g>
    <g id="xtick_3">
     <g id="line2d_5">
      <path d="M 169.857333 307.584 
L 169.857333 41.472 
" clip-path="url(#p59046f3dd7)" style="fill: none; stroke: #b0b0b0; stroke-width: 0.8; stroke-linecap: square"/>
     </g>
     <g id="line2d_6">
      <g>
       <use xlink:href="#ma55c573a46" x="169.857333" y="307.584" style="stroke: #000000; stroke-width: 0.8"/>
      </g>
     </g>
     <g id="text_3">
      <!-- 5 -->
      <g transform="translate(166.676083 322.182437) scale(0.1 -0.1)">
       <defs>
        <path id="DejaVuSans-35" d="M 691 4666 
L 3169 4666 
L 3169 4134 
L 1269 4134 
L 1269 2991 
Q 1406 3038 1543 3061 
Q 1681 3084 1819 3084 
Q 2600 3084 3056 2656 
Q 3513 2228 3513 1497 
Q 3513 744 3044 326 
Q 2575 -91 1722 -91 
Q 1428 -91 1123 -41 
Q 819 9 494 109 
L 494 744 
Q 775 591 1075 516 
Q 1375 441 1709 441 
Q 2250 441 2565 725 
Q 2881 1009 2881 1497 
Q 2881 1984 2565 2268 
Q 2250 2553 1709 2553 
Q 1456 2553 1204 2497 
Q 953 2441 691 2322 
L 691 4666 
z
" transform="scale(0.015625)"/>
       </defs>
       <use xlink:href="#DejaVuSans-35"/>
      </g>
     </g>
    </g>
    <g id="xtick_4">
     <g id="line2d_7">
      <path d="M 221.527709 307.584 
L 221.527709 41.472 
" clip-path="url(#p59046f3dd7)" style="fill: none; stroke: #b0b0b0; stroke-width: 0.8; stroke-linecap: square"/>
     </g>
     <g id="line2d_8">
      <g>
       <use xlink:href="#ma55c573a46" x="221.527709" y="307.584" style="stroke: #000000; stroke-width: 0.8"/>
      </g>
     </g>
     <g id="text_4">
      <!-- 6 -->
      <g transform="translate(218.346459 322.182437) scale(0.1 -0.1)">
       <defs>
        <path id="DejaVuSans-36" d="M 2113 2584 
Q 1688 2584 1439 2293 
Q 1191 2003 1191 1497 
Q 1191 994 1439 701 
Q 1688 409 2113 409 
Q 2538 409 2786 701 
Q 3034 994 3034 1497 
Q 3034 2003 2786 2293 
Q 2538 2584 2113 2584 
z
M 3366 4563 
L 3366 3988 
Q 3128 4100 2886 4159 
Q 2644 4219 2406 4219 
Q 1781 4219 1451 3797 
Q 1122 3375 1075 2522 
Q 1259 2794 1537 2939 
Q 1816 3084 2150 3084 
Q 2853 3084 3261 2657 
Q 3669 2231 3669 1497 
Q 3669 778 3244 343 
Q 2819 -91 2113 -91 
Q 1303 -91 875 529 
Q 447 1150 447 2328 
Q 447 3434 972 4092 
Q 1497 4750 2381 4750 
Q 2619 4750 2861 4703 
Q 3103 4656 3366 4563 
z
" transform="scale(0.015625)"/>
       </defs>
       <use xlink:href="#DejaVuSans-36"/>
      </g>
     </g>
    </g>
    <g id="xtick_5">
     <g id="line2d_9">
      <path d="M 273.198084 307.584 
L 273.198084 41.472 
" clip-path="url(#p59046f3dd7)" style="fill: none; stroke: #b0b0b0; stroke-width: 0.8; stroke-linecap: square"/>
     </g>
     <g id="line2d_10">
      <g>
       <use xlink:href="#ma55c573a46" x="273.198084" y="307.584" style="stroke: #000000; stroke-width: 0.8"/>
      </g>
     </g>
     <g id="text_5">
      <!-- 7 -->
      <g transform="translate(270.016834 322.182437) scale(0.1 -0.1)">
       <defs>
        <path id="DejaVuSans-37" d="M 525 4666 
L 3525 4666 
L 3525 4397 
L 1831 0 
L 1172 0 
L 2766 4134 
L 525 4134 
L 525 4666 
z
" transform="scale(0.015625)"/>
       </defs>
       <use xlink:href="#DejaVuSans-37"/>
      </g>
     </g>
    </g>
    <g id="xtick_6">
     <g id="line2d_11">
      <path d="M 324.86846 307.584 
L 324.86846 41.472 
" clip-path="url(#p59046f3dd7)" style="fill: none; stroke: #b0b0b0; stroke-width: 0.8; stroke-linecap: square"/>
     </g>
     <g id="line2d_12">
      <g>
       <use xlink:href="#ma55c573a46" x="324.86846" y="307.584" style="stroke: #000000; stroke-width: 0.8"/>
      </g>
     </g>
     <g id="text_6">
      <!-- 8 -->
      <g transform="translate(321.68721 322.182437) scale(0.1 -0.1)">
       <defs>
        <path id="DejaVuSans-38" d="M 2034 2216 
Q 1584 2216 1326 1975 
Q 1069 1734 1069 1313 
Q 1069 891 1326 650 
Q 1584 409 2034 409 
Q 2484 409 2743 651 
Q 3003 894 3003 1313 
Q 3003 1734 2745 1975 
Q 2488 2216 2034 2216 
z
M 1403 2484 
Q 997 2584 770 2862 
Q 544 3141 544 3541 
Q 544 4100 942 4425 
Q 1341 4750 2034 4750 
Q 2731 4750 3128 4425 
Q 3525 4100 3525 3541 
Q 3525 3141 3298 2862 
Q 3072 2584 2669 2484 
Q 3125 2378 3379 2068 
Q 3634 1759 3634 1313 
Q 3634 634 3220 271 
Q 2806 -91 2034 -91 
Q 1263 -91 848 271 
Q 434 634 434 1313 
Q 434 1759 690 2068 
Q 947 2378 1403 2484 
z
M 1172 3481 
Q 1172 3119 1398 2916 
Q 1625 2713 2034 2713 
Q 2441 2713 2670 2916 
Q 2900 3119 2900 3481 
Q 2900 3844 2670 4047 
Q 2441 4250 2034 4250 
Q 1625 4250 1398 4047 
Q 1172 3844 1172 3481 
z
" transform="scale(0.015625)"/>
       </defs>
       <use xlink:href="#DejaVuSans-38"/>
      </g>
     </g>
    </g>
    <g id="xtick_7">
     <g id="line2d_13">
      <path d="M 376.538836 307.584 
L 376.538836 41.472 
" clip-path="url(#p59046f3dd7)" style="fill: none; stroke: #b0b0b0; stroke-width: 0.8; stroke-linecap: square"/>
     </g>
     <g id="line2d_14">
      <g>
       <use xlink:href="#ma55c573a46" x="376.538836" y="307.584" style="stroke: #000000; stroke-width: 0.8"/>
      </g>
     </g>
     <g id="text_7">
      <!-- 9 -->
      <g transform="translate(373.357586 322.182437) scale(0.1 -0.1)">
       <defs>
        <path id="DejaVuSans-39" d="M 703 97 
L 703 672 
Q 941 559 1184 500 
Q 1428 441 1663 441 
Q 2288 441 2617 861 
Q 2947 1281 2994 2138 
Q 2813 1869 2534 1725 
Q 2256 1581 1919 1581 
Q 1219 1581 811 2004 
Q 403 2428 403 3163 
Q 403 3881 828 4315 
Q 1253 4750 1959 4750 
Q 2769 4750 3195 4129 
Q 3622 3509 3622 2328 
Q 3622 1225 3098 567 
Q 2575 -91 1691 -91 
Q 1453 -91 1209 -44 
Q 966 3 703 97 
z
M 1959 2075 
Q 2384 2075 2632 2365 
Q 2881 2656 2881 3163 
Q 2881 3666 2632 3958 
Q 2384 4250 1959 4250 
Q 1534 4250 1286 3958 
Q 1038 3666 1038 3163 
Q 1038 2656 1286 2365 
Q 1534 2075 1959 2075 
z
" transform="scale(0.015625)"/>
       </defs>
       <use xlink:href="#DejaVuSans-39"/>
      </g>
     </g>
    </g>
   </g>
   <g id="matplotlib.axis_2">
    <g id="ytick_1">
     <g id="line2d_15">
      <path d="M 57.6 306.167997 
L 414.72 306.167997 
" clip-path="url(#p59046f3dd7)" style="fill: none; stroke: #b0b0b0; stroke-width: 0.8; stroke-linecap: square"/>
     </g>
     <g id="line2d_16">
      <defs>
       <path id="mdb1c4c41d0" d="M 0 0 
L -3.5 0 
" style="stroke: #000000; stroke-width: 0.8"/>
      </defs>
      <g>
       <use xlink:href="#mdb1c4c41d0" x="57.6" y="306.167997" style="stroke: #000000; stroke-width: 0.8"/>
      </g>
     </g>
     <g id="text_8">
      <!-- −0.15 -->
      <g transform="translate(19.954687 309.967216) scale(0.1 -0.1)">
       <defs>
        <path id="DejaVuSans-2212" d="M 678 2272 
L 4684 2272 
L 4684 1741 
L 678 1741 
L 678 2272 
z
" transform="scale(0.015625)"/>
        <path id="DejaVuSans-30" d="M 2034 4250 
Q 1547 4250 1301 3770 
Q 1056 3291 1056 2328 
Q 1056 1369 1301 889 
Q 1547 409 2034 409 
Q 2525 409 2770 889 
Q 3016 1369 3016 2328 
Q 3016 3291 2770 3770 
Q 2525 4250 2034 4250 
z
M 2034 4750 
Q 2819 4750 3233 4129 
Q 3647 3509 3647 2328 
Q 3647 1150 3233 529 
Q 2819 -91 2034 -91 
Q 1250 -91 836 529 
Q 422 1150 422 2328 
Q 422 3509 836 4129 
Q 1250 4750 2034 4750 
z
" transform="scale(0.015625)"/>
        <path id="DejaVuSans-2e" d="M 684 794 
L 1344 794 
L 1344 0 
L 684 0 
L 684 794 
z
" transform="scale(0.015625)"/>
        <path id="DejaVuSans-31" d="M 794 531 
L 1825 531 
L 1825 4091 
L 703 3866 
L 703 4441 
L 1819 4666 
L 2450 4666 
L 2450 531 
L 3481 531 
L 3481 0 
L 794 0 
L 794 531 
z
" transform="scale(0.015625)"/>
       </defs>
       <use xlink:href="#DejaVuSans-2212"/>
       <use xlink:href="#DejaVuSans-30" x="83.789062"/>
       <use xlink:href="#DejaVuSans-2e" x="147.412109"/>
       <use xlink:href="#DejaVuSans-31" x="179.199219"/>
       <use xlink:href="#DejaVuSans-35" x="242.822266"/>
      </g>
     </g>
    </g>
    <g id="ytick_2">
     <g id="line2d_17">
      <path d="M 57.6 274.489421 
L 414.72 274.489421 
" clip-path="url(#p59046f3dd7)" style="fill: none; stroke: #b0b0b0; stroke-width: 0.8; stroke-linecap: square"/>
     </g>
     <g id="line2d_18">
      <g>
       <use xlink:href="#mdb1c4c41d0" x="57.6" y="274.489421" style="stroke: #000000; stroke-width: 0.8"/>
      </g>
     </g>
     <g id="text_9">
      <!-- −0.10 -->
      <g transform="translate(19.954687 278.28864) scale(0.1 -0.1)">
       <use xlink:href="#DejaVuSans-2212"/>
       <use xlink:href="#DejaVuSans-30" x="83.789062"/>
       <use xlink:href="#DejaVuSans-2e" x="147.412109"/>
       <use xlink:href="#DejaVuSans-31" x="179.199219"/>
       <use xlink:href="#DejaVuSans-30" x="242.822266"/>
      </g>
     </g>
    </g>
    <g id="ytick_3">
     <g id="line2d_19">
      <path d="M 57.6 242.810845 
L 414.72 242.810845 
" clip-path="url(#p59046f3dd7)" style="fill: none; stroke: #b0b0b0; stroke-width: 0.8; stroke-linecap: square"/>
     </g>
     <g id="line2d_20">
      <g>
       <use xlink:href="#mdb1c4c41d0" x="57.6" y="242.810845" style="stroke: #000000; stroke-width: 0.8"/>
      </g>
     </g>
     <g id="text_10">
      <!-- −0.05 -->
      <g transform="translate(19.954687 246.610064) scale(0.1 -0.1)">
       <use xlink:href="#DejaVuSans-2212"/>
       <use xlink:href="#DejaVuSans-30" x="83.789062"/>
       <use xlink:href="#DejaVuSans-2e" x="147.412109"/>
       <use xlink:href="#DejaVuSans-30" x="179.199219"/>
       <use xlink:href="#DejaVuSans-35" x="242.822266"/>
      </g>
     </g>
    </g>
    <g id="ytick_4">
     <g id="line2d_21">
      <path d="M 57.6 211.13227 
L 414.72 211.13227 
" clip-path="url(#p59046f3dd7)" style="fill: none; stroke: #b0b0b0; stroke-width: 0.8; stroke-linecap: square"/>
     </g>
     <g id="line2d_22">
      <g>
       <use xlink:href="#mdb1c4c41d0" x="57.6" y="211.13227" style="stroke: #000000; stroke-width: 0.8"/>
      </g>
     </g>
     <g id="text_11">
      <!-- 0.00 -->
      <g transform="translate(28.334375 214.931488) scale(0.1 -0.1)">
       <use xlink:href="#DejaVuSans-30"/>
       <use xlink:href="#DejaVuSans-2e" x="63.623047"/>
       <use xlink:href="#DejaVuSans-30" x="95.410156"/>
       <use xlink:href="#DejaVuSans-30" x="159.033203"/>
      </g>
     </g>
    </g>
    <g id="ytick_5">
     <g id="line2d_23">
      <path d="M 57.6 179.453694 
L 414.72 179.453694 
" clip-path="url(#p59046f3dd7)" style="fill: none; stroke: #b0b0b0; stroke-width: 0.8; stroke-linecap: square"/>
     </g>
     <g id="line2d_24">
      <g>
       <use xlink:href="#mdb1c4c41d0" x="57.6" y="179.453694" style="stroke: #000000; stroke-width: 0.8"/>
      </g>
     </g>
     <g id="text_12">
      <!-- 0.05 -->
      <g transform="translate(28.334375 183.252913) scale(0.1 -0.1)">
       <use xlink:href="#DejaVuSans-30"/>
       <use xlink:href="#DejaVuSans-2e" x="63.623047"/>
       <use xlink:href="#DejaVuSans-30" x="95.410156"/>
       <use xlink:href="#DejaVuSans-35" x="159.033203"/>
      </g>
     </g>
    </g>
    <g id="ytick_6">
     <g id="line2d_25">
      <path d="M 57.6 147.775118 
L 414.72 147.775118 
" clip-path="url(#p59046f3dd7)" style="fill: none; stroke: #b0b0b0; stroke-width: 0.8; stroke-linecap: square"/>
     </g>
     <g id="line2d_26">
      <g>
       <use xlink:href="#mdb1c4c41d0" x="57.6" y="147.775118" style="stroke: #000000; stroke-width: 0.8"/>
      </g>
     </g>
     <g id="text_13">
      <!-- 0.10 -->
      <g transform="translate(28.334375 151.574337) scale(0.1 -0.1)">
       <use xlink:href="#DejaVuSans-30"/>
       <use xlink:href="#DejaVuSans-2e" x="63.623047"/>
       <use xlink:href="#DejaVuSans-31" x="95.410156"/>
       <use xlink:href="#DejaVuSans-30" x="159.033203"/>
      </g>
     </g>
    </g>
    <g id="ytick_7">
     <g id="line2d_27">
      <path d="M 57.6 116.096542 
L 414.72 116.096542 
" clip-path="url(#p59046f3dd7)" style="fill: none; stroke: #b0b0b0; stroke-width: 0.8; stroke-linecap: square"/>
     </g>
     <g id="line2d_28">
      <g>
       <use xlink:href="#mdb1c4c41d0" x="57.6" y="116.096542" style="stroke: #000000; stroke-width: 0.8"/>
      </g>
     </g>
     <g id="text_14">
      <!-- 0.15 -->
      <g transform="translate(28.334375 119.895761) scale(0.1 -0.1)">
       <use xlink:href="#DejaVuSans-30"/>
       <use xlink:href="#DejaVuSans-2e" x="63.623047"/>
       <use xlink:href="#DejaVuSans-31" x="95.410156"/>
       <use xlink:href="#DejaVuSans-35" x="159.033203"/>
      </g>
     </g>
    </g>
    <g id="ytick_8">
     <g id="line2d_29">
      <path d="M 57.6 84.417967 
L 414.72 84.417967 
" clip-path="url(#p59046f3dd7)" style="fill: none; stroke: #b0b0b0; stroke-width: 0.8; stroke-linecap: square"/>
     </g>
     <g id="line2d_30">
      <g>
       <use xlink:href="#mdb1c4c41d0" x="57.6" y="84.417967" style="stroke: #000000; stroke-width: 0.8"/>
      </g>
     </g>
     <g id="text_15">
      <!-- 0.20 -->
      <g transform="translate(28.334375 88.217185) scale(0.1 -0.1)">
       <defs>
        <path id="DejaVuSans-32" d="M 1228 531 
L 3431 531 
L 3431 0 
L 469 0 
L 469 531 
Q 828 903 1448 1529 
Q 2069 2156 2228 2338 
Q 2531 2678 2651 2914 
Q 2772 3150 2772 3378 
Q 2772 3750 2511 3984 
Q 2250 4219 1831 4219 
Q 1534 4219 1204 4116 
Q 875 4013 500 3803 
L 500 4441 
Q 881 4594 1212 4672 
Q 1544 4750 1819 4750 
Q 2544 4750 2975 4387 
Q 3406 4025 3406 3419 
Q 3406 3131 3298 2873 
Q 3191 2616 2906 2266 
Q 2828 2175 2409 1742 
Q 1991 1309 1228 531 
z
" transform="scale(0.015625)"/>
       </defs>
       <use xlink:href="#DejaVuSans-30"/>
       <use xlink:href="#DejaVuSans-2e" x="63.623047"/>
       <use xlink:href="#DejaVuSans-32" x="95.410156"/>
       <use xlink:href="#DejaVuSans-30" x="159.033203"/>
      </g>
     </g>
    </g>
    <g id="ytick_9">
     <g id="line2d_31">
      <path d="M 57.6 52.739391 
L 414.72 52.739391 
" clip-path="url(#p59046f3dd7)" style="fill: none; stroke: #b0b0b0; stroke-width: 0.8; stroke-linecap: square"/>
     </g>
     <g id="line2d_32">
      <g>
       <use xlink:href="#mdb1c4c41d0" x="57.6" y="52.739391" style="stroke: #000000; stroke-width: 0.8"/>
      </g>
     </g>
     <g id="text_16">
      <!-- 0.25 -->
      <g transform="translate(28.334375 56.53861) scale(0.1 -0.1)">
       <use xlink:href="#DejaVuSans-30"/>
       <use xlink:href="#DejaVuSans-2e" x="63.623047"/>
       <use xlink:href="#DejaVuSans-32" x="95.410156"/>
       <use xlink:href="#DejaVuSans-35" x="159.033203"/>
      </g>
     </g>
    </g>
   </g>
   <g id="line2d_33">
    <path d="M 73.832727 82.743838 
L 77.082523 77.97153 
L 80.332318 73.607051 
L 83.257133 70.034702 
L 86.181949 66.804791 
L 89.106765 63.921725 
L 91.706601 61.653069 
L 94.306437 59.663207 
L 96.906274 57.953526 
L 99.50611 56.524876 
L 102.105946 55.377566 
L 104.380803 54.604295 
L 106.655659 54.045777 
L 108.930516 53.701218 
L 111.205373 53.569517 
L 113.480229 53.649265 
L 115.755086 53.938756 
L 118.029943 54.435985 
L 120.304799 55.138654 
L 122.904636 56.189933 
L 125.504472 57.501844 
L 128.104308 59.069604 
L 130.704144 60.887971 
L 133.62896 63.226088 
L 136.553776 65.865416 
L 139.478591 68.796535 
L 142.728387 72.383303 
L 145.978182 76.303195 
L 149.552957 80.981246 
L 153.127731 86.021689 
L 157.027486 91.906653 
L 161.252219 98.701659 
L 165.801933 106.461115 
L 170.676626 115.223624 
L 176.201278 125.631454 
L 182.700868 138.391692 
L 190.825356 154.880103 
L 215.84878 206.043396 
L 222.34837 218.621589 
L 227.873022 228.85591 
L 233.072695 238.025007 
L 237.947387 246.154413 
L 242.497101 253.290251 
L 246.721835 259.493422 
L 250.621589 264.83453 
L 254.521343 269.787024 
L 258.096118 273.97131 
L 261.670893 277.804055 
L 264.920688 280.97521 
L 268.170483 283.841795 
L 271.420278 286.398786 
L 274.345094 288.432096 
L 277.26991 290.209303 
L 280.194726 291.728989 
L 283.119541 292.990446 
L 286.044357 293.993668 
L 288.969173 294.739343 
L 291.569009 295.187054 
L 294.168845 295.433773 
L 296.768681 295.481336 
L 299.693497 295.299607 
L 302.618313 294.872489 
L 305.543129 294.204419 
L 308.467944 293.300449 
L 311.39276 292.16622 
L 314.317576 290.807946 
L 317.567371 289.044228 
L 320.817166 287.022314 
L 324.066962 284.753001 
L 327.641736 281.984774 
L 331.541491 278.658518 
L 335.441245 275.034304 
L 339.665979 270.799101 
L 344.215692 265.913717 
L 349.090385 260.351121 
L 354.615037 253.700152 
L 361.114627 245.504695 
L 369.564095 234.452407 
L 391.337723 205.770993 
L 398.162293 197.261657 
L 398.487273 196.866888 
L 398.487273 196.866888 
" clip-path="url(#p59046f3dd7)" style="fill: none; stroke: #808080; stroke-width: 1.5; stroke-linecap: square"/>
   </g>
   <g id="line2d_34">
    <path d="M 73.832727 91.683844 
L 77.082523 87.130507 
L 80.332318 82.956714 
L 83.257133 79.531448 
L 86.181949 76.425116 
L 89.106765 73.641941 
L 92.031581 71.185348 
L 94.631417 69.278022 
L 97.231253 67.63214 
L 99.831089 66.248516 
L 102.430925 65.127465 
L 105.030762 64.268807 
L 107.630598 63.671863 
L 109.905455 63.363319 
L 112.180311 63.253175 
L 114.455168 63.340061 
L 117.055004 63.678493 
L 119.65484 64.269207 
L 122.254676 65.108841 
L 124.854513 66.193581 
L 127.454349 67.519171 
L 130.054185 69.080924 
L 132.979001 71.11381 
L 135.903817 73.431229 
L 138.828632 76.024667 
L 142.078428 79.218881 
L 145.328223 82.729249 
L 148.902998 86.938876 
L 152.477772 91.493939 
L 156.377527 96.832358 
L 160.60226 103.018143 
L 165.151974 110.105363 
L 170.026667 118.133778 
L 175.226339 127.124101 
L 181.40095 138.266004 
L 188.875479 152.247626 
L 201.224701 175.922274 
L 212.598984 197.562558 
L 219.748534 210.710477 
L 225.923145 221.608951 
L 231.447797 230.904611 
L 236.32249 238.687312 
L 240.872203 245.552823 
L 245.096937 251.551958 
L 249.321671 257.162644 
L 253.221425 261.976874 
L 257.121179 266.424079 
L 260.695954 270.166001 
L 264.270729 273.577909 
L 267.520524 276.386403 
L 270.770319 278.910356 
L 274.020115 281.145695 
L 277.26991 283.089347 
L 280.194726 284.587507 
L 283.119541 285.846888 
L 286.044357 286.867321 
L 288.969173 287.649283 
L 291.893989 288.193888 
L 294.818804 288.502882 
L 297.74362 288.578631 
L 300.668436 288.424108 
L 303.593251 288.04288 
L 306.518067 287.439094 
L 309.442883 286.617462 
L 312.367699 285.583237 
L 315.617494 284.191812 
L 318.867289 282.553739 
L 322.117084 280.67841 
L 325.691859 278.35358 
L 329.266634 275.768229 
L 333.166388 272.668634 
L 337.391122 269.005554 
L 341.615856 265.052286 
L 346.490549 260.168362 
L 351.690221 254.628244 
L 357.539853 248.05893 
L 364.364423 240.053844 
L 374.113808 228.241899 
L 390.037805 208.94586 
L 397.187355 200.653133 
L 398.487273 199.187427 
L 398.487273 199.187427 
" clip-path="url(#p59046f3dd7)" style="fill: none; stroke-dasharray: 5.55,2.4; stroke-dashoffset: 0; stroke: #1f77b4; stroke-width: 1.5"/>
   </g>
   <g id="line2d_35">
    <path d="M 73.832727 87.836056 
L 77.082523 83.188099 
L 80.332318 78.931853 
L 83.257133 75.442934 
L 86.181949 72.283061 
L 89.106765 69.456536 
L 91.706601 67.22675 
L 94.306437 65.265011 
L 96.906274 63.572701 
L 99.50611 62.150684 
L 102.105946 60.999311 
L 104.705782 60.118418 
L 106.980639 59.568994 
L 109.255495 59.225376 
L 111.530352 59.086495 
L 113.805209 59.150995 
L 116.080066 59.417227 
L 118.354922 59.88326 
L 120.954758 60.657671 
L 123.554595 61.686403 
L 126.154431 62.965251 
L 128.754267 64.489558 
L 131.354103 66.25423 
L 134.278919 68.519909 
L 137.203735 71.074317 
L 140.12855 73.908335 
L 143.378346 77.373329 
L 146.628141 81.15731 
L 150.202916 85.670171 
L 153.77769 90.529737 
L 157.677445 96.20046 
L 161.902179 102.74474 
L 166.451892 110.214238 
L 171.326585 118.645386 
L 176.851237 128.655048 
L 183.350827 140.921303 
L 191.475315 156.763227 
L 215.84878 204.639694 
L 222.34837 216.751963 
L 228.198002 227.18279 
L 233.397674 236.000492 
L 238.272367 243.821357 
L 242.82208 250.689264 
L 247.046814 256.662285 
L 250.946568 261.807826 
L 254.846323 266.581723 
L 258.421097 270.617768 
L 261.995872 274.317524 
L 265.245667 277.381332 
L 268.495463 280.153719 
L 271.745258 282.629851 
L 274.995053 284.805927 
L 277.919869 286.505541 
L 280.844685 287.958555 
L 283.7695 289.164348 
L 286.694316 290.122967 
L 289.619132 290.835127 
L 292.543948 291.302201 
L 295.468763 291.526214 
L 298.393579 291.509824 
L 301.318395 291.256317 
L 304.24321 290.769589 
L 307.168026 290.054131 
L 310.092842 289.115012 
L 313.017658 287.957856 
L 316.267453 286.423922 
L 319.517248 284.637632 
L 322.767043 282.608934 
L 326.341818 280.110125 
L 329.916593 277.346019 
L 333.816347 274.046892 
L 338.041081 270.163482 
L 342.590794 265.654271 
L 347.465487 260.488912 
L 352.66516 254.651958 
L 358.839771 247.364256 
L 366.3143 238.166731 
L 378.988501 222.132391 
L 389.712826 208.70398 
L 396.862375 200.097904 
L 398.487273 198.1991 
L 398.487273 198.1991 
" clip-path="url(#p59046f3dd7)" style="fill: none; stroke-dasharray: 5.55,2.4; stroke-dashoffset: 0; stroke: #ff7f0e; stroke-width: 1.5"/>
   </g>
   <g id="line2d_36">
    <path d="M 73.832727 86.021851 
L 77.082523 81.32948 
L 80.332318 77.03456 
L 83.257133 73.515814 
L 86.181949 70.330883 
L 89.106765 67.484108 
L 91.706601 65.240379 
L 94.306437 63.268525 
L 96.906274 61.56993 
L 99.50611 60.145454 
L 102.105946 58.995431 
L 104.380803 58.214168 
L 106.655659 57.642448 
L 108.930516 57.279522 
L 111.205373 57.124336 
L 113.480229 57.175541 
L 115.755086 57.431497 
L 118.029943 57.890269 
L 120.629779 58.660072 
L 123.229615 59.688116 
L 125.829451 60.970173 
L 128.429287 62.501558 
L 131.029124 64.27714 
L 133.953939 66.559613 
L 136.878755 69.13553 
L 139.803571 71.995685 
L 143.053366 75.495025 
L 146.303161 79.31879 
L 149.877936 83.881491 
L 153.452711 88.797027 
L 157.352465 94.535482 
L 161.577199 101.160569 
L 166.126912 108.725158 
L 171.001605 117.266704 
L 176.526257 127.411019 
L 183.025848 139.846843 
L 191.150336 155.914229 
L 215.84878 205.136473 
L 222.34837 217.414829 
L 228.198002 227.984873 
L 233.397674 236.917068 
L 238.272367 244.836594 
L 242.82208 251.788461 
L 247.046814 257.832029 
L 250.946568 263.036081 
L 254.846323 267.861936 
L 258.421097 271.939701 
L 261.995872 275.675417 
L 265.245667 278.766845 
L 268.495463 281.561976 
L 271.745258 284.055948 
L 274.670074 286.039856 
L 277.594889 287.774671 
L 280.519705 289.25903 
L 283.444521 290.492258 
L 286.369337 291.474364 
L 289.294152 292.206034 
L 292.218968 292.688622 
L 295.143784 292.924145 
L 298.0686 292.915267 
L 300.993415 292.66529 
L 303.918231 292.178134 
L 306.843047 291.458327 
L 309.767862 290.510985 
L 312.692678 289.341791 
L 315.942473 287.790088 
L 319.192269 285.981509 
L 322.442064 283.926124 
L 326.016839 281.393041 
L 329.591613 278.589703 
L 333.491368 275.242378 
L 337.716102 271.300746 
L 342.265815 266.722317 
L 347.140508 261.475924 
L 352.34018 255.545513 
L 358.189812 248.53683 
L 365.339361 239.612976 
L 376.388665 225.414507 
L 389.062867 209.215803 
L 396.212416 200.435145 
L 398.487273 197.727582 
L 398.487273 197.727582 
" clip-path="url(#p59046f3dd7)" style="fill: none; stroke-dasharray: 5.55,2.4; stroke-dashoffset: 0; stroke: #2ca02c; stroke-width: 1.5"/>
   </g>
   <g id="line2d_37">
    <path d="M 73.832727 83.56972 
L 77.082523 78.817515 
L 80.332318 74.470522 
L 83.257133 70.911644 
L 86.181949 67.69303 
L 89.106765 64.819072 
L 91.706601 62.556664 
L 94.306437 60.571308 
L 96.906274 58.864388 
L 99.50611 57.436756 
L 102.105946 56.28873 
L 104.380803 55.513417 
L 106.655659 54.951545 
L 108.930516 54.60233 
L 111.205373 54.464683 
L 113.480229 54.537212 
L 115.755086 54.818226 
L 118.029943 55.305738 
L 120.304799 55.997471 
L 122.904636 57.034788 
L 125.504472 58.331208 
L 128.104308 59.88199 
L 130.704144 61.681931 
L 133.62896 63.997645 
L 136.553776 66.612861 
L 139.478591 69.518232 
L 142.728387 73.074562 
L 145.978182 76.962198 
L 149.552957 81.6028 
L 153.127731 86.603887 
L 157.027486 92.443937 
L 161.252219 99.188203 
L 165.801933 106.890916 
L 170.676626 115.590626 
L 176.201278 125.925359 
L 182.375889 137.953445 
L 190.175397 153.650487 
L 216.823718 207.720768 
L 223.323309 220.145006 
L 228.847961 230.236341 
L 234.047633 239.262149 
L 238.597346 246.733446 
L 242.82208 253.279007 
L 247.046814 259.417693 
L 250.946568 264.700598 
L 254.846323 269.59643 
L 258.421097 273.730345 
L 261.995872 277.514412 
L 265.245667 280.642934 
L 268.495463 283.46856 
L 271.745258 285.986388 
L 274.670074 287.986079 
L 277.594889 289.731289 
L 280.519705 291.220675 
L 283.444521 292.453594 
L 286.369337 293.430103 
L 289.294152 294.150946 
L 292.218968 294.617555 
L 295.143784 294.832033 
L 298.0686 294.797146 
L 300.993415 294.516308 
L 303.918231 293.993568 
L 306.843047 293.233591 
L 309.767862 292.241643 
L 312.692678 291.023568 
L 315.942473 289.412748 
L 319.192269 287.540235 
L 322.442064 285.416364 
L 326.016839 282.803019 
L 329.591613 279.914631 
L 333.491368 276.469539 
L 337.716102 272.416731 
L 341.940835 268.060067 
L 346.815528 262.696969 
L 352.015201 256.633743 
L 357.864832 249.466972 
L 365.014382 240.340164 
L 376.063686 225.815031 
L 388.737887 209.237785 
L 395.887437 200.249011 
L 398.487273 197.084781 
L 398.487273 197.084781 
" clip-path="url(#p59046f3dd7)" style="fill: none; stroke-dasharray: 5.55,2.4; stroke-dashoffset: 0; stroke: #d62728; stroke-width: 1.5"/>
   </g>
   <g id="patch_3">
    <path d="M 57.6 307.584 
L 57.6 41.472 
" style="fill: none; stroke: #000000; stroke-width: 0.8; stroke-linejoin: miter; stroke-linecap: square"/>
   </g>
   <g id="patch_4">
    <path d="M 414.72 307.584 
L 414.72 41.472 
" style="fill: none; stroke: #000000; stroke-width: 0.8; stroke-linejoin: miter; stroke-linecap: square"/>
   </g>
   <g id="patch_5">
    <path d="M 57.6 307.584 
L 414.72 307.584 
" style="fill: none; stroke: #000000; stroke-width: 0.8; stroke-linejoin: miter; stroke-linecap: square"/>
   </g>
   <g id="patch_6">
    <path d="M 57.6 41.472 
L 414.72 41.472 
" style="fill: none; stroke: #000000; stroke-width: 0.8; stroke-linejoin: miter; stroke-linecap: square"/>
   </g>
   <g id="legend_1">
    <g id="patch_7">
     <path d="M 222.42 133.850125 
L 407.72 133.850125 
Q 409.72 133.850125 409.72 131.850125 
L 409.72 48.472 
Q 409.72 46.472 407.72 46.472 
L 222.42 46.472 
Q 220.42 46.472 220.42 48.472 
L 220.42 131.850125 
Q 220.42 133.850125 222.42 133.850125 
z
" style="fill: #ffffff; opacity: 0.8; stroke: #cccccc; stroke-linejoin: miter"/>
    </g>
    <g id="line2d_38">
     <path d="M 224.42 54.570438 
L 234.42 54.570438 
L 244.42 54.570438 
" style="fill: none; stroke: #808080; stroke-width: 1.5; stroke-linecap: square"/>
    </g>
    <g id="text_17">
     <!-- $f''(x)$ -->
     <g transform="translate(252.42 58.070438) scale(0.1 -0.1)">
      <defs>
       <path id="DejaVuSans-Oblique-66" d="M 3059 4863 
L 2969 4384 
L 2419 4384 
Q 2106 4384 1964 4261 
Q 1822 4138 1753 3809 
L 1691 3500 
L 2638 3500 
L 2553 3053 
L 1606 3053 
L 1013 0 
L 434 0 
L 1031 3053 
L 481 3053 
L 563 3500 
L 1113 3500 
L 1159 3744 
Q 1278 4363 1576 4613 
Q 1875 4863 2516 4863 
L 3059 4863 
z
" transform="scale(0.015625)"/>
       <path id="Cmsy10-30" d="M 225 347 
Q 184 359 184 409 
L 966 3316 
Q 1003 3434 1093 3506 
Q 1184 3578 1300 3578 
Q 1450 3578 1564 3479 
Q 1678 3381 1678 3231 
Q 1678 3166 1644 3084 
L 488 319 
Q 466 275 428 275 
Q 394 275 320 306 
Q 247 338 225 347 
z
" transform="scale(0.015625)"/>
       <path id="DejaVuSans-28" d="M 1984 4856 
Q 1566 4138 1362 3434 
Q 1159 2731 1159 2009 
Q 1159 1288 1364 580 
Q 1569 -128 1984 -844 
L 1484 -844 
Q 1016 -109 783 600 
Q 550 1309 550 2009 
Q 550 2706 781 3412 
Q 1013 4119 1484 4856 
L 1984 4856 
z
" transform="scale(0.015625)"/>
       <path id="DejaVuSans-Oblique-78" d="M 3841 3500 
L 2234 1784 
L 3219 0 
L 2559 0 
L 1819 1388 
L 531 0 
L -166 0 
L 1556 1844 
L 641 3500 
L 1300 3500 
L 1972 2234 
L 3144 3500 
L 3841 3500 
z
" transform="scale(0.015625)"/>
       <path id="DejaVuSans-29" d="M 513 4856 
L 1013 4856 
Q 1481 4119 1714 3412 
Q 1947 2706 1947 2009 
Q 1947 1309 1714 600 
Q 1481 -109 1013 -844 
L 513 -844 
Q 928 -128 1133 580 
Q 1338 1288 1338 2009 
Q 1338 2731 1133 3434 
Q 928 4138 513 4856 
z
" transform="scale(0.015625)"/>
      </defs>
      <use xlink:href="#DejaVuSans-Oblique-66" transform="translate(0 0.584375)"/>
      <use xlink:href="#Cmsy10-30" transform="translate(42.652786 38.865625) scale(0.7)"/>
      <use xlink:href="#Cmsy10-30" transform="translate(61.895951 38.865625) scale(0.7)"/>
      <use xlink:href="#DejaVuSans-28" transform="translate(83.87349 0.584375)"/>
      <use xlink:href="#DejaVuSans-Oblique-78" transform="translate(122.887161 0.584375)"/>
      <use xlink:href="#DejaVuSans-29" transform="translate(182.066849 0.584375)"/>
     </g>
    </g>
    <g id="line2d_39">
     <path d="M 224.42 70.050125 
L 234.42 70.050125 
L 244.42 70.050125 
" style="fill: none; stroke-dasharray: 5.55,2.4; stroke-dashoffset: 0; stroke: #1f77b4; stroke-width: 1.5"/>
    </g>
    <g id="text_18">
     <!-- Finite Approximation for $h = \frac{\pi}{3}$ -->
     <g transform="translate(252.42 73.550125) scale(0.1 -0.1)">
      <defs>
       <path id="DejaVuSans-46" d="M 628 4666 
L 3309 4666 
L 3309 4134 
L 1259 4134 
L 1259 2759 
L 3109 2759 
L 3109 2228 
L 1259 2228 
L 1259 0 
L 628 0 
L 628 4666 
z
" transform="scale(0.015625)"/>
       <path id="DejaVuSans-69" d="M 603 3500 
L 1178 3500 
L 1178 0 
L 603 0 
L 603 3500 
z
M 603 4863 
L 1178 4863 
L 1178 4134 
L 603 4134 
L 603 4863 
z
" transform="scale(0.015625)"/>
       <path id="DejaVuSans-6e" d="M 3513 2113 
L 3513 0 
L 2938 0 
L 2938 2094 
Q 2938 2591 2744 2837 
Q 2550 3084 2163 3084 
Q 1697 3084 1428 2787 
Q 1159 2491 1159 1978 
L 1159 0 
L 581 0 
L 581 3500 
L 1159 3500 
L 1159 2956 
Q 1366 3272 1645 3428 
Q 1925 3584 2291 3584 
Q 2894 3584 3203 3211 
Q 3513 2838 3513 2113 
z
" transform="scale(0.015625)"/>
       <path id="DejaVuSans-74" d="M 1172 4494 
L 1172 3500 
L 2356 3500 
L 2356 3053 
L 1172 3053 
L 1172 1153 
Q 1172 725 1289 603 
Q 1406 481 1766 481 
L 2356 481 
L 2356 0 
L 1766 0 
Q 1100 0 847 248 
Q 594 497 594 1153 
L 594 3053 
L 172 3053 
L 172 3500 
L 594 3500 
L 594 4494 
L 1172 4494 
z
" transform="scale(0.015625)"/>
       <path id="DejaVuSans-65" d="M 3597 1894 
L 3597 1613 
L 953 1613 
Q 991 1019 1311 708 
Q 1631 397 2203 397 
Q 2534 397 2845 478 
Q 3156 559 3463 722 
L 3463 178 
Q 3153 47 2828 -22 
Q 2503 -91 2169 -91 
Q 1331 -91 842 396 
Q 353 884 353 1716 
Q 353 2575 817 3079 
Q 1281 3584 2069 3584 
Q 2775 3584 3186 3129 
Q 3597 2675 3597 1894 
z
M 3022 2063 
Q 3016 2534 2758 2815 
Q 2500 3097 2075 3097 
Q 1594 3097 1305 2825 
Q 1016 2553 972 2059 
L 3022 2063 
z
" transform="scale(0.015625)"/>
       <path id="DejaVuSans-20" transform="scale(0.015625)"/>
       <path id="DejaVuSans-41" d="M 2188 4044 
L 1331 1722 
L 3047 1722 
L 2188 4044 
z
M 1831 4666 
L 2547 4666 
L 4325 0 
L 3669 0 
L 3244 1197 
L 1141 1197 
L 716 0 
L 50 0 
L 1831 4666 
z
" transform="scale(0.015625)"/>
       <path id="DejaVuSans-70" d="M 1159 525 
L 1159 -1331 
L 581 -1331 
L 581 3500 
L 1159 3500 
L 1159 2969 
Q 1341 3281 1617 3432 
Q 1894 3584 2278 3584 
Q 2916 3584 3314 3078 
Q 3713 2572 3713 1747 
Q 3713 922 3314 415 
Q 2916 -91 2278 -91 
Q 1894 -91 1617 61 
Q 1341 213 1159 525 
z
M 3116 1747 
Q 3116 2381 2855 2742 
Q 2594 3103 2138 3103 
Q 1681 3103 1420 2742 
Q 1159 2381 1159 1747 
Q 1159 1113 1420 752 
Q 1681 391 2138 391 
Q 2594 391 2855 752 
Q 3116 1113 3116 1747 
z
" transform="scale(0.015625)"/>
       <path id="DejaVuSans-72" d="M 2631 2963 
Q 2534 3019 2420 3045 
Q 2306 3072 2169 3072 
Q 1681 3072 1420 2755 
Q 1159 2438 1159 1844 
L 1159 0 
L 581 0 
L 581 3500 
L 1159 3500 
L 1159 2956 
Q 1341 3275 1631 3429 
Q 1922 3584 2338 3584 
Q 2397 3584 2469 3576 
Q 2541 3569 2628 3553 
L 2631 2963 
z
" transform="scale(0.015625)"/>
       <path id="DejaVuSans-6f" d="M 1959 3097 
Q 1497 3097 1228 2736 
Q 959 2375 959 1747 
Q 959 1119 1226 758 
Q 1494 397 1959 397 
Q 2419 397 2687 759 
Q 2956 1122 2956 1747 
Q 2956 2369 2687 2733 
Q 2419 3097 1959 3097 
z
M 1959 3584 
Q 2709 3584 3137 3096 
Q 3566 2609 3566 1747 
Q 3566 888 3137 398 
Q 2709 -91 1959 -91 
Q 1206 -91 779 398 
Q 353 888 353 1747 
Q 353 2609 779 3096 
Q 1206 3584 1959 3584 
z
" transform="scale(0.015625)"/>
       <path id="DejaVuSans-78" d="M 3513 3500 
L 2247 1797 
L 3578 0 
L 2900 0 
L 1881 1375 
L 863 0 
L 184 0 
L 1544 1831 
L 300 3500 
L 978 3500 
L 1906 2253 
L 2834 3500 
L 3513 3500 
z
" transform="scale(0.015625)"/>
       <path id="DejaVuSans-6d" d="M 3328 2828 
Q 3544 3216 3844 3400 
Q 4144 3584 4550 3584 
Q 5097 3584 5394 3201 
Q 5691 2819 5691 2113 
L 5691 0 
L 5113 0 
L 5113 2094 
Q 5113 2597 4934 2840 
Q 4756 3084 4391 3084 
Q 3944 3084 3684 2787 
Q 3425 2491 3425 1978 
L 3425 0 
L 2847 0 
L 2847 2094 
Q 2847 2600 2669 2842 
Q 2491 3084 2119 3084 
Q 1678 3084 1418 2786 
Q 1159 2488 1159 1978 
L 1159 0 
L 581 0 
L 581 3500 
L 1159 3500 
L 1159 2956 
Q 1356 3278 1631 3431 
Q 1906 3584 2284 3584 
Q 2666 3584 2933 3390 
Q 3200 3197 3328 2828 
z
" transform="scale(0.015625)"/>
       <path id="DejaVuSans-61" d="M 2194 1759 
Q 1497 1759 1228 1600 
Q 959 1441 959 1056 
Q 959 750 1161 570 
Q 1363 391 1709 391 
Q 2188 391 2477 730 
Q 2766 1069 2766 1631 
L 2766 1759 
L 2194 1759 
z
M 3341 1997 
L 3341 0 
L 2766 0 
L 2766 531 
Q 2569 213 2275 61 
Q 1981 -91 1556 -91 
Q 1019 -91 701 211 
Q 384 513 384 1019 
Q 384 1609 779 1909 
Q 1175 2209 1959 2209 
L 2766 2209 
L 2766 2266 
Q 2766 2663 2505 2880 
Q 2244 3097 1772 3097 
Q 1472 3097 1187 3025 
Q 903 2953 641 2809 
L 641 3341 
Q 956 3463 1253 3523 
Q 1550 3584 1831 3584 
Q 2591 3584 2966 3190 
Q 3341 2797 3341 1997 
z
" transform="scale(0.015625)"/>
       <path id="DejaVuSans-66" d="M 2375 4863 
L 2375 4384 
L 1825 4384 
Q 1516 4384 1395 4259 
Q 1275 4134 1275 3809 
L 1275 3500 
L 2222 3500 
L 2222 3053 
L 1275 3053 
L 1275 0 
L 697 0 
L 697 3053 
L 147 3053 
L 147 3500 
L 697 3500 
L 697 3744 
Q 697 4328 969 4595 
Q 1241 4863 1831 4863 
L 2375 4863 
z
" transform="scale(0.015625)"/>
       <path id="DejaVuSans-Oblique-68" d="M 3566 2113 
L 3156 0 
L 2578 0 
L 2988 2091 
Q 3016 2238 3031 2350 
Q 3047 2463 3047 2528 
Q 3047 2791 2881 2937 
Q 2716 3084 2419 3084 
Q 1956 3084 1617 2771 
Q 1278 2459 1178 1941 
L 800 0 
L 225 0 
L 1172 4863 
L 1747 4863 
L 1375 2950 
Q 1594 3244 1934 3414 
Q 2275 3584 2650 3584 
Q 3113 3584 3367 3334 
Q 3622 3084 3622 2631 
Q 3622 2519 3608 2391 
Q 3594 2263 3566 2113 
z
" transform="scale(0.015625)"/>
       <path id="DejaVuSans-3d" d="M 678 2906 
L 4684 2906 
L 4684 2381 
L 678 2381 
L 678 2906 
z
M 678 1631 
L 4684 1631 
L 4684 1100 
L 678 1100 
L 678 1631 
z
" transform="scale(0.015625)"/>
       <path id="DejaVuSans-Oblique-3c0" d="M 584 3500 
L 3938 3500 
L 3825 2925 
L 3384 2925 
L 2966 775 
Q 2922 550 2981 450 
Q 3038 353 3209 353 
Q 3256 353 3325 363 
Q 3397 369 3419 372 
L 3338 -44 
Q 3222 -84 3103 -103 
Q 2981 -122 2866 -122 
Q 2491 -122 2388 81 
Q 2284 288 2391 838 
L 2797 2925 
L 1506 2925 
L 938 0 
L 350 0 
L 919 2925 
L 472 2925 
L 584 3500 
z
" transform="scale(0.015625)"/>
      </defs>
      <use xlink:href="#DejaVuSans-46" transform="translate(0 0.5875)"/>
      <use xlink:href="#DejaVuSans-69" transform="translate(57.519531 0.5875)"/>
      <use xlink:href="#DejaVuSans-6e" transform="translate(85.302734 0.5875)"/>
      <use xlink:href="#DejaVuSans-69" transform="translate(148.681641 0.5875)"/>
      <use xlink:href="#DejaVuSans-74" transform="translate(176.464844 0.5875)"/>
      <use xlink:href="#DejaVuSans-65" transform="translate(215.673828 0.5875)"/>
      <use xlink:href="#DejaVuSans-20" transform="translate(277.197266 0.5875)"/>
      <use xlink:href="#DejaVuSans-41" transform="translate(308.984375 0.5875)"/>
      <use xlink:href="#DejaVuSans-70" transform="translate(377.392578 0.5875)"/>
      <use xlink:href="#DejaVuSans-70" transform="translate(440.869141 0.5875)"/>
      <use xlink:href="#DejaVuSans-72" transform="translate(504.345703 0.5875)"/>
      <use xlink:href="#DejaVuSans-6f" transform="translate(545.458984 0.5875)"/>
      <use xlink:href="#DejaVuSans-78" transform="translate(606.640625 0.5875)"/>
      <use xlink:href="#DejaVuSans-69" transform="translate(665.820312 0.5875)"/>
      <use xlink:href="#DejaVuSans-6d" transform="translate(693.603516 0.5875)"/>
      <use xlink:href="#DejaVuSans-61" transform="translate(791.015625 0.5875)"/>
      <use xlink:href="#DejaVuSans-74" transform="translate(852.294922 0.5875)"/>
      <use xlink:href="#DejaVuSans-69" transform="translate(891.503906 0.5875)"/>
      <use xlink:href="#DejaVuSans-6f" transform="translate(919.287109 0.5875)"/>
      <use xlink:href="#DejaVuSans-6e" transform="translate(980.46875 0.5875)"/>
      <use xlink:href="#DejaVuSans-20" transform="translate(1043.847656 0.5875)"/>
      <use xlink:href="#DejaVuSans-66" transform="translate(1075.634766 0.5875)"/>
      <use xlink:href="#DejaVuSans-6f" transform="translate(1110.839844 0.5875)"/>
      <use xlink:href="#DejaVuSans-72" transform="translate(1172.021484 0.5875)"/>
      <use xlink:href="#DejaVuSans-20" transform="translate(1213.134766 0.5875)"/>
      <use xlink:href="#DejaVuSans-Oblique-68" transform="translate(1244.921875 0.5875)"/>
      <use xlink:href="#DejaVuSans-3d" transform="translate(1327.783203 0.5875)"/>
      <use xlink:href="#DejaVuSans-Oblique-3c0" transform="translate(1432.054688 45.71875) scale(0.7)"/>
      <use xlink:href="#DejaVuSans-33" transform="translate(1431.054688 -38.81875) scale(0.7)"/>
      <path d="M 1431.054688 19.384375 
L 1431.054688 25.634375 
L 1475.59082 25.634375 
L 1475.59082 19.384375 
L 1431.054688 19.384375 
z
"/>
     </g>
    </g>
    <g id="line2d_40">
     <path d="M 224.42 87.550125 
L 234.42 87.550125 
L 244.42 87.550125 
" style="fill: none; stroke-dasharray: 5.55,2.4; stroke-dashoffset: 0; stroke: #ff7f0e; stroke-width: 1.5"/>
    </g>
    <g id="text_19">
     <!-- Finite Approximation for $h = \frac{\pi}{4}$ -->
     <g transform="translate(252.42 91.050125) scale(0.1 -0.1)">
      <use xlink:href="#DejaVuSans-46" transform="translate(0 0.5875)"/>
      <use xlink:href="#DejaVuSans-69" transform="translate(57.519531 0.5875)"/>
      <use xlink:href="#DejaVuSans-6e" transform="translate(85.302734 0.5875)"/>
      <use xlink:href="#DejaVuSans-69" transform="translate(148.681641 0.5875)"/>
      <use xlink:href="#DejaVuSans-74" transform="translate(176.464844 0.5875)"/>
      <use xlink:href="#DejaVuSans-65" transform="translate(215.673828 0.5875)"/>
      <use xlink:href="#DejaVuSans-20" transform="translate(277.197266 0.5875)"/>
      <use xlink:href="#DejaVuSans-41" transform="translate(308.984375 0.5875)"/>
      <use xlink:href="#DejaVuSans-70" transform="translate(377.392578 0.5875)"/>
      <use xlink:href="#DejaVuSans-70" transform="translate(440.869141 0.5875)"/>
      <use xlink:href="#DejaVuSans-72" transform="translate(504.345703 0.5875)"/>
      <use xlink:href="#DejaVuSans-6f" transform="translate(545.458984 0.5875)"/>
      <use xlink:href="#DejaVuSans-78" transform="translate(606.640625 0.5875)"/>
      <use xlink:href="#DejaVuSans-69" transform="translate(665.820312 0.5875)"/>
      <use xlink:href="#DejaVuSans-6d" transform="translate(693.603516 0.5875)"/>
      <use xlink:href="#DejaVuSans-61" transform="translate(791.015625 0.5875)"/>
      <use xlink:href="#DejaVuSans-74" transform="translate(852.294922 0.5875)"/>
      <use xlink:href="#DejaVuSans-69" transform="translate(891.503906 0.5875)"/>
      <use xlink:href="#DejaVuSans-6f" transform="translate(919.287109 0.5875)"/>
      <use xlink:href="#DejaVuSans-6e" transform="translate(980.46875 0.5875)"/>
      <use xlink:href="#DejaVuSans-20" transform="translate(1043.847656 0.5875)"/>
      <use xlink:href="#DejaVuSans-66" transform="translate(1075.634766 0.5875)"/>
      <use xlink:href="#DejaVuSans-6f" transform="translate(1110.839844 0.5875)"/>
      <use xlink:href="#DejaVuSans-72" transform="translate(1172.021484 0.5875)"/>
      <use xlink:href="#DejaVuSans-20" transform="translate(1213.134766 0.5875)"/>
      <use xlink:href="#DejaVuSans-Oblique-68" transform="translate(1244.921875 0.5875)"/>
      <use xlink:href="#DejaVuSans-3d" transform="translate(1327.783203 0.5875)"/>
      <use xlink:href="#DejaVuSans-Oblique-3c0" transform="translate(1432.054688 45.71875) scale(0.7)"/>
      <use xlink:href="#DejaVuSans-34" transform="translate(1431.054688 -37.9) scale(0.7)"/>
      <path d="M 1431.054688 19.384375 
L 1431.054688 25.634375 
L 1475.59082 25.634375 
L 1475.59082 19.384375 
L 1431.054688 19.384375 
z
"/>
     </g>
    </g>
    <g id="line2d_41">
     <path d="M 224.42 104.850125 
L 234.42 104.850125 
L 244.42 104.850125 
" style="fill: none; stroke-dasharray: 5.55,2.4; stroke-dashoffset: 0; stroke: #2ca02c; stroke-width: 1.5"/>
    </g>
    <g id="text_20">
     <!-- Finite Approximation for $h = \frac{\pi}{5}$ -->
     <g transform="translate(252.42 108.350125) scale(0.1 -0.1)">
      <use xlink:href="#DejaVuSans-46" transform="translate(0 0.5875)"/>
      <use xlink:href="#DejaVuSans-69" transform="translate(57.519531 0.5875)"/>
      <use xlink:href="#DejaVuSans-6e" transform="translate(85.302734 0.5875)"/>
      <use xlink:href="#DejaVuSans-69" transform="translate(148.681641 0.5875)"/>
      <use xlink:href="#DejaVuSans-74" transform="translate(176.464844 0.5875)"/>
      <use xlink:href="#DejaVuSans-65" transform="translate(215.673828 0.5875)"/>
      <use xlink:href="#DejaVuSans-20" transform="translate(277.197266 0.5875)"/>
      <use xlink:href="#DejaVuSans-41" transform="translate(308.984375 0.5875)"/>
      <use xlink:href="#DejaVuSans-70" transform="translate(377.392578 0.5875)"/>
      <use xlink:href="#DejaVuSans-70" transform="translate(440.869141 0.5875)"/>
      <use xlink:href="#DejaVuSans-72" transform="translate(504.345703 0.5875)"/>
      <use xlink:href="#DejaVuSans-6f" transform="translate(545.458984 0.5875)"/>
      <use xlink:href="#DejaVuSans-78" transform="translate(606.640625 0.5875)"/>
      <use xlink:href="#DejaVuSans-69" transform="translate(665.820312 0.5875)"/>
      <use xlink:href="#DejaVuSans-6d" transform="translate(693.603516 0.5875)"/>
      <use xlink:href="#DejaVuSans-61" transform="translate(791.015625 0.5875)"/>
      <use xlink:href="#DejaVuSans-74" transform="translate(852.294922 0.5875)"/>
      <use xlink:href="#DejaVuSans-69" transform="translate(891.503906 0.5875)"/>
      <use xlink:href="#DejaVuSans-6f" transform="translate(919.287109 0.5875)"/>
      <use xlink:href="#DejaVuSans-6e" transform="translate(980.46875 0.5875)"/>
      <use xlink:href="#DejaVuSans-20" transform="translate(1043.847656 0.5875)"/>
      <use xlink:href="#DejaVuSans-66" transform="translate(1075.634766 0.5875)"/>
      <use xlink:href="#DejaVuSans-6f" transform="translate(1110.839844 0.5875)"/>
      <use xlink:href="#DejaVuSans-72" transform="translate(1172.021484 0.5875)"/>
      <use xlink:href="#DejaVuSans-20" transform="translate(1213.134766 0.5875)"/>
      <use xlink:href="#DejaVuSans-Oblique-68" transform="translate(1244.921875 0.5875)"/>
      <use xlink:href="#DejaVuSans-3d" transform="translate(1327.783203 0.5875)"/>
      <use xlink:href="#DejaVuSans-Oblique-3c0" transform="translate(1432.054688 45.71875) scale(0.7)"/>
      <use xlink:href="#DejaVuSans-35" transform="translate(1431.054688 -37.9) scale(0.7)"/>
      <path d="M 1431.054688 19.384375 
L 1431.054688 25.634375 
L 1475.59082 25.634375 
L 1475.59082 19.384375 
L 1431.054688 19.384375 
z
"/>
     </g>
    </g>
    <g id="line2d_42">
     <path d="M 224.42 122.250125 
L 234.42 122.250125 
L 244.42 122.250125 
" style="fill: none; stroke-dasharray: 5.55,2.4; stroke-dashoffset: 0; stroke: #d62728; stroke-width: 1.5"/>
    </g>
    <g id="text_21">
     <!-- Finite Approximation for $h = \frac{\pi}{10}$ -->
     <g transform="translate(252.42 125.750125) scale(0.1 -0.1)">
      <use xlink:href="#DejaVuSans-46" transform="translate(0 0.5875)"/>
      <use xlink:href="#DejaVuSans-69" transform="translate(57.519531 0.5875)"/>
      <use xlink:href="#DejaVuSans-6e" transform="translate(85.302734 0.5875)"/>
      <use xlink:href="#DejaVuSans-69" transform="translate(148.681641 0.5875)"/>
      <use xlink:href="#DejaVuSans-74" transform="translate(176.464844 0.5875)"/>
      <use xlink:href="#DejaVuSans-65" transform="translate(215.673828 0.5875)"/>
      <use xlink:href="#DejaVuSans-20" transform="translate(277.197266 0.5875)"/>
      <use xlink:href="#DejaVuSans-41" transform="translate(308.984375 0.5875)"/>
      <use xlink:href="#DejaVuSans-70" transform="translate(377.392578 0.5875)"/>
      <use xlink:href="#DejaVuSans-70" transform="translate(440.869141 0.5875)"/>
      <use xlink:href="#DejaVuSans-72" transform="translate(504.345703 0.5875)"/>
      <use xlink:href="#DejaVuSans-6f" transform="translate(545.458984 0.5875)"/>
      <use xlink:href="#DejaVuSans-78" transform="translate(606.640625 0.5875)"/>
      <use xlink:href="#DejaVuSans-69" transform="translate(665.820312 0.5875)"/>
      <use xlink:href="#DejaVuSans-6d" transform="translate(693.603516 0.5875)"/>
      <use xlink:href="#DejaVuSans-61" transform="translate(791.015625 0.5875)"/>
      <use xlink:href="#DejaVuSans-74" transform="translate(852.294922 0.5875)"/>
      <use xlink:href="#DejaVuSans-69" transform="translate(891.503906 0.5875)"/>
      <use xlink:href="#DejaVuSans-6f" transform="translate(919.287109 0.5875)"/>
      <use xlink:href="#DejaVuSans-6e" transform="translate(980.46875 0.5875)"/>
      <use xlink:href="#DejaVuSans-20" transform="translate(1043.847656 0.5875)"/>
      <use xlink:href="#DejaVuSans-66" transform="translate(1075.634766 0.5875)"/>
      <use xlink:href="#DejaVuSans-6f" transform="translate(1110.839844 0.5875)"/>
      <use xlink:href="#DejaVuSans-72" transform="translate(1172.021484 0.5875)"/>
      <use xlink:href="#DejaVuSans-20" transform="translate(1213.134766 0.5875)"/>
      <use xlink:href="#DejaVuSans-Oblique-68" transform="translate(1244.921875 0.5875)"/>
      <use xlink:href="#DejaVuSans-3d" transform="translate(1327.783203 0.5875)"/>
      <use xlink:href="#DejaVuSans-Oblique-3c0" transform="translate(1454.054688 45.71875) scale(0.7)"/>
      <use xlink:href="#DejaVuSans-31" transform="translate(1431.054688 -38.81875) scale(0.7)"/>
      <use xlink:href="#DejaVuSans-30" transform="translate(1475.59082 -38.81875) scale(0.7)"/>
      <path d="M 1431.054688 19.384375 
L 1431.054688 25.634375 
L 1520.126953 25.634375 
L 1520.126953 19.384375 
L 1431.054688 19.384375 
z
"/>
     </g>
    </g>
   </g>
  </g>
 </g>
 <defs>
  <clipPath id="p59046f3dd7">
   <rect x="57.6" y="41.472" width="357.12" height="266.112"/>
  </clipPath>
 </defs>
</svg>
