<?xml version="1.0" encoding="utf-8" standalone="no"?>
<!DOCTYPE svg PUBLIC "-//W3C//DTD SVG 1.1//EN"
  "http://www.w3.org/Graphics/SVG/1.1/DTD/svg11.dtd">
<svg xmlns:xlink="http://www.w3.org/1999/xlink" width="460.8pt" height="345.6pt" viewBox="0 0 460.8 345.6" xmlns="http://www.w3.org/2000/svg" version="1.1">
 <metadata>
  <rdf:RDF xmlns:dc="http://purl.org/dc/elements/1.1/" xmlns:cc="http://creativecommons.org/ns#" xmlns:rdf="http://www.w3.org/1999/02/22-rdf-syntax-ns#">
   <cc:Work>
    <dc:type rdf:resource="http://purl.org/dc/dcmitype/StillImage"/>
    <dc:date>1980-01-01T00:00:00+00:00</dc:date>
    <dc:format>image/svg+xml</dc:format>
    <dc:creator>
     <cc:Agent>
      <dc:title>Matplotlib v3.9.2, https://matplotlib.org/</dc:title>
     </cc:Agent>
    </dc:creator>
   </cc:Work>
  </rdf:RDF>
 </metadata>
 <defs>
  <style type="text/css">*{stroke-linejoin: round; stroke-linecap: butt}</style>
 </defs>
 <g id="figure_1">
  <g id="patch_1">
   <path d="M 0 345.6 
L 460.8 345.6 
L 460.8 0 
L 0 0 
z
" style="fill: #ffffff"/>
  </g>
  <g id="axes_1">
   <g id="patch_2">
    <path d="M 57.6 307.584 
L 414.72 307.584 
L 414.72 41.472 
L 57.6 41.472 
z
" style="fill: #ffffff"/>
   </g>
   <g id="matplotlib.axis_1">
    <g id="xtick_1">
     <g id="line2d_1">
      <path d="M 66.516582 307.584 
L 66.516582 41.472 
" clip-path="url(#p0dc2a3c17a)" style="fill: none; stroke: #b0b0b0; stroke-width: 0.8; stroke-linecap: square"/>
     </g>
     <g id="line2d_2">
      <defs>
       <path id="m01ff38278d" d="M 0 0 
L 0 3.5 
" style="stroke: #000000; stroke-width: 0.8"/>
      </defs>
      <g>
       <use xlink:href="#m01ff38278d" x="66.516582" y="307.584" style="stroke: #000000; stroke-width: 0.8"/>
      </g>
     </g>
     <g id="text_1">
      <!-- 3 -->
      <g transform="translate(63.335332 322.182437) scale(0.1 -0.1)">
       <defs>
        <path id="DejaVuSans-33" d="M 2597 2516 
Q 3050 2419 3304 2112 
Q 3559 1806 3559 1356 
Q 3559 666 3084 287 
Q 2609 -91 1734 -91 
Q 1441 -91 1130 -33 
Q 819 25 488 141 
L 488 750 
Q 750 597 1062 519 
Q 1375 441 1716 441 
Q 2309 441 2620 675 
Q 2931 909 2931 1356 
Q 2931 1769 2642 2001 
Q 2353 2234 1838 2234 
L 1294 2234 
L 1294 2753 
L 1863 2753 
Q 2328 2753 2575 2939 
Q 2822 3125 2822 3475 
Q 2822 3834 2567 4026 
Q 2313 4219 1838 4219 
Q 1578 4219 1281 4162 
Q 984 4106 628 3988 
L 628 4550 
Q 988 4650 1302 4700 
Q 1616 4750 1894 4750 
Q 2613 4750 3031 4423 
Q 3450 4097 3450 3541 
Q 3450 3153 3228 2886 
Q 3006 2619 2597 2516 
z
" transform="scale(0.015625)"/>
       </defs>
       <use xlink:href="#DejaVuSans-33"/>
      </g>
     </g>
    </g>
    <g id="xtick_2">
     <g id="line2d_3">
      <path d="M 118.186957 307.584 
L 118.186957 41.472 
" clip-path="url(#p0dc2a3c17a)" style="fill: none; stroke: #b0b0b0; stroke-width: 0.8; stroke-linecap: square"/>
     </g>
     <g id="line2d_4">
      <g>
       <use xlink:href="#m01ff38278d" x="118.186957" y="307.584" style="stroke: #000000; stroke-width: 0.8"/>
      </g>
     </g>
     <g id="text_2">
      <!-- 4 -->
      <g transform="translate(115.005707 322.182437) scale(0.1 -0.1)">
       <defs>
        <path id="DejaVuSans-34" d="M 2419 4116 
L 825 1625 
L 2419 1625 
L 2419 4116 
z
M 2253 4666 
L 3047 4666 
L 3047 1625 
L 3713 1625 
L 3713 1100 
L 3047 1100 
L 3047 0 
L 2419 0 
L 2419 1100 
L 313 1100 
L 313 1709 
L 2253 4666 
z
" transform="scale(0.015625)"/>
       </defs>
       <use xlink:href="#DejaVuSans-34"/>
      </g>
     </g>
    </g>
    <g id="xtick_3">
     <g id="line2d_5">
      <path d="M 169.857333 307.584 
L 169.857333 41.472 
" clip-path="url(#p0dc2a3c17a)" style="fill: none; stroke: #b0b0b0; stroke-width: 0.8; stroke-linecap: square"/>
     </g>
     <g id="line2d_6">
      <g>
       <use xlink:href="#m01ff38278d" x="169.857333" y="307.584" style="stroke: #000000; stroke-width: 0.8"/>
      </g>
     </g>
     <g id="text_3">
      <!-- 5 -->
      <g transform="translate(166.676083 322.182437) scale(0.1 -0.1)">
       <defs>
        <path id="DejaVuSans-35" d="M 691 4666 
L 3169 4666 
L 3169 4134 
L 1269 4134 
L 1269 2991 
Q 1406 3038 1543 3061 
Q 1681 3084 1819 3084 
Q 2600 3084 3056 2656 
Q 3513 2228 3513 1497 
Q 3513 744 3044 326 
Q 2575 -91 1722 -91 
Q 1428 -91 1123 -41 
Q 819 9 494 109 
L 494 744 
Q 775 591 1075 516 
Q 1375 441 1709 441 
Q 2250 441 2565 725 
Q 2881 1009 2881 1497 
Q 2881 1984 2565 2268 
Q 2250 2553 1709 2553 
Q 1456 2553 1204 2497 
Q 953 2441 691 2322 
L 691 4666 
z
" transform="scale(0.015625)"/>
       </defs>
       <use xlink:href="#DejaVuSans-35"/>
      </g>
     </g>
    </g>
    <g id="xtick_4">
     <g id="line2d_7">
      <path d="M 221.527709 307.584 
L 221.527709 41.472 
" clip-path="url(#p0dc2a3c17a)" style="fill: none; stroke: #b0b0b0; stroke-width: 0.8; stroke-linecap: square"/>
     </g>
     <g id="line2d_8">
      <g>
       <use xlink:href="#m01ff38278d" x="221.527709" y="307.584" style="stroke: #000000; stroke-width: 0.8"/>
      </g>
     </g>
     <g id="text_4">
      <!-- 6 -->
      <g transform="translate(218.346459 322.182437) scale(0.1 -0.1)">
       <defs>
        <path id="DejaVuSans-36" d="M 2113 2584 
Q 1688 2584 1439 2293 
Q 1191 2003 1191 1497 
Q 1191 994 1439 701 
Q 1688 409 2113 409 
Q 2538 409 2786 701 
Q 3034 994 3034 1497 
Q 3034 2003 2786 2293 
Q 2538 2584 2113 2584 
z
M 3366 4563 
L 3366 3988 
Q 3128 4100 2886 4159 
Q 2644 4219 2406 4219 
Q 1781 4219 1451 3797 
Q 1122 3375 1075 2522 
Q 1259 2794 1537 2939 
Q 1816 3084 2150 3084 
Q 2853 3084 3261 2657 
Q 3669 2231 3669 1497 
Q 3669 778 3244 343 
Q 2819 -91 2113 -91 
Q 1303 -91 875 529 
Q 447 1150 447 2328 
Q 447 3434 972 4092 
Q 1497 4750 2381 4750 
Q 2619 4750 2861 4703 
Q 3103 4656 3366 4563 
z
" transform="scale(0.015625)"/>
       </defs>
       <use xlink:href="#DejaVuSans-36"/>
      </g>
     </g>
    </g>
    <g id="xtick_5">
     <g id="line2d_9">
      <path d="M 273.198084 307.584 
L 273.198084 41.472 
" clip-path="url(#p0dc2a3c17a)" style="fill: none; stroke: #b0b0b0; stroke-width: 0.8; stroke-linecap: square"/>
     </g>
     <g id="line2d_10">
      <g>
       <use xlink:href="#m01ff38278d" x="273.198084" y="307.584" style="stroke: #000000; stroke-width: 0.8"/>
      </g>
     </g>
     <g id="text_5">
      <!-- 7 -->
      <g transform="translate(270.016834 322.182437) scale(0.1 -0.1)">
       <defs>
        <path id="DejaVuSans-37" d="M 525 4666 
L 3525 4666 
L 3525 4397 
L 1831 0 
L 1172 0 
L 2766 4134 
L 525 4134 
L 525 4666 
z
" transform="scale(0.015625)"/>
       </defs>
       <use xlink:href="#DejaVuSans-37"/>
      </g>
     </g>
    </g>
    <g id="xtick_6">
     <g id="line2d_11">
      <path d="M 324.86846 307.584 
L 324.86846 41.472 
" clip-path="url(#p0dc2a3c17a)" style="fill: none; stroke: #b0b0b0; stroke-width: 0.8; stroke-linecap: square"/>
     </g>
     <g id="line2d_12">
      <g>
       <use xlink:href="#m01ff38278d" x="324.86846" y="307.584" style="stroke: #000000; stroke-width: 0.8"/>
      </g>
     </g>
     <g id="text_6">
      <!-- 8 -->
      <g transform="translate(321.68721 322.182437) scale(0.1 -0.1)">
       <defs>
        <path id="DejaVuSans-38" d="M 2034 2216 
Q 1584 2216 1326 1975 
Q 1069 1734 1069 1313 
Q 1069 891 1326 650 
Q 1584 409 2034 409 
Q 2484 409 2743 651 
Q 3003 894 3003 1313 
Q 3003 1734 2745 1975 
Q 2488 2216 2034 2216 
z
M 1403 2484 
Q 997 2584 770 2862 
Q 544 3141 544 3541 
Q 544 4100 942 4425 
Q 1341 4750 2034 4750 
Q 2731 4750 3128 4425 
Q 3525 4100 3525 3541 
Q 3525 3141 3298 2862 
Q 3072 2584 2669 2484 
Q 3125 2378 3379 2068 
Q 3634 1759 3634 1313 
Q 3634 634 3220 271 
Q 2806 -91 2034 -91 
Q 1263 -91 848 271 
Q 434 634 434 1313 
Q 434 1759 690 2068 
Q 947 2378 1403 2484 
z
M 1172 3481 
Q 1172 3119 1398 2916 
Q 1625 2713 2034 2713 
Q 2441 2713 2670 2916 
Q 2900 3119 2900 3481 
Q 2900 3844 2670 4047 
Q 2441 4250 2034 4250 
Q 1625 4250 1398 4047 
Q 1172 3844 1172 3481 
z
" transform="scale(0.015625)"/>
       </defs>
       <use xlink:href="#DejaVuSans-38"/>
      </g>
     </g>
    </g>
    <g id="xtick_7">
     <g id="line2d_13">
      <path d="M 376.538836 307.584 
L 376.538836 41.472 
" clip-path="url(#p0dc2a3c17a)" style="fill: none; stroke: #b0b0b0; stroke-width: 0.8; stroke-linecap: square"/>
     </g>
     <g id="line2d_14">
      <g>
       <use xlink:href="#m01ff38278d" x="376.538836" y="307.584" style="stroke: #000000; stroke-width: 0.8"/>
      </g>
     </g>
     <g id="text_7">
      <!-- 9 -->
      <g transform="translate(373.357586 322.182437) scale(0.1 -0.1)">
       <defs>
        <path id="DejaVuSans-39" d="M 703 97 
L 703 672 
Q 941 559 1184 500 
Q 1428 441 1663 441 
Q 2288 441 2617 861 
Q 2947 1281 2994 2138 
Q 2813 1869 2534 1725 
Q 2256 1581 1919 1581 
Q 1219 1581 811 2004 
Q 403 2428 403 3163 
Q 403 3881 828 4315 
Q 1253 4750 1959 4750 
Q 2769 4750 3195 4129 
Q 3622 3509 3622 2328 
Q 3622 1225 3098 567 
Q 2575 -91 1691 -91 
Q 1453 -91 1209 -44 
Q 966 3 703 97 
z
M 1959 2075 
Q 2384 2075 2632 2365 
Q 2881 2656 2881 3163 
Q 2881 3666 2632 3958 
Q 2384 4250 1959 4250 
Q 1534 4250 1286 3958 
Q 1038 3666 1038 3163 
Q 1038 2656 1286 2365 
Q 1534 2075 1959 2075 
z
" transform="scale(0.015625)"/>
       </defs>
       <use xlink:href="#DejaVuSans-39"/>
      </g>
     </g>
    </g>
   </g>
   <g id="matplotlib.axis_2">
    <g id="ytick_1">
     <g id="line2d_15">
      <path d="M 57.6 286.380863 
L 414.72 286.380863 
" clip-path="url(#p0dc2a3c17a)" style="fill: none; stroke: #b0b0b0; stroke-width: 0.8; stroke-linecap: square"/>
     </g>
     <g id="line2d_16">
      <defs>
       <path id="mb4354694d8" d="M 0 0 
L -3.5 0 
" style="stroke: #000000; stroke-width: 0.8"/>
      </defs>
      <g>
       <use xlink:href="#mb4354694d8" x="57.6" y="286.380863" style="stroke: #000000; stroke-width: 0.8"/>
      </g>
     </g>
     <g id="text_8">
      <!-- −0.3 -->
      <g transform="translate(26.317187 290.180082) scale(0.1 -0.1)">
       <defs>
        <path id="DejaVuSans-2212" d="M 678 2272 
L 4684 2272 
L 4684 1741 
L 678 1741 
L 678 2272 
z
" transform="scale(0.015625)"/>
        <path id="DejaVuSans-30" d="M 2034 4250 
Q 1547 4250 1301 3770 
Q 1056 3291 1056 2328 
Q 1056 1369 1301 889 
Q 1547 409 2034 409 
Q 2525 409 2770 889 
Q 3016 1369 3016 2328 
Q 3016 3291 2770 3770 
Q 2525 4250 2034 4250 
z
M 2034 4750 
Q 2819 4750 3233 4129 
Q 3647 3509 3647 2328 
Q 3647 1150 3233 529 
Q 2819 -91 2034 -91 
Q 1250 -91 836 529 
Q 422 1150 422 2328 
Q 422 3509 836 4129 
Q 1250 4750 2034 4750 
z
" transform="scale(0.015625)"/>
        <path id="DejaVuSans-2e" d="M 684 794 
L 1344 794 
L 1344 0 
L 684 0 
L 684 794 
z
" transform="scale(0.015625)"/>
       </defs>
       <use xlink:href="#DejaVuSans-2212"/>
       <use xlink:href="#DejaVuSans-30" x="83.789062"/>
       <use xlink:href="#DejaVuSans-2e" x="147.412109"/>
       <use xlink:href="#DejaVuSans-33" x="179.199219"/>
      </g>
     </g>
    </g>
    <g id="ytick_2">
     <g id="line2d_17">
      <path d="M 57.6 236.64196 
L 414.72 236.64196 
" clip-path="url(#p0dc2a3c17a)" style="fill: none; stroke: #b0b0b0; stroke-width: 0.8; stroke-linecap: square"/>
     </g>
     <g id="line2d_18">
      <g>
       <use xlink:href="#mb4354694d8" x="57.6" y="236.64196" style="stroke: #000000; stroke-width: 0.8"/>
      </g>
     </g>
     <g id="text_9">
      <!-- −0.2 -->
      <g transform="translate(26.317187 240.441179) scale(0.1 -0.1)">
       <defs>
        <path id="DejaVuSans-32" d="M 1228 531 
L 3431 531 
L 3431 0 
L 469 0 
L 469 531 
Q 828 903 1448 1529 
Q 2069 2156 2228 2338 
Q 2531 2678 2651 2914 
Q 2772 3150 2772 3378 
Q 2772 3750 2511 3984 
Q 2250 4219 1831 4219 
Q 1534 4219 1204 4116 
Q 875 4013 500 3803 
L 500 4441 
Q 881 4594 1212 4672 
Q 1544 4750 1819 4750 
Q 2544 4750 2975 4387 
Q 3406 4025 3406 3419 
Q 3406 3131 3298 2873 
Q 3191 2616 2906 2266 
Q 2828 2175 2409 1742 
Q 1991 1309 1228 531 
z
" transform="scale(0.015625)"/>
       </defs>
       <use xlink:href="#DejaVuSans-2212"/>
       <use xlink:href="#DejaVuSans-30" x="83.789062"/>
       <use xlink:href="#DejaVuSans-2e" x="147.412109"/>
       <use xlink:href="#DejaVuSans-32" x="179.199219"/>
      </g>
     </g>
    </g>
    <g id="ytick_3">
     <g id="line2d_19">
      <path d="M 57.6 186.903057 
L 414.72 186.903057 
" clip-path="url(#p0dc2a3c17a)" style="fill: none; stroke: #b0b0b0; stroke-width: 0.8; stroke-linecap: square"/>
     </g>
     <g id="line2d_20">
      <g>
       <use xlink:href="#mb4354694d8" x="57.6" y="186.903057" style="stroke: #000000; stroke-width: 0.8"/>
      </g>
     </g>
     <g id="text_10">
      <!-- −0.1 -->
      <g transform="translate(26.317187 190.702276) scale(0.1 -0.1)">
       <defs>
        <path id="DejaVuSans-31" d="M 794 531 
L 1825 531 
L 1825 4091 
L 703 3866 
L 703 4441 
L 1819 4666 
L 2450 4666 
L 2450 531 
L 3481 531 
L 3481 0 
L 794 0 
L 794 531 
z
" transform="scale(0.015625)"/>
       </defs>
       <use xlink:href="#DejaVuSans-2212"/>
       <use xlink:href="#DejaVuSans-30" x="83.789062"/>
       <use xlink:href="#DejaVuSans-2e" x="147.412109"/>
       <use xlink:href="#DejaVuSans-31" x="179.199219"/>
      </g>
     </g>
    </g>
    <g id="ytick_4">
     <g id="line2d_21">
      <path d="M 57.6 137.164154 
L 414.72 137.164154 
" clip-path="url(#p0dc2a3c17a)" style="fill: none; stroke: #b0b0b0; stroke-width: 0.8; stroke-linecap: square"/>
     </g>
     <g id="line2d_22">
      <g>
       <use xlink:href="#mb4354694d8" x="57.6" y="137.164154" style="stroke: #000000; stroke-width: 0.8"/>
      </g>
     </g>
     <g id="text_11">
      <!-- 0.0 -->
      <g transform="translate(34.696875 140.963373) scale(0.1 -0.1)">
       <use xlink:href="#DejaVuSans-30"/>
       <use xlink:href="#DejaVuSans-2e" x="63.623047"/>
       <use xlink:href="#DejaVuSans-30" x="95.410156"/>
      </g>
     </g>
    </g>
    <g id="ytick_5">
     <g id="line2d_23">
      <path d="M 57.6 87.425251 
L 414.72 87.425251 
" clip-path="url(#p0dc2a3c17a)" style="fill: none; stroke: #b0b0b0; stroke-width: 0.8; stroke-linecap: square"/>
     </g>
     <g id="line2d_24">
      <g>
       <use xlink:href="#mb4354694d8" x="57.6" y="87.425251" style="stroke: #000000; stroke-width: 0.8"/>
      </g>
     </g>
     <g id="text_12">
      <!-- 0.1 -->
      <g transform="translate(34.696875 91.22447) scale(0.1 -0.1)">
       <use xlink:href="#DejaVuSans-30"/>
       <use xlink:href="#DejaVuSans-2e" x="63.623047"/>
       <use xlink:href="#DejaVuSans-31" x="95.410156"/>
      </g>
     </g>
    </g>
   </g>
   <g id="line2d_25">
    <path d="M 73.832727 295.488 
L 78.382441 286.381421 
L 83.582113 275.455221 
L 89.431744 262.60303 
L 95.931335 247.771954 
L 104.380803 227.899558 
L 129.729206 167.869517 
L 136.553776 152.497738 
L 142.403407 139.851595 
L 147.603079 129.107028 
L 152.477772 119.51897 
L 157.027486 111.038309 
L 161.252219 103.601227 
L 165.476953 96.613245 
L 169.376708 90.582261 
L 173.276462 84.97128 
L 176.851237 80.20946 
L 180.426011 75.82274 
L 183.675807 72.167297 
L 186.925602 68.833813 
L 190.175397 65.826344 
L 193.100213 63.400872 
L 196.025029 61.243381 
L 198.949844 59.354646 
L 201.87466 57.734756 
L 204.799476 56.383125 
L 207.724292 55.298498 
L 210.324128 54.557001 
L 212.923964 54.02319 
L 215.5238 53.694891 
L 218.123636 53.569541 
L 220.723473 53.644196 
L 223.648288 53.963108 
L 226.573104 54.525676 
L 229.49792 55.32607 
L 232.422735 56.357924 
L 235.347551 57.614352 
L 238.597346 59.264779 
L 241.847142 61.172532 
L 245.096937 63.326134 
L 248.671712 65.964587 
L 252.246486 68.868933 
L 256.146241 72.319744 
L 260.370975 76.363659 
L 264.920688 81.038683 
L 269.795381 86.370746 
L 275.320033 92.75428 
L 281.819623 100.627881 
L 290.269091 111.253908 
L 312.367699 139.250256 
L 319.192269 147.427835 
L 325.0419 154.091677 
L 330.241572 159.687251 
L 335.116265 164.611013 
L 339.665979 168.894809 
L 343.890713 172.580951 
L 348.115446 175.968098 
L 352.015201 178.815854 
L 355.914955 181.385029 
L 359.48973 183.487701 
L 363.064505 185.343047 
L 366.639279 186.94653 
L 370.214054 188.29478 
L 373.788829 189.38559 
L 377.038624 190.152935 
L 380.288419 190.706677 
L 383.538215 191.047628 
L 386.78801 191.177365 
L 390.037805 191.09821 
L 393.2876 190.813221 
L 396.862375 190.266513 
L 398.487273 189.93877 
L 398.487273 189.93877 
" clip-path="url(#p0dc2a3c17a)" style="fill: none; stroke: #808080; stroke-width: 1.5; stroke-linecap: square"/>
   </g>
   <g id="line2d_26">
    <path d="M 73.832727 235.363729 
L 85.207011 209.119816 
L 98.856151 177.737074 
L 106.33068 161.098804 
L 112.505291 147.855544 
L 118.029943 136.495119 
L 123.229615 126.298266 
L 128.104308 117.230143 
L 132.654021 109.237043 
L 136.878755 102.251997 
L 140.778509 96.199616 
L 144.678264 90.544478 
L 148.253038 85.722589 
L 151.827813 81.257507 
L 155.402588 77.157992 
L 158.652383 73.754552 
L 161.902179 70.663694 
L 165.151974 67.888817 
L 168.07679 65.663586 
L 171.001605 63.697284 
L 173.926421 61.990291 
L 176.851237 60.542329 
L 179.776052 59.352473 
L 182.700868 58.419159 
L 185.625684 57.740195 
L 188.5505 57.31277 
L 191.475315 57.13347 
L 194.400131 57.198289 
L 197.324947 57.502652 
L 200.249762 58.041425 
L 203.174578 58.808938 
L 206.099394 59.799005 
L 209.349189 61.151957 
L 212.598984 62.761557 
L 215.84878 64.617274 
L 219.423554 66.92948 
L 222.998329 69.510263 
L 226.898084 72.612569 
L 230.797838 75.992462 
L 235.022572 79.94021 
L 239.572285 84.490167 
L 244.771957 90.019679 
L 250.621589 96.588336 
L 257.446159 104.604707 
L 266.870565 116.051385 
L 283.7695 136.606264 
L 290.91905 144.918201 
L 297.093661 151.754644 
L 302.618313 157.532789 
L 307.493006 162.321393 
L 312.042719 166.498141 
L 316.592432 170.367462 
L 320.817166 173.666154 
L 324.716921 176.446007 
L 328.616675 178.960628 
L 332.516429 181.201141 
L 336.091204 183.007873 
L 339.665979 184.573644 
L 343.240753 185.895104 
L 346.815528 186.970021 
L 350.390303 187.797275 
L 353.965078 188.376851 
L 357.539853 188.709822 
L 361.114627 188.798332 
L 364.689402 188.645573 
L 368.264177 188.255759 
L 371.838952 187.634091 
L 375.413726 186.786725 
L 378.988501 185.720735 
L 382.888256 184.317855 
L 386.78801 182.675704 
L 391.012744 180.64126 
L 395.237477 178.358014 
L 398.487273 176.443984 
L 398.487273 176.443984 
" clip-path="url(#p0dc2a3c17a)" style="fill: none; stroke-dasharray: 5.55,2.4; stroke-dashoffset: 0; stroke: #1f77b4; stroke-width: 1.5"/>
   </g>
   <g id="line2d_27">
    <path d="M 73.832727 251.197388 
L 81.632236 233.317233 
L 94.956396 202.083682 
L 106.33068 175.661664 
L 113.805209 158.861427 
L 119.97982 145.512097 
L 125.504472 134.078641 
L 130.704144 123.832196 
L 135.578837 114.734521 
L 140.12855 106.728592 
L 144.353284 99.744278 
L 148.253038 93.703237 
L 152.152793 88.069497 
L 155.727568 83.275874 
L 159.302342 78.84713 
L 162.877117 74.791799 
L 166.126912 71.435121 
L 169.376708 68.397089 
L 172.626503 65.680879 
L 175.551319 63.513239 
L 178.476134 61.608876 
L 181.40095 59.967971 
L 184.325766 58.59004 
L 187.250581 57.473945 
L 190.175397 56.617901 
L 193.100213 56.019485 
L 195.700049 55.701392 
L 198.624865 55.580805 
L 201.549681 55.707394 
L 204.474496 56.076397 
L 207.399312 56.682486 
L 210.324128 57.519794 
L 213.248943 58.581929 
L 216.498739 60.017371 
L 219.748534 61.711721 
L 222.998329 63.654156 
L 226.573104 66.063665 
L 230.147879 68.743368 
L 234.047633 71.95496 
L 238.272367 75.74773 
L 242.497101 79.837009 
L 247.371794 84.882789 
L 252.571466 90.59799 
L 258.421097 97.363174 
L 265.570647 105.988523 
L 276.294971 119.323111 
L 289.619132 135.822111 
L 296.768681 144.325691 
L 302.943292 151.331481 
L 308.467944 157.262237 
L 313.342637 162.185042 
L 317.892351 166.485677 
L 322.442064 170.476704 
L 326.666798 173.885746 
L 330.566552 176.764626 
L 334.466306 179.375069 
L 338.366061 181.707748 
L 341.940835 183.595392 
L 345.51561 185.238338 
L 349.090385 186.632947 
L 352.66516 187.776718 
L 356.239934 188.668287 
L 359.48973 189.259726 
L 362.739525 189.643138 
L 365.98932 189.819892 
L 369.239115 189.792088 
L 372.81389 189.528627 
L 376.388665 189.025815 
L 379.96344 188.289375 
L 383.538215 187.325991 
L 387.112989 186.143259 
L 391.012744 184.61281 
L 394.912498 182.843515 
L 398.487273 181.02309 
L 398.487273 181.02309 
" clip-path="url(#p0dc2a3c17a)" style="fill: none; stroke-dasharray: 5.55,2.4; stroke-dashoffset: 0; stroke: #ff7f0e; stroke-width: 1.5"/>
   </g>
   <g id="line2d_28">
    <path d="M 73.832727 260.589372 
L 80.657297 245.142312 
L 89.431744 224.6829 
L 112.180311 171.336989 
L 119.329861 155.30218 
L 125.504472 142.009993 
L 131.029124 130.655736 
L 135.903817 121.124801 
L 140.45353 112.687229 
L 145.003243 104.729432 
L 149.227977 97.798748 
L 153.127731 91.8145 
L 157.027486 86.244206 
L 160.60226 81.514274 
L 164.177035 77.154205 
L 167.42683 73.51841 
L 170.676626 70.200192 
L 173.926421 67.203607 
L 177.176216 64.531671 
L 180.101032 62.406159 
L 183.025848 60.545953 
L 185.950663 58.951102 
L 188.875479 57.620992 
L 191.800295 56.554346 
L 194.725111 55.749238 
L 197.324947 55.25109 
L 199.924783 54.955355 
L 202.524619 54.859432 
L 205.449435 54.986639 
L 208.374251 55.358172 
L 211.299066 55.968678 
L 214.223882 56.812259 
L 217.148698 57.882487 
L 220.073514 59.172432 
L 223.323309 60.854368 
L 226.573104 62.787572 
L 230.147879 65.190593 
L 233.722654 67.867618 
L 237.622408 71.080579 
L 241.522162 74.576448 
L 245.746896 78.655125 
L 250.296609 83.351325 
L 255.496282 89.053337 
L 261.345913 95.821024 
L 268.170483 104.073362 
L 277.919869 116.256099 
L 293.843866 136.167925 
L 300.993415 144.731092 
L 307.168026 151.781273 
L 312.692678 157.745859 
L 317.567371 162.693716 
L 322.117084 167.013577 
L 326.666798 171.019756 
L 330.891532 174.439195 
L 334.791286 177.32453 
L 338.69104 179.938424 
L 342.590794 182.271579 
L 346.165569 184.15708 
L 349.740344 185.795462 
L 353.315119 187.183138 
L 356.889894 188.317669 
L 360.139689 189.128278 
L 363.389484 189.728432 
L 366.639279 190.11874 
L 369.889075 190.300563 
L 373.13887 190.276006 
L 376.388665 190.047899 
L 379.96344 189.566124 
L 383.538215 188.848013 
L 387.112989 187.900202 
L 390.687764 186.73025 
L 394.587518 185.210534 
L 398.487273 183.448611 
L 398.487273 183.448611 
" clip-path="url(#p0dc2a3c17a)" style="fill: none; stroke-dasharray: 5.55,2.4; stroke-dashoffset: 0; stroke: #2ca02c; stroke-width: 1.5"/>
   </g>
   <g id="line2d_29">
    <path d="M 73.832727 278.739013 
L 79.357379 266.798399 
L 85.53199 252.914138 
L 93.331499 234.783768 
L 106.0057 204.636291 
L 117.704963 177.003646 
L 125.179492 159.902034 
L 131.354103 146.298994 
L 136.878755 134.637425 
L 142.078428 124.177232 
L 146.95312 114.881523 
L 151.502834 106.69403 
L 155.727568 99.544893 
L 159.627322 93.355657 
L 163.527076 87.578149 
L 167.101851 82.65713 
L 170.676626 78.105635 
L 174.2514 73.932609 
L 177.501196 70.473647 
L 180.750991 67.338101 
L 184.000786 64.529399 
L 186.925602 62.283007 
L 189.850418 60.304308 
L 192.775233 58.593629 
L 195.700049 57.15062 
L 198.624865 55.974259 
L 201.549681 55.062867 
L 204.149517 54.473313 
L 206.749353 54.089222 
L 209.349189 53.908143 
L 211.949025 53.927242 
L 214.873841 54.183996 
L 217.798657 54.684916 
L 220.723473 55.424325 
L 223.648288 56.396001 
L 226.573104 57.593204 
L 229.822899 59.179111 
L 233.072695 61.023879 
L 236.32249 63.116209 
L 239.897265 65.689446 
L 243.472039 68.531073 
L 247.371794 71.916551 
L 251.596527 75.893606 
L 256.146241 80.501504 
L 261.020934 85.767619 
L 266.545586 92.084309 
L 272.720197 99.492406 
L 280.519705 109.214047 
L 306.518067 141.922979 
L 313.017658 149.567956 
L 318.54231 155.735101 
L 323.741982 161.207023 
L 328.616675 166.004494 
L 333.166388 170.162459 
L 337.391122 173.725795 
L 341.290876 176.745665 
L 345.190631 179.49499 
L 349.090385 181.963754 
L 352.66516 183.973114 
L 356.239934 185.734373 
L 359.814709 187.243418 
L 363.389484 188.497296 
L 366.639279 189.414229 
L 369.889075 190.118265 
L 373.13887 190.609661 
L 376.388665 190.889444 
L 379.63846 190.9594 
L 382.888256 190.822053 
L 386.46303 190.435436 
L 390.037805 189.807238 
L 393.61258 188.943763 
L 397.187355 187.852267 
L 398.487273 187.400394 
L 398.487273 187.400394 
" clip-path="url(#p0dc2a3c17a)" style="fill: none; stroke-dasharray: 5.55,2.4; stroke-dashoffset: 0; stroke: #d62728; stroke-width: 1.5"/>
   </g>
   <g id="patch_3">
    <path d="M 57.6 307.584 
L 57.6 41.472 
" style="fill: none; stroke: #000000; stroke-width: 0.8; stroke-linejoin: miter; stroke-linecap: square"/>
   </g>
   <g id="patch_4">
    <path d="M 414.72 307.584 
L 414.72 41.472 
" style="fill: none; stroke: #000000; stroke-width: 0.8; stroke-linejoin: miter; stroke-linecap: square"/>
   </g>
   <g id="patch_5">
    <path d="M 57.6 307.584 
L 414.72 307.584 
" style="fill: none; stroke: #000000; stroke-width: 0.8; stroke-linejoin: miter; stroke-linecap: square"/>
   </g>
   <g id="patch_6">
    <path d="M 57.6 41.472 
L 414.72 41.472 
" style="fill: none; stroke: #000000; stroke-width: 0.8; stroke-linejoin: miter; stroke-linecap: square"/>
   </g>
   <g id="legend_1">
    <g id="patch_7">
     <path d="M 222.42 302.584 
L 407.72 302.584 
Q 409.72 302.584 409.72 300.584 
L 409.72 217.205875 
Q 409.72 215.205875 407.72 215.205875 
L 222.42 215.205875 
Q 220.42 215.205875 220.42 217.205875 
L 220.42 300.584 
Q 220.42 302.584 222.42 302.584 
z
" style="fill: #ffffff; opacity: 0.8; stroke: #cccccc; stroke-linejoin: miter"/>
    </g>
    <g id="line2d_30">
     <path d="M 224.42 223.304312 
L 234.42 223.304312 
L 244.42 223.304312 
" style="fill: none; stroke: #808080; stroke-width: 1.5; stroke-linecap: square"/>
    </g>
    <g id="text_13">
     <!-- $f'(x)$ -->
     <g transform="translate(252.42 226.804312) scale(0.1 -0.1)">
      <defs>
       <path id="DejaVuSans-Oblique-66" d="M 3059 4863 
L 2969 4384 
L 2419 4384 
Q 2106 4384 1964 4261 
Q 1822 4138 1753 3809 
L 1691 3500 
L 2638 3500 
L 2553 3053 
L 1606 3053 
L 1013 0 
L 434 0 
L 1031 3053 
L 481 3053 
L 563 3500 
L 1113 3500 
L 1159 3744 
Q 1278 4363 1576 4613 
Q 1875 4863 2516 4863 
L 3059 4863 
z
" transform="scale(0.015625)"/>
       <path id="Cmsy10-30" d="M 225 347 
Q 184 359 184 409 
L 966 3316 
Q 1003 3434 1093 3506 
Q 1184 3578 1300 3578 
Q 1450 3578 1564 3479 
Q 1678 3381 1678 3231 
Q 1678 3166 1644 3084 
L 488 319 
Q 466 275 428 275 
Q 394 275 320 306 
Q 247 338 225 347 
z
" transform="scale(0.015625)"/>
       <path id="DejaVuSans-28" d="M 1984 4856 
Q 1566 4138 1362 3434 
Q 1159 2731 1159 2009 
Q 1159 1288 1364 580 
Q 1569 -128 1984 -844 
L 1484 -844 
Q 1016 -109 783 600 
Q 550 1309 550 2009 
Q 550 2706 781 3412 
Q 1013 4119 1484 4856 
L 1984 4856 
z
" transform="scale(0.015625)"/>
       <path id="DejaVuSans-Oblique-78" d="M 3841 3500 
L 2234 1784 
L 3219 0 
L 2559 0 
L 1819 1388 
L 531 0 
L -166 0 
L 1556 1844 
L 641 3500 
L 1300 3500 
L 1972 2234 
L 3144 3500 
L 3841 3500 
z
" transform="scale(0.015625)"/>
       <path id="DejaVuSans-29" d="M 513 4856 
L 1013 4856 
Q 1481 4119 1714 3412 
Q 1947 2706 1947 2009 
Q 1947 1309 1714 600 
Q 1481 -109 1013 -844 
L 513 -844 
Q 928 -128 1133 580 
Q 1338 1288 1338 2009 
Q 1338 2731 1133 3434 
Q 928 4138 513 4856 
z
" transform="scale(0.015625)"/>
      </defs>
      <use xlink:href="#DejaVuSans-Oblique-66" transform="translate(0 0.584375)"/>
      <use xlink:href="#Cmsy10-30" transform="translate(42.652786 38.865625) scale(0.7)"/>
      <use xlink:href="#DejaVuSans-28" transform="translate(64.630326 0.584375)"/>
      <use xlink:href="#DejaVuSans-Oblique-78" transform="translate(103.643997 0.584375)"/>
      <use xlink:href="#DejaVuSans-29" transform="translate(162.823685 0.584375)"/>
     </g>
    </g>
    <g id="line2d_31">
     <path d="M 224.42 238.784 
L 234.42 238.784 
L 244.42 238.784 
" style="fill: none; stroke-dasharray: 5.55,2.4; stroke-dashoffset: 0; stroke: #1f77b4; stroke-width: 1.5"/>
    </g>
    <g id="text_14">
     <!-- Finite Approximation for $h = \frac{\pi}{3}$ -->
     <g transform="translate(252.42 242.284) scale(0.1 -0.1)">
      <defs>
       <path id="DejaVuSans-46" d="M 628 4666 
L 3309 4666 
L 3309 4134 
L 1259 4134 
L 1259 2759 
L 3109 2759 
L 3109 2228 
L 1259 2228 
L 1259 0 
L 628 0 
L 628 4666 
z
" transform="scale(0.015625)"/>
       <path id="DejaVuSans-69" d="M 603 3500 
L 1178 3500 
L 1178 0 
L 603 0 
L 603 3500 
z
M 603 4863 
L 1178 4863 
L 1178 4134 
L 603 4134 
L 603 4863 
z
" transform="scale(0.015625)"/>
       <path id="DejaVuSans-6e" d="M 3513 2113 
L 3513 0 
L 2938 0 
L 2938 2094 
Q 2938 2591 2744 2837 
Q 2550 3084 2163 3084 
Q 1697 3084 1428 2787 
Q 1159 2491 1159 1978 
L 1159 0 
L 581 0 
L 581 3500 
L 1159 3500 
L 1159 2956 
Q 1366 3272 1645 3428 
Q 1925 3584 2291 3584 
Q 2894 3584 3203 3211 
Q 3513 2838 3513 2113 
z
" transform="scale(0.015625)"/>
       <path id="DejaVuSans-74" d="M 1172 4494 
L 1172 3500 
L 2356 3500 
L 2356 3053 
L 1172 3053 
L 1172 1153 
Q 1172 725 1289 603 
Q 1406 481 1766 481 
L 2356 481 
L 2356 0 
L 1766 0 
Q 1100 0 847 248 
Q 594 497 594 1153 
L 594 3053 
L 172 3053 
L 172 3500 
L 594 3500 
L 594 4494 
L 1172 4494 
z
" transform="scale(0.015625)"/>
       <path id="DejaVuSans-65" d="M 3597 1894 
L 3597 1613 
L 953 1613 
Q 991 1019 1311 708 
Q 1631 397 2203 397 
Q 2534 397 2845 478 
Q 3156 559 3463 722 
L 3463 178 
Q 3153 47 2828 -22 
Q 2503 -91 2169 -91 
Q 1331 -91 842 396 
Q 353 884 353 1716 
Q 353 2575 817 3079 
Q 1281 3584 2069 3584 
Q 2775 3584 3186 3129 
Q 3597 2675 3597 1894 
z
M 3022 2063 
Q 3016 2534 2758 2815 
Q 2500 3097 2075 3097 
Q 1594 3097 1305 2825 
Q 1016 2553 972 2059 
L 3022 2063 
z
" transform="scale(0.015625)"/>
       <path id="DejaVuSans-20" transform="scale(0.015625)"/>
       <path id="DejaVuSans-41" d="M 2188 4044 
L 1331 1722 
L 3047 1722 
L 2188 4044 
z
M 1831 4666 
L 2547 4666 
L 4325 0 
L 3669 0 
L 3244 1197 
L 1141 1197 
L 716 0 
L 50 0 
L 1831 4666 
z
" transform="scale(0.015625)"/>
       <path id="DejaVuSans-70" d="M 1159 525 
L 1159 -1331 
L 581 -1331 
L 581 3500 
L 1159 3500 
L 1159 2969 
Q 1341 3281 1617 3432 
Q 1894 3584 2278 3584 
Q 2916 3584 3314 3078 
Q 3713 2572 3713 1747 
Q 3713 922 3314 415 
Q 2916 -91 2278 -91 
Q 1894 -91 1617 61 
Q 1341 213 1159 525 
z
M 3116 1747 
Q 3116 2381 2855 2742 
Q 2594 3103 2138 3103 
Q 1681 3103 1420 2742 
Q 1159 2381 1159 1747 
Q 1159 1113 1420 752 
Q 1681 391 2138 391 
Q 2594 391 2855 752 
Q 3116 1113 3116 1747 
z
" transform="scale(0.015625)"/>
       <path id="DejaVuSans-72" d="M 2631 2963 
Q 2534 3019 2420 3045 
Q 2306 3072 2169 3072 
Q 1681 3072 1420 2755 
Q 1159 2438 1159 1844 
L 1159 0 
L 581 0 
L 581 3500 
L 1159 3500 
L 1159 2956 
Q 1341 3275 1631 3429 
Q 1922 3584 2338 3584 
Q 2397 3584 2469 3576 
Q 2541 3569 2628 3553 
L 2631 2963 
z
" transform="scale(0.015625)"/>
       <path id="DejaVuSans-6f" d="M 1959 3097 
Q 1497 3097 1228 2736 
Q 959 2375 959 1747 
Q 959 1119 1226 758 
Q 1494 397 1959 397 
Q 2419 397 2687 759 
Q 2956 1122 2956 1747 
Q 2956 2369 2687 2733 
Q 2419 3097 1959 3097 
z
M 1959 3584 
Q 2709 3584 3137 3096 
Q 3566 2609 3566 1747 
Q 3566 888 3137 398 
Q 2709 -91 1959 -91 
Q 1206 -91 779 398 
Q 353 888 353 1747 
Q 353 2609 779 3096 
Q 1206 3584 1959 3584 
z
" transform="scale(0.015625)"/>
       <path id="DejaVuSans-78" d="M 3513 3500 
L 2247 1797 
L 3578 0 
L 2900 0 
L 1881 1375 
L 863 0 
L 184 0 
L 1544 1831 
L 300 3500 
L 978 3500 
L 1906 2253 
L 2834 3500 
L 3513 3500 
z
" transform="scale(0.015625)"/>
       <path id="DejaVuSans-6d" d="M 3328 2828 
Q 3544 3216 3844 3400 
Q 4144 3584 4550 3584 
Q 5097 3584 5394 3201 
Q 5691 2819 5691 2113 
L 5691 0 
L 5113 0 
L 5113 2094 
Q 5113 2597 4934 2840 
Q 4756 3084 4391 3084 
Q 3944 3084 3684 2787 
Q 3425 2491 3425 1978 
L 3425 0 
L 2847 0 
L 2847 2094 
Q 2847 2600 2669 2842 
Q 2491 3084 2119 3084 
Q 1678 3084 1418 2786 
Q 1159 2488 1159 1978 
L 1159 0 
L 581 0 
L 581 3500 
L 1159 3500 
L 1159 2956 
Q 1356 3278 1631 3431 
Q 1906 3584 2284 3584 
Q 2666 3584 2933 3390 
Q 3200 3197 3328 2828 
z
" transform="scale(0.015625)"/>
       <path id="DejaVuSans-61" d="M 2194 1759 
Q 1497 1759 1228 1600 
Q 959 1441 959 1056 
Q 959 750 1161 570 
Q 1363 391 1709 391 
Q 2188 391 2477 730 
Q 2766 1069 2766 1631 
L 2766 1759 
L 2194 1759 
z
M 3341 1997 
L 3341 0 
L 2766 0 
L 2766 531 
Q 2569 213 2275 61 
Q 1981 -91 1556 -91 
Q 1019 -91 701 211 
Q 384 513 384 1019 
Q 384 1609 779 1909 
Q 1175 2209 1959 2209 
L 2766 2209 
L 2766 2266 
Q 2766 2663 2505 2880 
Q 2244 3097 1772 3097 
Q 1472 3097 1187 3025 
Q 903 2953 641 2809 
L 641 3341 
Q 956 3463 1253 3523 
Q 1550 3584 1831 3584 
Q 2591 3584 2966 3190 
Q 3341 2797 3341 1997 
z
" transform="scale(0.015625)"/>
       <path id="DejaVuSans-66" d="M 2375 4863 
L 2375 4384 
L 1825 4384 
Q 1516 4384 1395 4259 
Q 1275 4134 1275 3809 
L 1275 3500 
L 2222 3500 
L 2222 3053 
L 1275 3053 
L 1275 0 
L 697 0 
L 697 3053 
L 147 3053 
L 147 3500 
L 697 3500 
L 697 3744 
Q 697 4328 969 4595 
Q 1241 4863 1831 4863 
L 2375 4863 
z
" transform="scale(0.015625)"/>
       <path id="DejaVuSans-Oblique-68" d="M 3566 2113 
L 3156 0 
L 2578 0 
L 2988 2091 
Q 3016 2238 3031 2350 
Q 3047 2463 3047 2528 
Q 3047 2791 2881 2937 
Q 2716 3084 2419 3084 
Q 1956 3084 1617 2771 
Q 1278 2459 1178 1941 
L 800 0 
L 225 0 
L 1172 4863 
L 1747 4863 
L 1375 2950 
Q 1594 3244 1934 3414 
Q 2275 3584 2650 3584 
Q 3113 3584 3367 3334 
Q 3622 3084 3622 2631 
Q 3622 2519 3608 2391 
Q 3594 2263 3566 2113 
z
" transform="scale(0.015625)"/>
       <path id="DejaVuSans-3d" d="M 678 2906 
L 4684 2906 
L 4684 2381 
L 678 2381 
L 678 2906 
z
M 678 1631 
L 4684 1631 
L 4684 1100 
L 678 1100 
L 678 1631 
z
" transform="scale(0.015625)"/>
       <path id="DejaVuSans-Oblique-3c0" d="M 584 3500 
L 3938 3500 
L 3825 2925 
L 3384 2925 
L 2966 775 
Q 2922 550 2981 450 
Q 3038 353 3209 353 
Q 3256 353 3325 363 
Q 3397 369 3419 372 
L 3338 -44 
Q 3222 -84 3103 -103 
Q 2981 -122 2866 -122 
Q 2491 -122 2388 81 
Q 2284 288 2391 838 
L 2797 2925 
L 1506 2925 
L 938 0 
L 350 0 
L 919 2925 
L 472 2925 
L 584 3500 
z
" transform="scale(0.015625)"/>
      </defs>
      <use xlink:href="#DejaVuSans-46" transform="translate(0 0.5875)"/>
      <use xlink:href="#DejaVuSans-69" transform="translate(57.519531 0.5875)"/>
      <use xlink:href="#DejaVuSans-6e" transform="translate(85.302734 0.5875)"/>
      <use xlink:href="#DejaVuSans-69" transform="translate(148.681641 0.5875)"/>
      <use xlink:href="#DejaVuSans-74" transform="translate(176.464844 0.5875)"/>
      <use xlink:href="#DejaVuSans-65" transform="translate(215.673828 0.5875)"/>
      <use xlink:href="#DejaVuSans-20" transform="translate(277.197266 0.5875)"/>
      <use xlink:href="#DejaVuSans-41" transform="translate(308.984375 0.5875)"/>
      <use xlink:href="#DejaVuSans-70" transform="translate(377.392578 0.5875)"/>
      <use xlink:href="#DejaVuSans-70" transform="translate(440.869141 0.5875)"/>
      <use xlink:href="#DejaVuSans-72" transform="translate(504.345703 0.5875)"/>
      <use xlink:href="#DejaVuSans-6f" transform="translate(545.458984 0.5875)"/>
      <use xlink:href="#DejaVuSans-78" transform="translate(606.640625 0.5875)"/>
      <use xlink:href="#DejaVuSans-69" transform="translate(665.820312 0.5875)"/>
      <use xlink:href="#DejaVuSans-6d" transform="translate(693.603516 0.5875)"/>
      <use xlink:href="#DejaVuSans-61" transform="translate(791.015625 0.5875)"/>
      <use xlink:href="#DejaVuSans-74" transform="translate(852.294922 0.5875)"/>
      <use xlink:href="#DejaVuSans-69" transform="translate(891.503906 0.5875)"/>
      <use xlink:href="#DejaVuSans-6f" transform="translate(919.287109 0.5875)"/>
      <use xlink:href="#DejaVuSans-6e" transform="translate(980.46875 0.5875)"/>
      <use xlink:href="#DejaVuSans-20" transform="translate(1043.847656 0.5875)"/>
      <use xlink:href="#DejaVuSans-66" transform="translate(1075.634766 0.5875)"/>
      <use xlink:href="#DejaVuSans-6f" transform="translate(1110.839844 0.5875)"/>
      <use xlink:href="#DejaVuSans-72" transform="translate(1172.021484 0.5875)"/>
      <use xlink:href="#DejaVuSans-20" transform="translate(1213.134766 0.5875)"/>
      <use xlink:href="#DejaVuSans-Oblique-68" transform="translate(1244.921875 0.5875)"/>
      <use xlink:href="#DejaVuSans-3d" transform="translate(1327.783203 0.5875)"/>
      <use xlink:href="#DejaVuSans-Oblique-3c0" transform="translate(1432.054688 45.71875) scale(0.7)"/>
      <use xlink:href="#DejaVuSans-33" transform="translate(1431.054688 -38.81875) scale(0.7)"/>
      <path d="M 1431.054688 19.384375 
L 1431.054688 25.634375 
L 1475.59082 25.634375 
L 1475.59082 19.384375 
L 1431.054688 19.384375 
z
"/>
     </g>
    </g>
    <g id="line2d_32">
     <path d="M 224.42 256.284 
L 234.42 256.284 
L 244.42 256.284 
" style="fill: none; stroke-dasharray: 5.55,2.4; stroke-dashoffset: 0; stroke: #ff7f0e; stroke-width: 1.5"/>
    </g>
    <g id="text_15">
     <!-- Finite Approximation for $h = \frac{\pi}{4}$ -->
     <g transform="translate(252.42 259.784) scale(0.1 -0.1)">
      <use xlink:href="#DejaVuSans-46" transform="translate(0 0.5875)"/>
      <use xlink:href="#DejaVuSans-69" transform="translate(57.519531 0.5875)"/>
      <use xlink:href="#DejaVuSans-6e" transform="translate(85.302734 0.5875)"/>
      <use xlink:href="#DejaVuSans-69" transform="translate(148.681641 0.5875)"/>
      <use xlink:href="#DejaVuSans-74" transform="translate(176.464844 0.5875)"/>
      <use xlink:href="#DejaVuSans-65" transform="translate(215.673828 0.5875)"/>
      <use xlink:href="#DejaVuSans-20" transform="translate(277.197266 0.5875)"/>
      <use xlink:href="#DejaVuSans-41" transform="translate(308.984375 0.5875)"/>
      <use xlink:href="#DejaVuSans-70" transform="translate(377.392578 0.5875)"/>
      <use xlink:href="#DejaVuSans-70" transform="translate(440.869141 0.5875)"/>
      <use xlink:href="#DejaVuSans-72" transform="translate(504.345703 0.5875)"/>
      <use xlink:href="#DejaVuSans-6f" transform="translate(545.458984 0.5875)"/>
      <use xlink:href="#DejaVuSans-78" transform="translate(606.640625 0.5875)"/>
      <use xlink:href="#DejaVuSans-69" transform="translate(665.820312 0.5875)"/>
      <use xlink:href="#DejaVuSans-6d" transform="translate(693.603516 0.5875)"/>
      <use xlink:href="#DejaVuSans-61" transform="translate(791.015625 0.5875)"/>
      <use xlink:href="#DejaVuSans-74" transform="translate(852.294922 0.5875)"/>
      <use xlink:href="#DejaVuSans-69" transform="translate(891.503906 0.5875)"/>
      <use xlink:href="#DejaVuSans-6f" transform="translate(919.287109 0.5875)"/>
      <use xlink:href="#DejaVuSans-6e" transform="translate(980.46875 0.5875)"/>
      <use xlink:href="#DejaVuSans-20" transform="translate(1043.847656 0.5875)"/>
      <use xlink:href="#DejaVuSans-66" transform="translate(1075.634766 0.5875)"/>
      <use xlink:href="#DejaVuSans-6f" transform="translate(1110.839844 0.5875)"/>
      <use xlink:href="#DejaVuSans-72" transform="translate(1172.021484 0.5875)"/>
      <use xlink:href="#DejaVuSans-20" transform="translate(1213.134766 0.5875)"/>
      <use xlink:href="#DejaVuSans-Oblique-68" transform="translate(1244.921875 0.5875)"/>
      <use xlink:href="#DejaVuSans-3d" transform="translate(1327.783203 0.5875)"/>
      <use xlink:href="#DejaVuSans-Oblique-3c0" transform="translate(1432.054688 45.71875) scale(0.7)"/>
      <use xlink:href="#DejaVuSans-34" transform="translate(1431.054688 -37.9) scale(0.7)"/>
      <path d="M 1431.054688 19.384375 
L 1431.054688 25.634375 
L 1475.59082 25.634375 
L 1475.59082 19.384375 
L 1431.054688 19.384375 
z
"/>
     </g>
    </g>
    <g id="line2d_33">
     <path d="M 224.42 273.584 
L 234.42 273.584 
L 244.42 273.584 
" style="fill: none; stroke-dasharray: 5.55,2.4; stroke-dashoffset: 0; stroke: #2ca02c; stroke-width: 1.5"/>
    </g>
    <g id="text_16">
     <!-- Finite Approximation for $h = \frac{\pi}{5}$ -->
     <g transform="translate(252.42 277.084) scale(0.1 -0.1)">
      <use xlink:href="#DejaVuSans-46" transform="translate(0 0.5875)"/>
      <use xlink:href="#DejaVuSans-69" transform="translate(57.519531 0.5875)"/>
      <use xlink:href="#DejaVuSans-6e" transform="translate(85.302734 0.5875)"/>
      <use xlink:href="#DejaVuSans-69" transform="translate(148.681641 0.5875)"/>
      <use xlink:href="#DejaVuSans-74" transform="translate(176.464844 0.5875)"/>
      <use xlink:href="#DejaVuSans-65" transform="translate(215.673828 0.5875)"/>
      <use xlink:href="#DejaVuSans-20" transform="translate(277.197266 0.5875)"/>
      <use xlink:href="#DejaVuSans-41" transform="translate(308.984375 0.5875)"/>
      <use xlink:href="#DejaVuSans-70" transform="translate(377.392578 0.5875)"/>
      <use xlink:href="#DejaVuSans-70" transform="translate(440.869141 0.5875)"/>
      <use xlink:href="#DejaVuSans-72" transform="translate(504.345703 0.5875)"/>
      <use xlink:href="#DejaVuSans-6f" transform="translate(545.458984 0.5875)"/>
      <use xlink:href="#DejaVuSans-78" transform="translate(606.640625 0.5875)"/>
      <use xlink:href="#DejaVuSans-69" transform="translate(665.820312 0.5875)"/>
      <use xlink:href="#DejaVuSans-6d" transform="translate(693.603516 0.5875)"/>
      <use xlink:href="#DejaVuSans-61" transform="translate(791.015625 0.5875)"/>
      <use xlink:href="#DejaVuSans-74" transform="translate(852.294922 0.5875)"/>
      <use xlink:href="#DejaVuSans-69" transform="translate(891.503906 0.5875)"/>
      <use xlink:href="#DejaVuSans-6f" transform="translate(919.287109 0.5875)"/>
      <use xlink:href="#DejaVuSans-6e" transform="translate(980.46875 0.5875)"/>
      <use xlink:href="#DejaVuSans-20" transform="translate(1043.847656 0.5875)"/>
      <use xlink:href="#DejaVuSans-66" transform="translate(1075.634766 0.5875)"/>
      <use xlink:href="#DejaVuSans-6f" transform="translate(1110.839844 0.5875)"/>
      <use xlink:href="#DejaVuSans-72" transform="translate(1172.021484 0.5875)"/>
      <use xlink:href="#DejaVuSans-20" transform="translate(1213.134766 0.5875)"/>
      <use xlink:href="#DejaVuSans-Oblique-68" transform="translate(1244.921875 0.5875)"/>
      <use xlink:href="#DejaVuSans-3d" transform="translate(1327.783203 0.5875)"/>
      <use xlink:href="#DejaVuSans-Oblique-3c0" transform="translate(1432.054688 45.71875) scale(0.7)"/>
      <use xlink:href="#DejaVuSans-35" transform="translate(1431.054688 -37.9) scale(0.7)"/>
      <path d="M 1431.054688 19.384375 
L 1431.054688 25.634375 
L 1475.59082 25.634375 
L 1475.59082 19.384375 
L 1431.054688 19.384375 
z
"/>
     </g>
    </g>
    <g id="line2d_34">
     <path d="M 224.42 290.984 
L 234.42 290.984 
L 244.42 290.984 
" style="fill: none; stroke-dasharray: 5.55,2.4; stroke-dashoffset: 0; stroke: #d62728; stroke-width: 1.5"/>
    </g>
    <g id="text_17">
     <!-- Finite Approximation for $h = \frac{\pi}{10}$ -->
     <g transform="translate(252.42 294.484) scale(0.1 -0.1)">
      <use xlink:href="#DejaVuSans-46" transform="translate(0 0.5875)"/>
      <use xlink:href="#DejaVuSans-69" transform="translate(57.519531 0.5875)"/>
      <use xlink:href="#DejaVuSans-6e" transform="translate(85.302734 0.5875)"/>
      <use xlink:href="#DejaVuSans-69" transform="translate(148.681641 0.5875)"/>
      <use xlink:href="#DejaVuSans-74" transform="translate(176.464844 0.5875)"/>
      <use xlink:href="#DejaVuSans-65" transform="translate(215.673828 0.5875)"/>
      <use xlink:href="#DejaVuSans-20" transform="translate(277.197266 0.5875)"/>
      <use xlink:href="#DejaVuSans-41" transform="translate(308.984375 0.5875)"/>
      <use xlink:href="#DejaVuSans-70" transform="translate(377.392578 0.5875)"/>
      <use xlink:href="#DejaVuSans-70" transform="translate(440.869141 0.5875)"/>
      <use xlink:href="#DejaVuSans-72" transform="translate(504.345703 0.5875)"/>
      <use xlink:href="#DejaVuSans-6f" transform="translate(545.458984 0.5875)"/>
      <use xlink:href="#DejaVuSans-78" transform="translate(606.640625 0.5875)"/>
      <use xlink:href="#DejaVuSans-69" transform="translate(665.820312 0.5875)"/>
      <use xlink:href="#DejaVuSans-6d" transform="translate(693.603516 0.5875)"/>
      <use xlink:href="#DejaVuSans-61" transform="translate(791.015625 0.5875)"/>
      <use xlink:href="#DejaVuSans-74" transform="translate(852.294922 0.5875)"/>
      <use xlink:href="#DejaVuSans-69" transform="translate(891.503906 0.5875)"/>
      <use xlink:href="#DejaVuSans-6f" transform="translate(919.287109 0.5875)"/>
      <use xlink:href="#DejaVuSans-6e" transform="translate(980.46875 0.5875)"/>
      <use xlink:href="#DejaVuSans-20" transform="translate(1043.847656 0.5875)"/>
      <use xlink:href="#DejaVuSans-66" transform="translate(1075.634766 0.5875)"/>
      <use xlink:href="#DejaVuSans-6f" transform="translate(1110.839844 0.5875)"/>
      <use xlink:href="#DejaVuSans-72" transform="translate(1172.021484 0.5875)"/>
      <use xlink:href="#DejaVuSans-20" transform="translate(1213.134766 0.5875)"/>
      <use xlink:href="#DejaVuSans-Oblique-68" transform="translate(1244.921875 0.5875)"/>
      <use xlink:href="#DejaVuSans-3d" transform="translate(1327.783203 0.5875)"/>
      <use xlink:href="#DejaVuSans-Oblique-3c0" transform="translate(1454.054688 45.71875) scale(0.7)"/>
      <use xlink:href="#DejaVuSans-31" transform="translate(1431.054688 -38.81875) scale(0.7)"/>
      <use xlink:href="#DejaVuSans-30" transform="translate(1475.59082 -38.81875) scale(0.7)"/>
      <path d="M 1431.054688 19.384375 
L 1431.054688 25.634375 
L 1520.126953 25.634375 
L 1520.126953 19.384375 
L 1431.054688 19.384375 
z
"/>
     </g>
    </g>
   </g>
  </g>
 </g>
 <defs>
  <clipPath id="p0dc2a3c17a">
   <rect x="57.6" y="41.472" width="357.12" height="266.112"/>
  </clipPath>
 </defs>
</svg>
