<?xml version="1.0" encoding="utf-8" standalone="no"?>
<!DOCTYPE svg PUBLIC "-//W3C//DTD SVG 1.1//EN"
  "http://www.w3.org/Graphics/SVG/1.1/DTD/svg11.dtd">
<svg xmlns:xlink="http://www.w3.org/1999/xlink" width="460.8pt" height="345.6pt" viewBox="0 0 460.8 345.6" xmlns="http://www.w3.org/2000/svg" version="1.1">
 <metadata>
  <rdf:RDF xmlns:dc="http://purl.org/dc/elements/1.1/" xmlns:cc="http://creativecommons.org/ns#" xmlns:rdf="http://www.w3.org/1999/02/22-rdf-syntax-ns#">
   <cc:Work>
    <dc:type rdf:resource="http://purl.org/dc/dcmitype/StillImage"/>
    <dc:date>1980-01-01T00:00:00+00:00</dc:date>
    <dc:format>image/svg+xml</dc:format>
    <dc:creator>
     <cc:Agent>
      <dc:title>Matplotlib v3.9.2, https://matplotlib.org/</dc:title>
     </cc:Agent>
    </dc:creator>
   </cc:Work>
  </rdf:RDF>
 </metadata>
 <defs>
  <style type="text/css">*{stroke-linejoin: round; stroke-linecap: butt}</style>
 </defs>
 <g id="figure_1">
  <g id="patch_1">
   <path d="M 0 345.6 
L 460.8 345.6 
L 460.8 0 
L 0 0 
z
" style="fill: #ffffff"/>
  </g>
  <g id="axes_1">
   <g id="patch_2">
    <path d="M 57.6 307.584 
L 414.72 307.584 
L 414.72 41.472 
L 57.6 41.472 
z
" style="fill: #ffffff"/>
   </g>
   <g id="matplotlib.axis_1">
    <g id="xtick_1">
     <g id="line2d_1">
      <path d="M 66.516582 307.584 
L 66.516582 41.472 
" clip-path="url(#p72aac87835)" style="fill: none; stroke: #b0b0b0; stroke-width: 0.8; stroke-linecap: square"/>
     </g>
     <g id="line2d_2">
      <defs>
       <path id="m8b2d50a7ab" d="M 0 0 
L 0 3.5 
" style="stroke: #000000; stroke-width: 0.8"/>
      </defs>
      <g>
       <use xlink:href="#m8b2d50a7ab" x="66.516582" y="307.584" style="stroke: #000000; stroke-width: 0.8"/>
      </g>
     </g>
     <g id="text_1">
      <!-- 3 -->
      <g transform="translate(63.335332 322.182437) scale(0.1 -0.1)">
       <defs>
        <path id="DejaVuSans-33" d="M 2597 2516 
Q 3050 2419 3304 2112 
Q 3559 1806 3559 1356 
Q 3559 666 3084 287 
Q 2609 -91 1734 -91 
Q 1441 -91 1130 -33 
Q 819 25 488 141 
L 488 750 
Q 750 597 1062 519 
Q 1375 441 1716 441 
Q 2309 441 2620 675 
Q 2931 909 2931 1356 
Q 2931 1769 2642 2001 
Q 2353 2234 1838 2234 
L 1294 2234 
L 1294 2753 
L 1863 2753 
Q 2328 2753 2575 2939 
Q 2822 3125 2822 3475 
Q 2822 3834 2567 4026 
Q 2313 4219 1838 4219 
Q 1578 4219 1281 4162 
Q 984 4106 628 3988 
L 628 4550 
Q 988 4650 1302 4700 
Q 1616 4750 1894 4750 
Q 2613 4750 3031 4423 
Q 3450 4097 3450 3541 
Q 3450 3153 3228 2886 
Q 3006 2619 2597 2516 
z
" transform="scale(0.015625)"/>
       </defs>
       <use xlink:href="#DejaVuSans-33"/>
      </g>
     </g>
    </g>
    <g id="xtick_2">
     <g id="line2d_3">
      <path d="M 118.186957 307.584 
L 118.186957 41.472 
" clip-path="url(#p72aac87835)" style="fill: none; stroke: #b0b0b0; stroke-width: 0.8; stroke-linecap: square"/>
     </g>
     <g id="line2d_4">
      <g>
       <use xlink:href="#m8b2d50a7ab" x="118.186957" y="307.584" style="stroke: #000000; stroke-width: 0.8"/>
      </g>
     </g>
     <g id="text_2">
      <!-- 4 -->
      <g transform="translate(115.005707 322.182437) scale(0.1 -0.1)">
       <defs>
        <path id="DejaVuSans-34" d="M 2419 4116 
L 825 1625 
L 2419 1625 
L 2419 4116 
z
M 2253 4666 
L 3047 4666 
L 3047 1625 
L 3713 1625 
L 3713 1100 
L 3047 1100 
L 3047 0 
L 2419 0 
L 2419 1100 
L 313 1100 
L 313 1709 
L 2253 4666 
z
" transform="scale(0.015625)"/>
       </defs>
       <use xlink:href="#DejaVuSans-34"/>
      </g>
     </g>
    </g>
    <g id="xtick_3">
     <g id="line2d_5">
      <path d="M 169.857333 307.584 
L 169.857333 41.472 
" clip-path="url(#p72aac87835)" style="fill: none; stroke: #b0b0b0; stroke-width: 0.8; stroke-linecap: square"/>
     </g>
     <g id="line2d_6">
      <g>
       <use xlink:href="#m8b2d50a7ab" x="169.857333" y="307.584" style="stroke: #000000; stroke-width: 0.8"/>
      </g>
     </g>
     <g id="text_3">
      <!-- 5 -->
      <g transform="translate(166.676083 322.182437) scale(0.1 -0.1)">
       <defs>
        <path id="DejaVuSans-35" d="M 691 4666 
L 3169 4666 
L 3169 4134 
L 1269 4134 
L 1269 2991 
Q 1406 3038 1543 3061 
Q 1681 3084 1819 3084 
Q 2600 3084 3056 2656 
Q 3513 2228 3513 1497 
Q 3513 744 3044 326 
Q 2575 -91 1722 -91 
Q 1428 -91 1123 -41 
Q 819 9 494 109 
L 494 744 
Q 775 591 1075 516 
Q 1375 441 1709 441 
Q 2250 441 2565 725 
Q 2881 1009 2881 1497 
Q 2881 1984 2565 2268 
Q 2250 2553 1709 2553 
Q 1456 2553 1204 2497 
Q 953 2441 691 2322 
L 691 4666 
z
" transform="scale(0.015625)"/>
       </defs>
       <use xlink:href="#DejaVuSans-35"/>
      </g>
     </g>
    </g>
    <g id="xtick_4">
     <g id="line2d_7">
      <path d="M 221.527709 307.584 
L 221.527709 41.472 
" clip-path="url(#p72aac87835)" style="fill: none; stroke: #b0b0b0; stroke-width: 0.8; stroke-linecap: square"/>
     </g>
     <g id="line2d_8">
      <g>
       <use xlink:href="#m8b2d50a7ab" x="221.527709" y="307.584" style="stroke: #000000; stroke-width: 0.8"/>
      </g>
     </g>
     <g id="text_4">
      <!-- 6 -->
      <g transform="translate(218.346459 322.182437) scale(0.1 -0.1)">
       <defs>
        <path id="DejaVuSans-36" d="M 2113 2584 
Q 1688 2584 1439 2293 
Q 1191 2003 1191 1497 
Q 1191 994 1439 701 
Q 1688 409 2113 409 
Q 2538 409 2786 701 
Q 3034 994 3034 1497 
Q 3034 2003 2786 2293 
Q 2538 2584 2113 2584 
z
M 3366 4563 
L 3366 3988 
Q 3128 4100 2886 4159 
Q 2644 4219 2406 4219 
Q 1781 4219 1451 3797 
Q 1122 3375 1075 2522 
Q 1259 2794 1537 2939 
Q 1816 3084 2150 3084 
Q 2853 3084 3261 2657 
Q 3669 2231 3669 1497 
Q 3669 778 3244 343 
Q 2819 -91 2113 -91 
Q 1303 -91 875 529 
Q 447 1150 447 2328 
Q 447 3434 972 4092 
Q 1497 4750 2381 4750 
Q 2619 4750 2861 4703 
Q 3103 4656 3366 4563 
z
" transform="scale(0.015625)"/>
       </defs>
       <use xlink:href="#DejaVuSans-36"/>
      </g>
     </g>
    </g>
    <g id="xtick_5">
     <g id="line2d_9">
      <path d="M 273.198084 307.584 
L 273.198084 41.472 
" clip-path="url(#p72aac87835)" style="fill: none; stroke: #b0b0b0; stroke-width: 0.8; stroke-linecap: square"/>
     </g>
     <g id="line2d_10">
      <g>
       <use xlink:href="#m8b2d50a7ab" x="273.198084" y="307.584" style="stroke: #000000; stroke-width: 0.8"/>
      </g>
     </g>
     <g id="text_5">
      <!-- 7 -->
      <g transform="translate(270.016834 322.182437) scale(0.1 -0.1)">
       <defs>
        <path id="DejaVuSans-37" d="M 525 4666 
L 3525 4666 
L 3525 4397 
L 1831 0 
L 1172 0 
L 2766 4134 
L 525 4134 
L 525 4666 
z
" transform="scale(0.015625)"/>
       </defs>
       <use xlink:href="#DejaVuSans-37"/>
      </g>
     </g>
    </g>
    <g id="xtick_6">
     <g id="line2d_11">
      <path d="M 324.86846 307.584 
L 324.86846 41.472 
" clip-path="url(#p72aac87835)" style="fill: none; stroke: #b0b0b0; stroke-width: 0.8; stroke-linecap: square"/>
     </g>
     <g id="line2d_12">
      <g>
       <use xlink:href="#m8b2d50a7ab" x="324.86846" y="307.584" style="stroke: #000000; stroke-width: 0.8"/>
      </g>
     </g>
     <g id="text_6">
      <!-- 8 -->
      <g transform="translate(321.68721 322.182437) scale(0.1 -0.1)">
       <defs>
        <path id="DejaVuSans-38" d="M 2034 2216 
Q 1584 2216 1326 1975 
Q 1069 1734 1069 1313 
Q 1069 891 1326 650 
Q 1584 409 2034 409 
Q 2484 409 2743 651 
Q 3003 894 3003 1313 
Q 3003 1734 2745 1975 
Q 2488 2216 2034 2216 
z
M 1403 2484 
Q 997 2584 770 2862 
Q 544 3141 544 3541 
Q 544 4100 942 4425 
Q 1341 4750 2034 4750 
Q 2731 4750 3128 4425 
Q 3525 4100 3525 3541 
Q 3525 3141 3298 2862 
Q 3072 2584 2669 2484 
Q 3125 2378 3379 2068 
Q 3634 1759 3634 1313 
Q 3634 634 3220 271 
Q 2806 -91 2034 -91 
Q 1263 -91 848 271 
Q 434 634 434 1313 
Q 434 1759 690 2068 
Q 947 2378 1403 2484 
z
M 1172 3481 
Q 1172 3119 1398 2916 
Q 1625 2713 2034 2713 
Q 2441 2713 2670 2916 
Q 2900 3119 2900 3481 
Q 2900 3844 2670 4047 
Q 2441 4250 2034 4250 
Q 1625 4250 1398 4047 
Q 1172 3844 1172 3481 
z
" transform="scale(0.015625)"/>
       </defs>
       <use xlink:href="#DejaVuSans-38"/>
      </g>
     </g>
    </g>
    <g id="xtick_7">
     <g id="line2d_13">
      <path d="M 376.538836 307.584 
L 376.538836 41.472 
" clip-path="url(#p72aac87835)" style="fill: none; stroke: #b0b0b0; stroke-width: 0.8; stroke-linecap: square"/>
     </g>
     <g id="line2d_14">
      <g>
       <use xlink:href="#m8b2d50a7ab" x="376.538836" y="307.584" style="stroke: #000000; stroke-width: 0.8"/>
      </g>
     </g>
     <g id="text_7">
      <!-- 9 -->
      <g transform="translate(373.357586 322.182437) scale(0.1 -0.1)">
       <defs>
        <path id="DejaVuSans-39" d="M 703 97 
L 703 672 
Q 941 559 1184 500 
Q 1428 441 1663 441 
Q 2288 441 2617 861 
Q 2947 1281 2994 2138 
Q 2813 1869 2534 1725 
Q 2256 1581 1919 1581 
Q 1219 1581 811 2004 
Q 403 2428 403 3163 
Q 403 3881 828 4315 
Q 1253 4750 1959 4750 
Q 2769 4750 3195 4129 
Q 3622 3509 3622 2328 
Q 3622 1225 3098 567 
Q 2575 -91 1691 -91 
Q 1453 -91 1209 -44 
Q 966 3 703 97 
z
M 1959 2075 
Q 2384 2075 2632 2365 
Q 2881 2656 2881 3163 
Q 2881 3666 2632 3958 
Q 2384 4250 1959 4250 
Q 1534 4250 1286 3958 
Q 1038 3666 1038 3163 
Q 1038 2656 1286 2365 
Q 1534 2075 1959 2075 
z
" transform="scale(0.015625)"/>
       </defs>
       <use xlink:href="#DejaVuSans-39"/>
      </g>
     </g>
    </g>
   </g>
   <g id="matplotlib.axis_2">
    <g id="ytick_1">
     <g id="line2d_15">
      <path d="M 57.6 297.696821 
L 414.72 297.696821 
" clip-path="url(#p72aac87835)" style="fill: none; stroke: #b0b0b0; stroke-width: 0.8; stroke-linecap: square"/>
     </g>
     <g id="line2d_16">
      <defs>
       <path id="ma50fb74d60" d="M 0 0 
L -3.5 0 
" style="stroke: #000000; stroke-width: 0.8"/>
      </defs>
      <g>
       <use xlink:href="#ma50fb74d60" x="57.6" y="297.696821" style="stroke: #000000; stroke-width: 0.8"/>
      </g>
     </g>
     <g id="text_8">
      <!-- −0.4 -->
      <g transform="translate(26.317187 301.496039) scale(0.1 -0.1)">
       <defs>
        <path id="DejaVuSans-2212" d="M 678 2272 
L 4684 2272 
L 4684 1741 
L 678 1741 
L 678 2272 
z
" transform="scale(0.015625)"/>
        <path id="DejaVuSans-30" d="M 2034 4250 
Q 1547 4250 1301 3770 
Q 1056 3291 1056 2328 
Q 1056 1369 1301 889 
Q 1547 409 2034 409 
Q 2525 409 2770 889 
Q 3016 1369 3016 2328 
Q 3016 3291 2770 3770 
Q 2525 4250 2034 4250 
z
M 2034 4750 
Q 2819 4750 3233 4129 
Q 3647 3509 3647 2328 
Q 3647 1150 3233 529 
Q 2819 -91 2034 -91 
Q 1250 -91 836 529 
Q 422 1150 422 2328 
Q 422 3509 836 4129 
Q 1250 4750 2034 4750 
z
" transform="scale(0.015625)"/>
        <path id="DejaVuSans-2e" d="M 684 794 
L 1344 794 
L 1344 0 
L 684 0 
L 684 794 
z
" transform="scale(0.015625)"/>
       </defs>
       <use xlink:href="#DejaVuSans-2212"/>
       <use xlink:href="#DejaVuSans-30" x="83.789062"/>
       <use xlink:href="#DejaVuSans-2e" x="147.412109"/>
       <use xlink:href="#DejaVuSans-34" x="179.199219"/>
      </g>
     </g>
    </g>
    <g id="ytick_2">
     <g id="line2d_17">
      <path d="M 57.6 254.721688 
L 414.72 254.721688 
" clip-path="url(#p72aac87835)" style="fill: none; stroke: #b0b0b0; stroke-width: 0.8; stroke-linecap: square"/>
     </g>
     <g id="line2d_18">
      <g>
       <use xlink:href="#ma50fb74d60" x="57.6" y="254.721688" style="stroke: #000000; stroke-width: 0.8"/>
      </g>
     </g>
     <g id="text_9">
      <!-- −0.3 -->
      <g transform="translate(26.317187 258.520906) scale(0.1 -0.1)">
       <use xlink:href="#DejaVuSans-2212"/>
       <use xlink:href="#DejaVuSans-30" x="83.789062"/>
       <use xlink:href="#DejaVuSans-2e" x="147.412109"/>
       <use xlink:href="#DejaVuSans-33" x="179.199219"/>
      </g>
     </g>
    </g>
    <g id="ytick_3">
     <g id="line2d_19">
      <path d="M 57.6 211.746555 
L 414.72 211.746555 
" clip-path="url(#p72aac87835)" style="fill: none; stroke: #b0b0b0; stroke-width: 0.8; stroke-linecap: square"/>
     </g>
     <g id="line2d_20">
      <g>
       <use xlink:href="#ma50fb74d60" x="57.6" y="211.746555" style="stroke: #000000; stroke-width: 0.8"/>
      </g>
     </g>
     <g id="text_10">
      <!-- −0.2 -->
      <g transform="translate(26.317187 215.545773) scale(0.1 -0.1)">
       <defs>
        <path id="DejaVuSans-32" d="M 1228 531 
L 3431 531 
L 3431 0 
L 469 0 
L 469 531 
Q 828 903 1448 1529 
Q 2069 2156 2228 2338 
Q 2531 2678 2651 2914 
Q 2772 3150 2772 3378 
Q 2772 3750 2511 3984 
Q 2250 4219 1831 4219 
Q 1534 4219 1204 4116 
Q 875 4013 500 3803 
L 500 4441 
Q 881 4594 1212 4672 
Q 1544 4750 1819 4750 
Q 2544 4750 2975 4387 
Q 3406 4025 3406 3419 
Q 3406 3131 3298 2873 
Q 3191 2616 2906 2266 
Q 2828 2175 2409 1742 
Q 1991 1309 1228 531 
z
" transform="scale(0.015625)"/>
       </defs>
       <use xlink:href="#DejaVuSans-2212"/>
       <use xlink:href="#DejaVuSans-30" x="83.789062"/>
       <use xlink:href="#DejaVuSans-2e" x="147.412109"/>
       <use xlink:href="#DejaVuSans-32" x="179.199219"/>
      </g>
     </g>
    </g>
    <g id="ytick_4">
     <g id="line2d_21">
      <path d="M 57.6 168.771422 
L 414.72 168.771422 
" clip-path="url(#p72aac87835)" style="fill: none; stroke: #b0b0b0; stroke-width: 0.8; stroke-linecap: square"/>
     </g>
     <g id="line2d_22">
      <g>
       <use xlink:href="#ma50fb74d60" x="57.6" y="168.771422" style="stroke: #000000; stroke-width: 0.8"/>
      </g>
     </g>
     <g id="text_11">
      <!-- −0.1 -->
      <g transform="translate(26.317187 172.57064) scale(0.1 -0.1)">
       <defs>
        <path id="DejaVuSans-31" d="M 794 531 
L 1825 531 
L 1825 4091 
L 703 3866 
L 703 4441 
L 1819 4666 
L 2450 4666 
L 2450 531 
L 3481 531 
L 3481 0 
L 794 0 
L 794 531 
z
" transform="scale(0.015625)"/>
       </defs>
       <use xlink:href="#DejaVuSans-2212"/>
       <use xlink:href="#DejaVuSans-30" x="83.789062"/>
       <use xlink:href="#DejaVuSans-2e" x="147.412109"/>
       <use xlink:href="#DejaVuSans-31" x="179.199219"/>
      </g>
     </g>
    </g>
    <g id="ytick_5">
     <g id="line2d_23">
      <path d="M 57.6 125.796289 
L 414.72 125.796289 
" clip-path="url(#p72aac87835)" style="fill: none; stroke: #b0b0b0; stroke-width: 0.8; stroke-linecap: square"/>
     </g>
     <g id="line2d_24">
      <g>
       <use xlink:href="#ma50fb74d60" x="57.6" y="125.796289" style="stroke: #000000; stroke-width: 0.8"/>
      </g>
     </g>
     <g id="text_12">
      <!-- 0.0 -->
      <g transform="translate(34.696875 129.595507) scale(0.1 -0.1)">
       <use xlink:href="#DejaVuSans-30"/>
       <use xlink:href="#DejaVuSans-2e" x="63.623047"/>
       <use xlink:href="#DejaVuSans-30" x="95.410156"/>
      </g>
     </g>
    </g>
    <g id="ytick_6">
     <g id="line2d_25">
      <path d="M 57.6 82.821156 
L 414.72 82.821156 
" clip-path="url(#p72aac87835)" style="fill: none; stroke: #b0b0b0; stroke-width: 0.8; stroke-linecap: square"/>
     </g>
     <g id="line2d_26">
      <g>
       <use xlink:href="#ma50fb74d60" x="57.6" y="82.821156" style="stroke: #000000; stroke-width: 0.8"/>
      </g>
     </g>
     <g id="text_13">
      <!-- 0.1 -->
      <g transform="translate(34.696875 86.620375) scale(0.1 -0.1)">
       <use xlink:href="#DejaVuSans-30"/>
       <use xlink:href="#DejaVuSans-2e" x="63.623047"/>
       <use xlink:href="#DejaVuSans-31" x="95.410156"/>
      </g>
     </g>
    </g>
   </g>
   <g id="line2d_27">
    <path d="M 73.832727 262.590386 
L 78.70742 254.14549 
L 83.907093 244.677433 
L 89.756724 233.547369 
L 96.581294 220.059493 
L 105.355741 202.187935 
L 128.754267 154.262523 
L 135.903817 140.286809 
L 142.078428 128.712587 
L 147.603079 118.834815 
L 152.477772 110.550594 
L 157.027486 103.22318 
L 161.577199 96.318938 
L 165.801933 90.31196 
L 169.701687 85.130813 
L 173.601441 80.313684 
L 177.176216 76.228536 
L 180.750991 72.468183 
L 184.325766 69.039647 
L 187.575561 66.215553 
L 190.825356 63.673734 
L 194.075152 61.416604 
L 197.324947 59.445668 
L 200.249762 57.917037 
L 203.174578 56.620539 
L 206.099394 55.55541 
L 209.02421 54.720309 
L 211.949025 54.113332 
L 214.873841 53.732018 
L 217.798657 53.573364 
L 220.723473 53.633835 
L 223.648288 53.909379 
L 226.573104 54.395446 
L 229.822899 55.176287 
L 233.072695 56.203223 
L 236.32249 57.467992 
L 239.572285 58.961693 
L 243.14706 60.857807 
L 246.721835 63.005949 
L 250.621589 65.620075 
L 254.521343 68.49776 
L 258.746077 71.889078 
L 263.29579 75.82964 
L 268.170483 80.344911 
L 273.695135 85.774472 
L 279.869746 92.157769 
L 287.669255 100.556307 
L 315.942473 131.340877 
L 322.442064 137.9014 
L 327.966716 143.176996 
L 333.166388 147.843421 
L 338.041081 151.92146 
L 342.590794 155.443794 
L 346.815528 158.45134 
L 351.040262 161.191067 
L 354.940016 163.471827 
L 358.839771 165.505952 
L 362.739525 167.286759 
L 366.639279 168.808983 
L 370.214054 169.97389 
L 373.788829 170.916366 
L 377.363604 171.635506 
L 380.938378 172.131396 
L 384.513153 172.405102 
L 388.087928 172.458653 
L 391.662703 172.295018 
L 395.237477 171.918084 
L 398.487273 171.394321 
L 398.487273 171.394321 
" clip-path="url(#p72aac87835)" style="fill: none; stroke: #808080; stroke-width: 1.5; stroke-linecap: square"/>
   </g>
   <g id="line2d_28">
    <path d="M 73.832727 295.488 
L 77.082523 292.285976 
L 80.332318 288.771523 
L 83.907093 284.559523 
L 87.481867 280.001875 
L 91.381622 274.657362 
L 95.606355 268.457257 
L 99.831089 261.863253 
L 104.380803 254.361688 
L 109.580475 245.337083 
L 115.105127 235.296052 
L 121.604717 223.001223 
L 129.404226 207.752256 
L 143.703325 179.185432 
L 154.427649 158.002203 
L 161.902179 143.726112 
L 168.07679 132.39359 
L 173.601441 122.695951 
L 178.801114 114.012394 
L 183.675807 106.308833 
L 188.22552 99.535418 
L 192.450254 93.631359 
L 196.674988 88.119424 
L 200.574742 83.395109 
L 204.474496 79.03259 
L 208.049271 75.360502 
L 211.624046 72.008147 
L 214.873841 69.242695 
L 218.123636 66.749327 
L 221.373432 64.530413 
L 224.623227 62.587444 
L 227.873022 60.921042 
L 230.797838 59.657564 
L 233.722654 58.617152 
L 236.647469 57.798486 
L 239.572285 57.199702 
L 242.497101 56.818399 
L 245.421916 56.651656 
L 248.346732 56.696043 
L 251.271548 56.94763 
L 254.521343 57.464808 
L 257.771138 58.225616 
L 261.020934 59.222657 
L 264.270729 60.447885 
L 267.845504 62.048838 
L 271.420278 63.903072 
L 274.995053 65.997463 
L 278.894808 68.539855 
L 283.119541 71.576096 
L 287.344275 74.881108 
L 291.893989 78.710951 
L 297.093661 83.38921 
L 302.943292 88.974482 
L 309.767862 95.824909 
L 318.54231 104.975471 
L 339.665979 127.138306 
L 346.815528 134.237519 
L 352.990139 140.050614 
L 358.514791 144.943 
L 363.714464 149.239758 
L 368.589156 152.966529 
L 373.13887 156.159535 
L 377.363604 158.862092 
L 381.588337 161.299502 
L 385.488092 163.305127 
L 389.387846 165.069302 
L 393.2876 166.586671 
L 397.187355 167.853248 
L 398.487273 168.219217 
L 398.487273 168.219217 
" clip-path="url(#p72aac87835)" style="fill: none; stroke-dasharray: 5.55,2.4; stroke-dashoffset: 0; stroke: #1f77b4; stroke-width: 1.5"/>
   </g>
   <g id="line2d_29">
    <path d="M 73.832727 290.006899 
L 77.407502 285.694108 
L 80.982277 281.032817 
L 84.882031 275.57243 
L 89.106765 269.244046 
L 93.331499 262.519531 
L 97.881212 254.875666 
L 103.080885 245.687231 
L 108.605536 235.472038 
L 115.105127 222.974113 
L 123.229615 206.833666 
L 152.802752 147.574603 
L 159.302342 135.322069 
L 165.151974 124.768546 
L 170.351646 115.833813 
L 175.226339 107.888464 
L 179.776052 100.885473 
L 184.000786 94.766154 
L 188.22552 89.038136 
L 192.125274 84.114618 
L 196.025029 79.554057 
L 199.599803 75.702193 
L 203.174578 72.172424 
L 206.749353 68.970934 
L 209.999148 66.349491 
L 213.248943 64.006135 
L 216.498739 61.942708 
L 219.748534 60.160161 
L 222.67335 58.796102 
L 225.598165 57.659075 
L 228.522981 56.747964 
L 231.447797 56.061095 
L 234.372613 55.596248 
L 237.297428 55.350665 
L 240.222244 55.321066 
L 243.14706 55.503658 
L 246.071876 55.894154 
L 249.321671 56.566065 
L 252.571466 57.481545 
L 255.821261 58.632715 
L 259.071057 60.011052 
L 262.645831 61.778691 
L 266.220606 63.797204 
L 270.12036 66.269201 
L 274.020115 69.004652 
L 278.244848 72.242524 
L 282.794562 76.019496 
L 287.669255 80.362502 
L 293.193907 85.60206 
L 299.368518 91.781523 
L 306.843047 99.5931 
L 319.192269 112.883964 
L 330.891532 125.359222 
L 338.366061 133.000404 
L 344.540672 139.001285 
L 350.065324 144.069301 
L 355.264996 148.536094 
L 360.139689 152.42495 
L 364.689402 155.770351 
L 368.914136 158.614403 
L 373.13887 161.192413 
L 377.038624 163.326298 
L 380.938378 165.216607 
L 384.838133 166.857357 
L 388.737887 168.243958 
L 392.312662 169.288992 
L 395.887437 170.116332 
L 398.487273 170.581001 
L 398.487273 170.581001 
" clip-path="url(#p72aac87835)" style="fill: none; stroke-dasharray: 5.55,2.4; stroke-dashoffset: 0; stroke: #ff7f0e; stroke-width: 1.5"/>
   </g>
   <g id="line2d_30">
    <path d="M 73.832727 285.758053 
L 77.407502 281.014058 
L 81.307256 275.464403 
L 85.53199 269.040833 
L 90.081704 261.683396 
L 94.956396 253.34451 
L 100.156069 243.993421 
L 106.0057 232.998623 
L 112.83027 219.671752 
L 121.604717 202.008961 
L 145.328223 153.978127 
L 152.477772 140.174371 
L 158.652383 128.745943 
L 164.177035 118.995134 
L 169.051728 110.819314 
L 173.601441 103.58936 
L 178.151155 96.778439 
L 182.375889 90.853965 
L 186.275643 85.745089 
L 190.175397 80.996214 
L 193.750172 76.969884 
L 197.324947 73.264577 
L 200.899722 69.887149 
L 204.149517 67.105976 
L 207.399312 64.603602 
L 210.649107 62.382355 
L 213.898903 60.443665 
L 216.823718 58.940895 
L 219.748534 57.667225 
L 222.67335 56.621862 
L 225.598165 55.803448 
L 228.522981 55.210064 
L 231.447797 54.839248 
L 234.372613 54.687999 
L 237.297428 54.752796 
L 240.222244 55.029609 
L 243.14706 55.513915 
L 246.396855 56.289293 
L 249.64665 57.307131 
L 252.896446 58.559244 
L 256.146241 60.03681 
L 259.721016 61.911275 
L 263.29579 64.033815 
L 267.195545 66.615685 
L 271.095299 69.456814 
L 275.320033 72.80395 
L 279.869746 76.69197 
L 284.744439 81.145712 
L 290.269091 86.499693 
L 296.768681 93.13075 
L 304.89317 101.76934 
L 331.216511 130.048672 
L 337.716102 136.56862 
L 343.565733 142.12556 
L 348.765405 146.769075 
L 353.640098 150.835048 
L 358.189812 154.354261 
L 362.739525 157.586839 
L 366.964259 160.316489 
L 371.188993 162.771689 
L 375.088747 164.785517 
L 378.988501 166.550083 
L 382.888256 168.060146 
L 386.46303 169.217495 
L 390.037805 170.155832 
L 393.61258 170.874228 
L 397.187355 171.372729 
L 398.487273 171.49965 
L 398.487273 171.49965 
" clip-path="url(#p72aac87835)" style="fill: none; stroke-dasharray: 5.55,2.4; stroke-dashoffset: 0; stroke: #2ca02c; stroke-width: 1.5"/>
   </g>
   <g id="line2d_31">
    <path d="M 73.832727 275.301847 
L 78.057461 268.751237 
L 82.607174 261.260085 
L 87.481867 252.782273 
L 92.68154 243.288849 
L 98.531171 232.142295 
L 105.355741 218.651188 
L 114.455168 200.132461 
L 135.903817 156.283137 
L 143.053366 142.273045 
L 149.227977 130.648846 
L 154.752629 120.711204 
L 159.952301 111.821527 
L 164.826994 103.943329 
L 169.376708 97.024015 
L 173.601441 90.999843 
L 177.501196 85.800205 
L 181.40095 80.962188 
L 184.975725 76.855889 
L 188.5505 73.072575 
L 192.125274 69.619371 
L 195.37507 66.771467 
L 198.624865 64.204607 
L 201.87466 61.921297 
L 205.124455 59.923134 
L 208.049271 58.369183 
L 210.974087 57.046666 
L 213.898903 55.95489 
L 216.823718 55.092588 
L 219.748534 54.45793 
L 222.67335 54.048529 
L 225.598165 53.861457 
L 228.522981 53.893253 
L 231.447797 54.139942 
L 234.372613 54.597047 
L 237.622408 55.345674 
L 240.872203 56.340457 
L 244.121998 57.573235 
L 247.371794 59.035203 
L 250.946568 60.896828 
L 254.521343 63.011037 
L 258.421097 65.588923 
L 262.320852 68.431327 
L 266.545586 71.785677 
L 271.095299 75.688083 
L 275.969992 80.164604 
L 281.494644 85.553207 
L 287.669255 91.894809 
L 295.468763 100.247393 
L 311.71774 118.102862 
L 320.817166 127.884608 
L 327.641736 134.909525 
L 333.491368 140.630145 
L 339.01602 145.720752 
L 343.890713 149.922946 
L 348.440426 153.573571 
L 352.990139 156.940664 
L 357.214873 159.797122 
L 361.439607 162.38014 
L 365.339361 164.512162 
L 369.239115 166.394485 
L 373.13887 168.021261 
L 376.713645 169.284174 
L 380.288419 170.326254 
L 383.863194 171.14614 
L 387.437969 171.743461 
L 391.012744 172.118829 
L 394.587518 172.273823 
L 398.162293 172.21097 
L 398.487273 172.194565 
L 398.487273 172.194565 
" clip-path="url(#p72aac87835)" style="fill: none; stroke-dasharray: 5.55,2.4; stroke-dashoffset: 0; stroke: #d62728; stroke-width: 1.5"/>
   </g>
   <g id="patch_3">
    <path d="M 57.6 307.584 
L 57.6 41.472 
" style="fill: none; stroke: #000000; stroke-width: 0.8; stroke-linejoin: miter; stroke-linecap: square"/>
   </g>
   <g id="patch_4">
    <path d="M 414.72 307.584 
L 414.72 41.472 
" style="fill: none; stroke: #000000; stroke-width: 0.8; stroke-linejoin: miter; stroke-linecap: square"/>
   </g>
   <g id="patch_5">
    <path d="M 57.6 307.584 
L 414.72 307.584 
" style="fill: none; stroke: #000000; stroke-width: 0.8; stroke-linejoin: miter; stroke-linecap: square"/>
   </g>
   <g id="patch_6">
    <path d="M 57.6 41.472 
L 414.72 41.472 
" style="fill: none; stroke: #000000; stroke-width: 0.8; stroke-linejoin: miter; stroke-linecap: square"/>
   </g>
   <g id="legend_1">
    <g id="patch_7">
     <path d="M 222.42 302.584 
L 407.72 302.584 
Q 409.72 302.584 409.72 300.584 
L 409.72 217.205875 
Q 409.72 215.205875 407.72 215.205875 
L 222.42 215.205875 
Q 220.42 215.205875 220.42 217.205875 
L 220.42 300.584 
Q 220.42 302.584 222.42 302.584 
z
" style="fill: #ffffff; opacity: 0.8; stroke: #cccccc; stroke-linejoin: miter"/>
    </g>
    <g id="line2d_32">
     <path d="M 224.42 223.304312 
L 234.42 223.304312 
L 244.42 223.304312 
" style="fill: none; stroke: #808080; stroke-width: 1.5; stroke-linecap: square"/>
    </g>
    <g id="text_14">
     <!-- $f'(x)$ -->
     <g transform="translate(252.42 226.804312) scale(0.1 -0.1)">
      <defs>
       <path id="DejaVuSans-Oblique-66" d="M 3059 4863 
L 2969 4384 
L 2419 4384 
Q 2106 4384 1964 4261 
Q 1822 4138 1753 3809 
L 1691 3500 
L 2638 3500 
L 2553 3053 
L 1606 3053 
L 1013 0 
L 434 0 
L 1031 3053 
L 481 3053 
L 563 3500 
L 1113 3500 
L 1159 3744 
Q 1278 4363 1576 4613 
Q 1875 4863 2516 4863 
L 3059 4863 
z
" transform="scale(0.015625)"/>
       <path id="Cmsy10-30" d="M 225 347 
Q 184 359 184 409 
L 966 3316 
Q 1003 3434 1093 3506 
Q 1184 3578 1300 3578 
Q 1450 3578 1564 3479 
Q 1678 3381 1678 3231 
Q 1678 3166 1644 3084 
L 488 319 
Q 466 275 428 275 
Q 394 275 320 306 
Q 247 338 225 347 
z
" transform="scale(0.015625)"/>
       <path id="DejaVuSans-28" d="M 1984 4856 
Q 1566 4138 1362 3434 
Q 1159 2731 1159 2009 
Q 1159 1288 1364 580 
Q 1569 -128 1984 -844 
L 1484 -844 
Q 1016 -109 783 600 
Q 550 1309 550 2009 
Q 550 2706 781 3412 
Q 1013 4119 1484 4856 
L 1984 4856 
z
" transform="scale(0.015625)"/>
       <path id="DejaVuSans-Oblique-78" d="M 3841 3500 
L 2234 1784 
L 3219 0 
L 2559 0 
L 1819 1388 
L 531 0 
L -166 0 
L 1556 1844 
L 641 3500 
L 1300 3500 
L 1972 2234 
L 3144 3500 
L 3841 3500 
z
" transform="scale(0.015625)"/>
       <path id="DejaVuSans-29" d="M 513 4856 
L 1013 4856 
Q 1481 4119 1714 3412 
Q 1947 2706 1947 2009 
Q 1947 1309 1714 600 
Q 1481 -109 1013 -844 
L 513 -844 
Q 928 -128 1133 580 
Q 1338 1288 1338 2009 
Q 1338 2731 1133 3434 
Q 928 4138 513 4856 
z
" transform="scale(0.015625)"/>
      </defs>
      <use xlink:href="#DejaVuSans-Oblique-66" transform="translate(0 0.584375)"/>
      <use xlink:href="#Cmsy10-30" transform="translate(42.652786 38.865625) scale(0.7)"/>
      <use xlink:href="#DejaVuSans-28" transform="translate(64.630326 0.584375)"/>
      <use xlink:href="#DejaVuSans-Oblique-78" transform="translate(103.643997 0.584375)"/>
      <use xlink:href="#DejaVuSans-29" transform="translate(162.823685 0.584375)"/>
     </g>
    </g>
    <g id="line2d_33">
     <path d="M 224.42 238.784 
L 234.42 238.784 
L 244.42 238.784 
" style="fill: none; stroke-dasharray: 5.55,2.4; stroke-dashoffset: 0; stroke: #1f77b4; stroke-width: 1.5"/>
    </g>
    <g id="text_15">
     <!-- Finite Approximation for $h = \frac{\pi}{3}$ -->
     <g transform="translate(252.42 242.284) scale(0.1 -0.1)">
      <defs>
       <path id="DejaVuSans-46" d="M 628 4666 
L 3309 4666 
L 3309 4134 
L 1259 4134 
L 1259 2759 
L 3109 2759 
L 3109 2228 
L 1259 2228 
L 1259 0 
L 628 0 
L 628 4666 
z
" transform="scale(0.015625)"/>
       <path id="DejaVuSans-69" d="M 603 3500 
L 1178 3500 
L 1178 0 
L 603 0 
L 603 3500 
z
M 603 4863 
L 1178 4863 
L 1178 4134 
L 603 4134 
L 603 4863 
z
" transform="scale(0.015625)"/>
       <path id="DejaVuSans-6e" d="M 3513 2113 
L 3513 0 
L 2938 0 
L 2938 2094 
Q 2938 2591 2744 2837 
Q 2550 3084 2163 3084 
Q 1697 3084 1428 2787 
Q 1159 2491 1159 1978 
L 1159 0 
L 581 0 
L 581 3500 
L 1159 3500 
L 1159 2956 
Q 1366 3272 1645 3428 
Q 1925 3584 2291 3584 
Q 2894 3584 3203 3211 
Q 3513 2838 3513 2113 
z
" transform="scale(0.015625)"/>
       <path id="DejaVuSans-74" d="M 1172 4494 
L 1172 3500 
L 2356 3500 
L 2356 3053 
L 1172 3053 
L 1172 1153 
Q 1172 725 1289 603 
Q 1406 481 1766 481 
L 2356 481 
L 2356 0 
L 1766 0 
Q 1100 0 847 248 
Q 594 497 594 1153 
L 594 3053 
L 172 3053 
L 172 3500 
L 594 3500 
L 594 4494 
L 1172 4494 
z
" transform="scale(0.015625)"/>
       <path id="DejaVuSans-65" d="M 3597 1894 
L 3597 1613 
L 953 1613 
Q 991 1019 1311 708 
Q 1631 397 2203 397 
Q 2534 397 2845 478 
Q 3156 559 3463 722 
L 3463 178 
Q 3153 47 2828 -22 
Q 2503 -91 2169 -91 
Q 1331 -91 842 396 
Q 353 884 353 1716 
Q 353 2575 817 3079 
Q 1281 3584 2069 3584 
Q 2775 3584 3186 3129 
Q 3597 2675 3597 1894 
z
M 3022 2063 
Q 3016 2534 2758 2815 
Q 2500 3097 2075 3097 
Q 1594 3097 1305 2825 
Q 1016 2553 972 2059 
L 3022 2063 
z
" transform="scale(0.015625)"/>
       <path id="DejaVuSans-20" transform="scale(0.015625)"/>
       <path id="DejaVuSans-41" d="M 2188 4044 
L 1331 1722 
L 3047 1722 
L 2188 4044 
z
M 1831 4666 
L 2547 4666 
L 4325 0 
L 3669 0 
L 3244 1197 
L 1141 1197 
L 716 0 
L 50 0 
L 1831 4666 
z
" transform="scale(0.015625)"/>
       <path id="DejaVuSans-70" d="M 1159 525 
L 1159 -1331 
L 581 -1331 
L 581 3500 
L 1159 3500 
L 1159 2969 
Q 1341 3281 1617 3432 
Q 1894 3584 2278 3584 
Q 2916 3584 3314 3078 
Q 3713 2572 3713 1747 
Q 3713 922 3314 415 
Q 2916 -91 2278 -91 
Q 1894 -91 1617 61 
Q 1341 213 1159 525 
z
M 3116 1747 
Q 3116 2381 2855 2742 
Q 2594 3103 2138 3103 
Q 1681 3103 1420 2742 
Q 1159 2381 1159 1747 
Q 1159 1113 1420 752 
Q 1681 391 2138 391 
Q 2594 391 2855 752 
Q 3116 1113 3116 1747 
z
" transform="scale(0.015625)"/>
       <path id="DejaVuSans-72" d="M 2631 2963 
Q 2534 3019 2420 3045 
Q 2306 3072 2169 3072 
Q 1681 3072 1420 2755 
Q 1159 2438 1159 1844 
L 1159 0 
L 581 0 
L 581 3500 
L 1159 3500 
L 1159 2956 
Q 1341 3275 1631 3429 
Q 1922 3584 2338 3584 
Q 2397 3584 2469 3576 
Q 2541 3569 2628 3553 
L 2631 2963 
z
" transform="scale(0.015625)"/>
       <path id="DejaVuSans-6f" d="M 1959 3097 
Q 1497 3097 1228 2736 
Q 959 2375 959 1747 
Q 959 1119 1226 758 
Q 1494 397 1959 397 
Q 2419 397 2687 759 
Q 2956 1122 2956 1747 
Q 2956 2369 2687 2733 
Q 2419 3097 1959 3097 
z
M 1959 3584 
Q 2709 3584 3137 3096 
Q 3566 2609 3566 1747 
Q 3566 888 3137 398 
Q 2709 -91 1959 -91 
Q 1206 -91 779 398 
Q 353 888 353 1747 
Q 353 2609 779 3096 
Q 1206 3584 1959 3584 
z
" transform="scale(0.015625)"/>
       <path id="DejaVuSans-78" d="M 3513 3500 
L 2247 1797 
L 3578 0 
L 2900 0 
L 1881 1375 
L 863 0 
L 184 0 
L 1544 1831 
L 300 3500 
L 978 3500 
L 1906 2253 
L 2834 3500 
L 3513 3500 
z
" transform="scale(0.015625)"/>
       <path id="DejaVuSans-6d" d="M 3328 2828 
Q 3544 3216 3844 3400 
Q 4144 3584 4550 3584 
Q 5097 3584 5394 3201 
Q 5691 2819 5691 2113 
L 5691 0 
L 5113 0 
L 5113 2094 
Q 5113 2597 4934 2840 
Q 4756 3084 4391 3084 
Q 3944 3084 3684 2787 
Q 3425 2491 3425 1978 
L 3425 0 
L 2847 0 
L 2847 2094 
Q 2847 2600 2669 2842 
Q 2491 3084 2119 3084 
Q 1678 3084 1418 2786 
Q 1159 2488 1159 1978 
L 1159 0 
L 581 0 
L 581 3500 
L 1159 3500 
L 1159 2956 
Q 1356 3278 1631 3431 
Q 1906 3584 2284 3584 
Q 2666 3584 2933 3390 
Q 3200 3197 3328 2828 
z
" transform="scale(0.015625)"/>
       <path id="DejaVuSans-61" d="M 2194 1759 
Q 1497 1759 1228 1600 
Q 959 1441 959 1056 
Q 959 750 1161 570 
Q 1363 391 1709 391 
Q 2188 391 2477 730 
Q 2766 1069 2766 1631 
L 2766 1759 
L 2194 1759 
z
M 3341 1997 
L 3341 0 
L 2766 0 
L 2766 531 
Q 2569 213 2275 61 
Q 1981 -91 1556 -91 
Q 1019 -91 701 211 
Q 384 513 384 1019 
Q 384 1609 779 1909 
Q 1175 2209 1959 2209 
L 2766 2209 
L 2766 2266 
Q 2766 2663 2505 2880 
Q 2244 3097 1772 3097 
Q 1472 3097 1187 3025 
Q 903 2953 641 2809 
L 641 3341 
Q 956 3463 1253 3523 
Q 1550 3584 1831 3584 
Q 2591 3584 2966 3190 
Q 3341 2797 3341 1997 
z
" transform="scale(0.015625)"/>
       <path id="DejaVuSans-66" d="M 2375 4863 
L 2375 4384 
L 1825 4384 
Q 1516 4384 1395 4259 
Q 1275 4134 1275 3809 
L 1275 3500 
L 2222 3500 
L 2222 3053 
L 1275 3053 
L 1275 0 
L 697 0 
L 697 3053 
L 147 3053 
L 147 3500 
L 697 3500 
L 697 3744 
Q 697 4328 969 4595 
Q 1241 4863 1831 4863 
L 2375 4863 
z
" transform="scale(0.015625)"/>
       <path id="DejaVuSans-Oblique-68" d="M 3566 2113 
L 3156 0 
L 2578 0 
L 2988 2091 
Q 3016 2238 3031 2350 
Q 3047 2463 3047 2528 
Q 3047 2791 2881 2937 
Q 2716 3084 2419 3084 
Q 1956 3084 1617 2771 
Q 1278 2459 1178 1941 
L 800 0 
L 225 0 
L 1172 4863 
L 1747 4863 
L 1375 2950 
Q 1594 3244 1934 3414 
Q 2275 3584 2650 3584 
Q 3113 3584 3367 3334 
Q 3622 3084 3622 2631 
Q 3622 2519 3608 2391 
Q 3594 2263 3566 2113 
z
" transform="scale(0.015625)"/>
       <path id="DejaVuSans-3d" d="M 678 2906 
L 4684 2906 
L 4684 2381 
L 678 2381 
L 678 2906 
z
M 678 1631 
L 4684 1631 
L 4684 1100 
L 678 1100 
L 678 1631 
z
" transform="scale(0.015625)"/>
       <path id="DejaVuSans-Oblique-3c0" d="M 584 3500 
L 3938 3500 
L 3825 2925 
L 3384 2925 
L 2966 775 
Q 2922 550 2981 450 
Q 3038 353 3209 353 
Q 3256 353 3325 363 
Q 3397 369 3419 372 
L 3338 -44 
Q 3222 -84 3103 -103 
Q 2981 -122 2866 -122 
Q 2491 -122 2388 81 
Q 2284 288 2391 838 
L 2797 2925 
L 1506 2925 
L 938 0 
L 350 0 
L 919 2925 
L 472 2925 
L 584 3500 
z
" transform="scale(0.015625)"/>
      </defs>
      <use xlink:href="#DejaVuSans-46" transform="translate(0 0.5875)"/>
      <use xlink:href="#DejaVuSans-69" transform="translate(57.519531 0.5875)"/>
      <use xlink:href="#DejaVuSans-6e" transform="translate(85.302734 0.5875)"/>
      <use xlink:href="#DejaVuSans-69" transform="translate(148.681641 0.5875)"/>
      <use xlink:href="#DejaVuSans-74" transform="translate(176.464844 0.5875)"/>
      <use xlink:href="#DejaVuSans-65" transform="translate(215.673828 0.5875)"/>
      <use xlink:href="#DejaVuSans-20" transform="translate(277.197266 0.5875)"/>
      <use xlink:href="#DejaVuSans-41" transform="translate(308.984375 0.5875)"/>
      <use xlink:href="#DejaVuSans-70" transform="translate(377.392578 0.5875)"/>
      <use xlink:href="#DejaVuSans-70" transform="translate(440.869141 0.5875)"/>
      <use xlink:href="#DejaVuSans-72" transform="translate(504.345703 0.5875)"/>
      <use xlink:href="#DejaVuSans-6f" transform="translate(545.458984 0.5875)"/>
      <use xlink:href="#DejaVuSans-78" transform="translate(606.640625 0.5875)"/>
      <use xlink:href="#DejaVuSans-69" transform="translate(665.820312 0.5875)"/>
      <use xlink:href="#DejaVuSans-6d" transform="translate(693.603516 0.5875)"/>
      <use xlink:href="#DejaVuSans-61" transform="translate(791.015625 0.5875)"/>
      <use xlink:href="#DejaVuSans-74" transform="translate(852.294922 0.5875)"/>
      <use xlink:href="#DejaVuSans-69" transform="translate(891.503906 0.5875)"/>
      <use xlink:href="#DejaVuSans-6f" transform="translate(919.287109 0.5875)"/>
      <use xlink:href="#DejaVuSans-6e" transform="translate(980.46875 0.5875)"/>
      <use xlink:href="#DejaVuSans-20" transform="translate(1043.847656 0.5875)"/>
      <use xlink:href="#DejaVuSans-66" transform="translate(1075.634766 0.5875)"/>
      <use xlink:href="#DejaVuSans-6f" transform="translate(1110.839844 0.5875)"/>
      <use xlink:href="#DejaVuSans-72" transform="translate(1172.021484 0.5875)"/>
      <use xlink:href="#DejaVuSans-20" transform="translate(1213.134766 0.5875)"/>
      <use xlink:href="#DejaVuSans-Oblique-68" transform="translate(1244.921875 0.5875)"/>
      <use xlink:href="#DejaVuSans-3d" transform="translate(1327.783203 0.5875)"/>
      <use xlink:href="#DejaVuSans-Oblique-3c0" transform="translate(1432.054688 45.71875) scale(0.7)"/>
      <use xlink:href="#DejaVuSans-33" transform="translate(1431.054688 -38.81875) scale(0.7)"/>
      <path d="M 1431.054688 19.384375 
L 1431.054688 25.634375 
L 1475.59082 25.634375 
L 1475.59082 19.384375 
L 1431.054688 19.384375 
z
"/>
     </g>
    </g>
    <g id="line2d_34">
     <path d="M 224.42 256.284 
L 234.42 256.284 
L 244.42 256.284 
" style="fill: none; stroke-dasharray: 5.55,2.4; stroke-dashoffset: 0; stroke: #ff7f0e; stroke-width: 1.5"/>
    </g>
    <g id="text_16">
     <!-- Finite Approximation for $h = \frac{\pi}{4}$ -->
     <g transform="translate(252.42 259.784) scale(0.1 -0.1)">
      <use xlink:href="#DejaVuSans-46" transform="translate(0 0.5875)"/>
      <use xlink:href="#DejaVuSans-69" transform="translate(57.519531 0.5875)"/>
      <use xlink:href="#DejaVuSans-6e" transform="translate(85.302734 0.5875)"/>
      <use xlink:href="#DejaVuSans-69" transform="translate(148.681641 0.5875)"/>
      <use xlink:href="#DejaVuSans-74" transform="translate(176.464844 0.5875)"/>
      <use xlink:href="#DejaVuSans-65" transform="translate(215.673828 0.5875)"/>
      <use xlink:href="#DejaVuSans-20" transform="translate(277.197266 0.5875)"/>
      <use xlink:href="#DejaVuSans-41" transform="translate(308.984375 0.5875)"/>
      <use xlink:href="#DejaVuSans-70" transform="translate(377.392578 0.5875)"/>
      <use xlink:href="#DejaVuSans-70" transform="translate(440.869141 0.5875)"/>
      <use xlink:href="#DejaVuSans-72" transform="translate(504.345703 0.5875)"/>
      <use xlink:href="#DejaVuSans-6f" transform="translate(545.458984 0.5875)"/>
      <use xlink:href="#DejaVuSans-78" transform="translate(606.640625 0.5875)"/>
      <use xlink:href="#DejaVuSans-69" transform="translate(665.820312 0.5875)"/>
      <use xlink:href="#DejaVuSans-6d" transform="translate(693.603516 0.5875)"/>
      <use xlink:href="#DejaVuSans-61" transform="translate(791.015625 0.5875)"/>
      <use xlink:href="#DejaVuSans-74" transform="translate(852.294922 0.5875)"/>
      <use xlink:href="#DejaVuSans-69" transform="translate(891.503906 0.5875)"/>
      <use xlink:href="#DejaVuSans-6f" transform="translate(919.287109 0.5875)"/>
      <use xlink:href="#DejaVuSans-6e" transform="translate(980.46875 0.5875)"/>
      <use xlink:href="#DejaVuSans-20" transform="translate(1043.847656 0.5875)"/>
      <use xlink:href="#DejaVuSans-66" transform="translate(1075.634766 0.5875)"/>
      <use xlink:href="#DejaVuSans-6f" transform="translate(1110.839844 0.5875)"/>
      <use xlink:href="#DejaVuSans-72" transform="translate(1172.021484 0.5875)"/>
      <use xlink:href="#DejaVuSans-20" transform="translate(1213.134766 0.5875)"/>
      <use xlink:href="#DejaVuSans-Oblique-68" transform="translate(1244.921875 0.5875)"/>
      <use xlink:href="#DejaVuSans-3d" transform="translate(1327.783203 0.5875)"/>
      <use xlink:href="#DejaVuSans-Oblique-3c0" transform="translate(1432.054688 45.71875) scale(0.7)"/>
      <use xlink:href="#DejaVuSans-34" transform="translate(1431.054688 -37.9) scale(0.7)"/>
      <path d="M 1431.054688 19.384375 
L 1431.054688 25.634375 
L 1475.59082 25.634375 
L 1475.59082 19.384375 
L 1431.054688 19.384375 
z
"/>
     </g>
    </g>
    <g id="line2d_35">
     <path d="M 224.42 273.584 
L 234.42 273.584 
L 244.42 273.584 
" style="fill: none; stroke-dasharray: 5.55,2.4; stroke-dashoffset: 0; stroke: #2ca02c; stroke-width: 1.5"/>
    </g>
    <g id="text_17">
     <!-- Finite Approximation for $h = \frac{\pi}{5}$ -->
     <g transform="translate(252.42 277.084) scale(0.1 -0.1)">
      <use xlink:href="#DejaVuSans-46" transform="translate(0 0.5875)"/>
      <use xlink:href="#DejaVuSans-69" transform="translate(57.519531 0.5875)"/>
      <use xlink:href="#DejaVuSans-6e" transform="translate(85.302734 0.5875)"/>
      <use xlink:href="#DejaVuSans-69" transform="translate(148.681641 0.5875)"/>
      <use xlink:href="#DejaVuSans-74" transform="translate(176.464844 0.5875)"/>
      <use xlink:href="#DejaVuSans-65" transform="translate(215.673828 0.5875)"/>
      <use xlink:href="#DejaVuSans-20" transform="translate(277.197266 0.5875)"/>
      <use xlink:href="#DejaVuSans-41" transform="translate(308.984375 0.5875)"/>
      <use xlink:href="#DejaVuSans-70" transform="translate(377.392578 0.5875)"/>
      <use xlink:href="#DejaVuSans-70" transform="translate(440.869141 0.5875)"/>
      <use xlink:href="#DejaVuSans-72" transform="translate(504.345703 0.5875)"/>
      <use xlink:href="#DejaVuSans-6f" transform="translate(545.458984 0.5875)"/>
      <use xlink:href="#DejaVuSans-78" transform="translate(606.640625 0.5875)"/>
      <use xlink:href="#DejaVuSans-69" transform="translate(665.820312 0.5875)"/>
      <use xlink:href="#DejaVuSans-6d" transform="translate(693.603516 0.5875)"/>
      <use xlink:href="#DejaVuSans-61" transform="translate(791.015625 0.5875)"/>
      <use xlink:href="#DejaVuSans-74" transform="translate(852.294922 0.5875)"/>
      <use xlink:href="#DejaVuSans-69" transform="translate(891.503906 0.5875)"/>
      <use xlink:href="#DejaVuSans-6f" transform="translate(919.287109 0.5875)"/>
      <use xlink:href="#DejaVuSans-6e" transform="translate(980.46875 0.5875)"/>
      <use xlink:href="#DejaVuSans-20" transform="translate(1043.847656 0.5875)"/>
      <use xlink:href="#DejaVuSans-66" transform="translate(1075.634766 0.5875)"/>
      <use xlink:href="#DejaVuSans-6f" transform="translate(1110.839844 0.5875)"/>
      <use xlink:href="#DejaVuSans-72" transform="translate(1172.021484 0.5875)"/>
      <use xlink:href="#DejaVuSans-20" transform="translate(1213.134766 0.5875)"/>
      <use xlink:href="#DejaVuSans-Oblique-68" transform="translate(1244.921875 0.5875)"/>
      <use xlink:href="#DejaVuSans-3d" transform="translate(1327.783203 0.5875)"/>
      <use xlink:href="#DejaVuSans-Oblique-3c0" transform="translate(1432.054688 45.71875) scale(0.7)"/>
      <use xlink:href="#DejaVuSans-35" transform="translate(1431.054688 -37.9) scale(0.7)"/>
      <path d="M 1431.054688 19.384375 
L 1431.054688 25.634375 
L 1475.59082 25.634375 
L 1475.59082 19.384375 
L 1431.054688 19.384375 
z
"/>
     </g>
    </g>
    <g id="line2d_36">
     <path d="M 224.42 290.984 
L 234.42 290.984 
L 244.42 290.984 
" style="fill: none; stroke-dasharray: 5.55,2.4; stroke-dashoffset: 0; stroke: #d62728; stroke-width: 1.5"/>
    </g>
    <g id="text_18">
     <!-- Finite Approximation for $h = \frac{\pi}{10}$ -->
     <g transform="translate(252.42 294.484) scale(0.1 -0.1)">
      <use xlink:href="#DejaVuSans-46" transform="translate(0 0.5875)"/>
      <use xlink:href="#DejaVuSans-69" transform="translate(57.519531 0.5875)"/>
      <use xlink:href="#DejaVuSans-6e" transform="translate(85.302734 0.5875)"/>
      <use xlink:href="#DejaVuSans-69" transform="translate(148.681641 0.5875)"/>
      <use xlink:href="#DejaVuSans-74" transform="translate(176.464844 0.5875)"/>
      <use xlink:href="#DejaVuSans-65" transform="translate(215.673828 0.5875)"/>
      <use xlink:href="#DejaVuSans-20" transform="translate(277.197266 0.5875)"/>
      <use xlink:href="#DejaVuSans-41" transform="translate(308.984375 0.5875)"/>
      <use xlink:href="#DejaVuSans-70" transform="translate(377.392578 0.5875)"/>
      <use xlink:href="#DejaVuSans-70" transform="translate(440.869141 0.5875)"/>
      <use xlink:href="#DejaVuSans-72" transform="translate(504.345703 0.5875)"/>
      <use xlink:href="#DejaVuSans-6f" transform="translate(545.458984 0.5875)"/>
      <use xlink:href="#DejaVuSans-78" transform="translate(606.640625 0.5875)"/>
      <use xlink:href="#DejaVuSans-69" transform="translate(665.820312 0.5875)"/>
      <use xlink:href="#DejaVuSans-6d" transform="translate(693.603516 0.5875)"/>
      <use xlink:href="#DejaVuSans-61" transform="translate(791.015625 0.5875)"/>
      <use xlink:href="#DejaVuSans-74" transform="translate(852.294922 0.5875)"/>
      <use xlink:href="#DejaVuSans-69" transform="translate(891.503906 0.5875)"/>
      <use xlink:href="#DejaVuSans-6f" transform="translate(919.287109 0.5875)"/>
      <use xlink:href="#DejaVuSans-6e" transform="translate(980.46875 0.5875)"/>
      <use xlink:href="#DejaVuSans-20" transform="translate(1043.847656 0.5875)"/>
      <use xlink:href="#DejaVuSans-66" transform="translate(1075.634766 0.5875)"/>
      <use xlink:href="#DejaVuSans-6f" transform="translate(1110.839844 0.5875)"/>
      <use xlink:href="#DejaVuSans-72" transform="translate(1172.021484 0.5875)"/>
      <use xlink:href="#DejaVuSans-20" transform="translate(1213.134766 0.5875)"/>
      <use xlink:href="#DejaVuSans-Oblique-68" transform="translate(1244.921875 0.5875)"/>
      <use xlink:href="#DejaVuSans-3d" transform="translate(1327.783203 0.5875)"/>
      <use xlink:href="#DejaVuSans-Oblique-3c0" transform="translate(1454.054688 45.71875) scale(0.7)"/>
      <use xlink:href="#DejaVuSans-31" transform="translate(1431.054688 -38.81875) scale(0.7)"/>
      <use xlink:href="#DejaVuSans-30" transform="translate(1475.59082 -38.81875) scale(0.7)"/>
      <path d="M 1431.054688 19.384375 
L 1431.054688 25.634375 
L 1520.126953 25.634375 
L 1520.126953 19.384375 
L 1431.054688 19.384375 
z
"/>
     </g>
    </g>
   </g>
  </g>
 </g>
 <defs>
  <clipPath id="p72aac87835">
   <rect x="57.6" y="41.472" width="357.12" height="266.112"/>
  </clipPath>
 </defs>
</svg>
