<?xml version="1.0" encoding="utf-8" standalone="no"?>
<!DOCTYPE svg PUBLIC "-//W3C//DTD SVG 1.1//EN"
  "http://www.w3.org/Graphics/SVG/1.1/DTD/svg11.dtd">
<svg xmlns:xlink="http://www.w3.org/1999/xlink" width="720pt" height="432pt" viewBox="0 0 720 432" xmlns="http://www.w3.org/2000/svg" version="1.1">
 <metadata>
  <rdf:RDF xmlns:dc="http://purl.org/dc/elements/1.1/" xmlns:cc="http://creativecommons.org/ns#" xmlns:rdf="http://www.w3.org/1999/02/22-rdf-syntax-ns#">
   <cc:Work>
    <dc:type rdf:resource="http://purl.org/dc/dcmitype/StillImage"/>
    <dc:date>1980-01-01T00:00:00+00:00</dc:date>
    <dc:format>image/svg+xml</dc:format>
    <dc:creator>
     <cc:Agent>
      <dc:title>Matplotlib v3.9.2, https://matplotlib.org/</dc:title>
     </cc:Agent>
    </dc:creator>
   </cc:Work>
  </rdf:RDF>
 </metadata>
 <defs>
  <style type="text/css">*{stroke-linejoin: round; stroke-linecap: butt}</style>
 </defs>
 <g id="figure_1">
  <g id="patch_1">
   <path d="M 0 432 
L 720 432 
L 720 0 
L 0 0 
z
" style="fill: #ffffff"/>
  </g>
  <g id="axes_1">
   <g id="patch_2">
    <path d="M 90 384.48 
L 648 384.48 
L 648 51.84 
L 90 51.84 
z
" style="fill: #ffffff"/>
   </g>
   <g id="matplotlib.axis_1">
    <g id="xtick_1">
     <g id="line2d_1">
      <defs>
       <path id="m705d77f25c" d="M 0 0 
L 0 3.5 
" style="stroke: #000000; stroke-width: 0.8"/>
      </defs>
      <g>
       <use xlink:href="#m705d77f25c" x="90" y="384.48" style="stroke: #000000; stroke-width: 0.8"/>
      </g>
     </g>
     <g id="text_1">
      <!-- $\mathdefault{10^{-19}}$ -->
      <g transform="translate(76.05 399.078438) scale(0.1 -0.1)">
       <defs>
        <path id="DejaVuSans-31" d="M 794 531 
L 1825 531 
L 1825 4091 
L 703 3866 
L 703 4441 
L 1819 4666 
L 2450 4666 
L 2450 531 
L 3481 531 
L 3481 0 
L 794 0 
L 794 531 
z
" transform="scale(0.015625)"/>
        <path id="DejaVuSans-30" d="M 2034 4250 
Q 1547 4250 1301 3770 
Q 1056 3291 1056 2328 
Q 1056 1369 1301 889 
Q 1547 409 2034 409 
Q 2525 409 2770 889 
Q 3016 1369 3016 2328 
Q 3016 3291 2770 3770 
Q 2525 4250 2034 4250 
z
M 2034 4750 
Q 2819 4750 3233 4129 
Q 3647 3509 3647 2328 
Q 3647 1150 3233 529 
Q 2819 -91 2034 -91 
Q 1250 -91 836 529 
Q 422 1150 422 2328 
Q 422 3509 836 4129 
Q 1250 4750 2034 4750 
z
" transform="scale(0.015625)"/>
        <path id="DejaVuSans-2212" d="M 678 2272 
L 4684 2272 
L 4684 1741 
L 678 1741 
L 678 2272 
z
" transform="scale(0.015625)"/>
        <path id="DejaVuSans-39" d="M 703 97 
L 703 672 
Q 941 559 1184 500 
Q 1428 441 1663 441 
Q 2288 441 2617 861 
Q 2947 1281 2994 2138 
Q 2813 1869 2534 1725 
Q 2256 1581 1919 1581 
Q 1219 1581 811 2004 
Q 403 2428 403 3163 
Q 403 3881 828 4315 
Q 1253 4750 1959 4750 
Q 2769 4750 3195 4129 
Q 3622 3509 3622 2328 
Q 3622 1225 3098 567 
Q 2575 -91 1691 -91 
Q 1453 -91 1209 -44 
Q 966 3 703 97 
z
M 1959 2075 
Q 2384 2075 2632 2365 
Q 2881 2656 2881 3163 
Q 2881 3666 2632 3958 
Q 2384 4250 1959 4250 
Q 1534 4250 1286 3958 
Q 1038 3666 1038 3163 
Q 1038 2656 1286 2365 
Q 1534 2075 1959 2075 
z
" transform="scale(0.015625)"/>
       </defs>
       <use xlink:href="#DejaVuSans-31" transform="translate(0 0.765625)"/>
       <use xlink:href="#DejaVuSans-30" transform="translate(63.623047 0.765625)"/>
       <use xlink:href="#DejaVuSans-2212" transform="translate(128.203125 39.046875) scale(0.7)"/>
       <use xlink:href="#DejaVuSans-31" transform="translate(186.855469 39.046875) scale(0.7)"/>
       <use xlink:href="#DejaVuSans-39" transform="translate(231.391602 39.046875) scale(0.7)"/>
      </g>
     </g>
    </g>
    <g id="xtick_2">
     <g id="line2d_2">
      <g>
       <use xlink:href="#m705d77f25c" x="166.090909" y="384.48" style="stroke: #000000; stroke-width: 0.8"/>
      </g>
     </g>
     <g id="text_2">
      <!-- $\mathdefault{10^{-16}}$ -->
      <g transform="translate(152.140909 399.078438) scale(0.1 -0.1)">
       <defs>
        <path id="DejaVuSans-36" d="M 2113 2584 
Q 1688 2584 1439 2293 
Q 1191 2003 1191 1497 
Q 1191 994 1439 701 
Q 1688 409 2113 409 
Q 2538 409 2786 701 
Q 3034 994 3034 1497 
Q 3034 2003 2786 2293 
Q 2538 2584 2113 2584 
z
M 3366 4563 
L 3366 3988 
Q 3128 4100 2886 4159 
Q 2644 4219 2406 4219 
Q 1781 4219 1451 3797 
Q 1122 3375 1075 2522 
Q 1259 2794 1537 2939 
Q 1816 3084 2150 3084 
Q 2853 3084 3261 2657 
Q 3669 2231 3669 1497 
Q 3669 778 3244 343 
Q 2819 -91 2113 -91 
Q 1303 -91 875 529 
Q 447 1150 447 2328 
Q 447 3434 972 4092 
Q 1497 4750 2381 4750 
Q 2619 4750 2861 4703 
Q 3103 4656 3366 4563 
z
" transform="scale(0.015625)"/>
       </defs>
       <use xlink:href="#DejaVuSans-31" transform="translate(0 0.765625)"/>
       <use xlink:href="#DejaVuSans-30" transform="translate(63.623047 0.765625)"/>
       <use xlink:href="#DejaVuSans-2212" transform="translate(128.203125 39.046875) scale(0.7)"/>
       <use xlink:href="#DejaVuSans-31" transform="translate(186.855469 39.046875) scale(0.7)"/>
       <use xlink:href="#DejaVuSans-36" transform="translate(231.391602 39.046875) scale(0.7)"/>
      </g>
     </g>
    </g>
    <g id="xtick_3">
     <g id="line2d_3">
      <g>
       <use xlink:href="#m705d77f25c" x="242.181818" y="384.48" style="stroke: #000000; stroke-width: 0.8"/>
      </g>
     </g>
     <g id="text_3">
      <!-- $\mathdefault{10^{-13}}$ -->
      <g transform="translate(228.231818 399.078438) scale(0.1 -0.1)">
       <defs>
        <path id="DejaVuSans-33" d="M 2597 2516 
Q 3050 2419 3304 2112 
Q 3559 1806 3559 1356 
Q 3559 666 3084 287 
Q 2609 -91 1734 -91 
Q 1441 -91 1130 -33 
Q 819 25 488 141 
L 488 750 
Q 750 597 1062 519 
Q 1375 441 1716 441 
Q 2309 441 2620 675 
Q 2931 909 2931 1356 
Q 2931 1769 2642 2001 
Q 2353 2234 1838 2234 
L 1294 2234 
L 1294 2753 
L 1863 2753 
Q 2328 2753 2575 2939 
Q 2822 3125 2822 3475 
Q 2822 3834 2567 4026 
Q 2313 4219 1838 4219 
Q 1578 4219 1281 4162 
Q 984 4106 628 3988 
L 628 4550 
Q 988 4650 1302 4700 
Q 1616 4750 1894 4750 
Q 2613 4750 3031 4423 
Q 3450 4097 3450 3541 
Q 3450 3153 3228 2886 
Q 3006 2619 2597 2516 
z
" transform="scale(0.015625)"/>
       </defs>
       <use xlink:href="#DejaVuSans-31" transform="translate(0 0.765625)"/>
       <use xlink:href="#DejaVuSans-30" transform="translate(63.623047 0.765625)"/>
       <use xlink:href="#DejaVuSans-2212" transform="translate(128.203125 39.046875) scale(0.7)"/>
       <use xlink:href="#DejaVuSans-31" transform="translate(186.855469 39.046875) scale(0.7)"/>
       <use xlink:href="#DejaVuSans-33" transform="translate(231.391602 39.046875) scale(0.7)"/>
      </g>
     </g>
    </g>
    <g id="xtick_4">
     <g id="line2d_4">
      <g>
       <use xlink:href="#m705d77f25c" x="318.272727" y="384.48" style="stroke: #000000; stroke-width: 0.8"/>
      </g>
     </g>
     <g id="text_4">
      <!-- $\mathdefault{10^{-10}}$ -->
      <g transform="translate(304.322727 399.078438) scale(0.1 -0.1)">
       <use xlink:href="#DejaVuSans-31" transform="translate(0 0.765625)"/>
       <use xlink:href="#DejaVuSans-30" transform="translate(63.623047 0.765625)"/>
       <use xlink:href="#DejaVuSans-2212" transform="translate(128.203125 39.046875) scale(0.7)"/>
       <use xlink:href="#DejaVuSans-31" transform="translate(186.855469 39.046875) scale(0.7)"/>
       <use xlink:href="#DejaVuSans-30" transform="translate(231.391602 39.046875) scale(0.7)"/>
      </g>
     </g>
    </g>
    <g id="xtick_5">
     <g id="line2d_5">
      <g>
       <use xlink:href="#m705d77f25c" x="394.363636" y="384.48" style="stroke: #000000; stroke-width: 0.8"/>
      </g>
     </g>
     <g id="text_5">
      <!-- $\mathdefault{10^{-7}}$ -->
      <g transform="translate(382.613636 399.078438) scale(0.1 -0.1)">
       <defs>
        <path id="DejaVuSans-37" d="M 525 4666 
L 3525 4666 
L 3525 4397 
L 1831 0 
L 1172 0 
L 2766 4134 
L 525 4134 
L 525 4666 
z
" transform="scale(0.015625)"/>
       </defs>
       <use xlink:href="#DejaVuSans-31" transform="translate(0 0.684375)"/>
       <use xlink:href="#DejaVuSans-30" transform="translate(63.623047 0.684375)"/>
       <use xlink:href="#DejaVuSans-2212" transform="translate(128.203125 38.965625) scale(0.7)"/>
       <use xlink:href="#DejaVuSans-37" transform="translate(186.855469 38.965625) scale(0.7)"/>
      </g>
     </g>
    </g>
    <g id="xtick_6">
     <g id="line2d_6">
      <g>
       <use xlink:href="#m705d77f25c" x="470.454545" y="384.48" style="stroke: #000000; stroke-width: 0.8"/>
      </g>
     </g>
     <g id="text_6">
      <!-- $\mathdefault{10^{-4}}$ -->
      <g transform="translate(458.704545 399.078438) scale(0.1 -0.1)">
       <defs>
        <path id="DejaVuSans-34" d="M 2419 4116 
L 825 1625 
L 2419 1625 
L 2419 4116 
z
M 2253 4666 
L 3047 4666 
L 3047 1625 
L 3713 1625 
L 3713 1100 
L 3047 1100 
L 3047 0 
L 2419 0 
L 2419 1100 
L 313 1100 
L 313 1709 
L 2253 4666 
z
" transform="scale(0.015625)"/>
       </defs>
       <use xlink:href="#DejaVuSans-31" transform="translate(0 0.684375)"/>
       <use xlink:href="#DejaVuSans-30" transform="translate(63.623047 0.684375)"/>
       <use xlink:href="#DejaVuSans-2212" transform="translate(128.203125 38.965625) scale(0.7)"/>
       <use xlink:href="#DejaVuSans-34" transform="translate(186.855469 38.965625) scale(0.7)"/>
      </g>
     </g>
    </g>
    <g id="xtick_7">
     <g id="line2d_7">
      <g>
       <use xlink:href="#m705d77f25c" x="546.545455" y="384.48" style="stroke: #000000; stroke-width: 0.8"/>
      </g>
     </g>
     <g id="text_7">
      <!-- $\mathdefault{10^{-1}}$ -->
      <g transform="translate(534.795455 399.078438) scale(0.1 -0.1)">
       <use xlink:href="#DejaVuSans-31" transform="translate(0 0.684375)"/>
       <use xlink:href="#DejaVuSans-30" transform="translate(63.623047 0.684375)"/>
       <use xlink:href="#DejaVuSans-2212" transform="translate(128.203125 38.965625) scale(0.7)"/>
       <use xlink:href="#DejaVuSans-31" transform="translate(186.855469 38.965625) scale(0.7)"/>
      </g>
     </g>
    </g>
    <g id="xtick_8">
     <g id="line2d_8">
      <g>
       <use xlink:href="#m705d77f25c" x="622.636364" y="384.48" style="stroke: #000000; stroke-width: 0.8"/>
      </g>
     </g>
     <g id="text_8">
      <!-- $\mathdefault{10^{2}}$ -->
      <g transform="translate(613.836364 399.078438) scale(0.1 -0.1)">
       <defs>
        <path id="DejaVuSans-32" d="M 1228 531 
L 3431 531 
L 3431 0 
L 469 0 
L 469 531 
Q 828 903 1448 1529 
Q 2069 2156 2228 2338 
Q 2531 2678 2651 2914 
Q 2772 3150 2772 3378 
Q 2772 3750 2511 3984 
Q 2250 4219 1831 4219 
Q 1534 4219 1204 4116 
Q 875 4013 500 3803 
L 500 4441 
Q 881 4594 1212 4672 
Q 1544 4750 1819 4750 
Q 2544 4750 2975 4387 
Q 3406 4025 3406 3419 
Q 3406 3131 3298 2873 
Q 3191 2616 2906 2266 
Q 2828 2175 2409 1742 
Q 1991 1309 1228 531 
z
" transform="scale(0.015625)"/>
       </defs>
       <use xlink:href="#DejaVuSans-31" transform="translate(0 0.765625)"/>
       <use xlink:href="#DejaVuSans-30" transform="translate(63.623047 0.765625)"/>
       <use xlink:href="#DejaVuSans-32" transform="translate(128.203125 39.046875) scale(0.7)"/>
      </g>
     </g>
    </g>
    <g id="text_9">
     <!-- $h$ -->
     <g transform="translate(365.8 412.756563) scale(0.1 -0.1)">
      <defs>
       <path id="DejaVuSans-Oblique-68" d="M 3566 2113 
L 3156 0 
L 2578 0 
L 2988 2091 
Q 3016 2238 3031 2350 
Q 3047 2463 3047 2528 
Q 3047 2791 2881 2937 
Q 2716 3084 2419 3084 
Q 1956 3084 1617 2771 
Q 1278 2459 1178 1941 
L 800 0 
L 225 0 
L 1172 4863 
L 1747 4863 
L 1375 2950 
Q 1594 3244 1934 3414 
Q 2275 3584 2650 3584 
Q 3113 3584 3367 3334 
Q 3622 3084 3622 2631 
Q 3622 2519 3608 2391 
Q 3594 2263 3566 2113 
z
" transform="scale(0.015625)"/>
      </defs>
      <use xlink:href="#DejaVuSans-Oblique-68" transform="translate(0 0.015625)"/>
     </g>
    </g>
   </g>
   <g id="matplotlib.axis_2">
    <g id="ytick_1">
     <g id="line2d_9">
      <defs>
       <path id="mb3124b3d6d" d="M 0 0 
L -3.5 0 
" style="stroke: #000000; stroke-width: 0.8"/>
      </defs>
      <g>
       <use xlink:href="#mb3124b3d6d" x="90" y="351.842024" style="stroke: #000000; stroke-width: 0.8"/>
      </g>
     </g>
     <g id="text_10">
      <!-- $\mathdefault{10^{-11}}$ -->
      <g transform="translate(55.1 355.641242) scale(0.1 -0.1)">
       <use xlink:href="#DejaVuSans-31" transform="translate(0 0.684375)"/>
       <use xlink:href="#DejaVuSans-30" transform="translate(63.623047 0.684375)"/>
       <use xlink:href="#DejaVuSans-2212" transform="translate(128.203125 38.965625) scale(0.7)"/>
       <use xlink:href="#DejaVuSans-31" transform="translate(186.855469 38.965625) scale(0.7)"/>
       <use xlink:href="#DejaVuSans-31" transform="translate(231.391602 38.965625) scale(0.7)"/>
      </g>
     </g>
    </g>
    <g id="ytick_2">
     <g id="line2d_10">
      <g>
       <use xlink:href="#mb3124b3d6d" x="90" y="309.984125" style="stroke: #000000; stroke-width: 0.8"/>
      </g>
     </g>
     <g id="text_11">
      <!-- $\mathdefault{10^{-7}}$ -->
      <g transform="translate(59.5 313.783344) scale(0.1 -0.1)">
       <use xlink:href="#DejaVuSans-31" transform="translate(0 0.684375)"/>
       <use xlink:href="#DejaVuSans-30" transform="translate(63.623047 0.684375)"/>
       <use xlink:href="#DejaVuSans-2212" transform="translate(128.203125 38.965625) scale(0.7)"/>
       <use xlink:href="#DejaVuSans-37" transform="translate(186.855469 38.965625) scale(0.7)"/>
      </g>
     </g>
    </g>
    <g id="ytick_3">
     <g id="line2d_11">
      <g>
       <use xlink:href="#mb3124b3d6d" x="90" y="268.126227" style="stroke: #000000; stroke-width: 0.8"/>
      </g>
     </g>
     <g id="text_12">
      <!-- $\mathdefault{10^{-3}}$ -->
      <g transform="translate(59.5 271.925446) scale(0.1 -0.1)">
       <use xlink:href="#DejaVuSans-31" transform="translate(0 0.765625)"/>
       <use xlink:href="#DejaVuSans-30" transform="translate(63.623047 0.765625)"/>
       <use xlink:href="#DejaVuSans-2212" transform="translate(128.203125 39.046875) scale(0.7)"/>
       <use xlink:href="#DejaVuSans-33" transform="translate(186.855469 39.046875) scale(0.7)"/>
      </g>
     </g>
    </g>
    <g id="ytick_4">
     <g id="line2d_12">
      <g>
       <use xlink:href="#mb3124b3d6d" x="90" y="226.268329" style="stroke: #000000; stroke-width: 0.8"/>
      </g>
     </g>
     <g id="text_13">
      <!-- $\mathdefault{10^{1}}$ -->
      <g transform="translate(65.4 230.067547) scale(0.1 -0.1)">
       <use xlink:href="#DejaVuSans-31" transform="translate(0 0.684375)"/>
       <use xlink:href="#DejaVuSans-30" transform="translate(63.623047 0.684375)"/>
       <use xlink:href="#DejaVuSans-31" transform="translate(128.203125 38.965625) scale(0.7)"/>
      </g>
     </g>
    </g>
    <g id="ytick_5">
     <g id="line2d_13">
      <g>
       <use xlink:href="#mb3124b3d6d" x="90" y="184.41043" style="stroke: #000000; stroke-width: 0.8"/>
      </g>
     </g>
     <g id="text_14">
      <!-- $\mathdefault{10^{5}}$ -->
      <g transform="translate(65.4 188.209649) scale(0.1 -0.1)">
       <defs>
        <path id="DejaVuSans-35" d="M 691 4666 
L 3169 4666 
L 3169 4134 
L 1269 4134 
L 1269 2991 
Q 1406 3038 1543 3061 
Q 1681 3084 1819 3084 
Q 2600 3084 3056 2656 
Q 3513 2228 3513 1497 
Q 3513 744 3044 326 
Q 2575 -91 1722 -91 
Q 1428 -91 1123 -41 
Q 819 9 494 109 
L 494 744 
Q 775 591 1075 516 
Q 1375 441 1709 441 
Q 2250 441 2565 725 
Q 2881 1009 2881 1497 
Q 2881 1984 2565 2268 
Q 2250 2553 1709 2553 
Q 1456 2553 1204 2497 
Q 953 2441 691 2322 
L 691 4666 
z
" transform="scale(0.015625)"/>
       </defs>
       <use xlink:href="#DejaVuSans-31" transform="translate(0 0.684375)"/>
       <use xlink:href="#DejaVuSans-30" transform="translate(63.623047 0.684375)"/>
       <use xlink:href="#DejaVuSans-35" transform="translate(128.203125 38.965625) scale(0.7)"/>
      </g>
     </g>
    </g>
    <g id="ytick_6">
     <g id="line2d_14">
      <g>
       <use xlink:href="#mb3124b3d6d" x="90" y="142.552532" style="stroke: #000000; stroke-width: 0.8"/>
      </g>
     </g>
     <g id="text_15">
      <!-- $\mathdefault{10^{9}}$ -->
      <g transform="translate(65.4 146.351751) scale(0.1 -0.1)">
       <use xlink:href="#DejaVuSans-31" transform="translate(0 0.765625)"/>
       <use xlink:href="#DejaVuSans-30" transform="translate(63.623047 0.765625)"/>
       <use xlink:href="#DejaVuSans-39" transform="translate(128.203125 39.046875) scale(0.7)"/>
      </g>
     </g>
    </g>
    <g id="ytick_7">
     <g id="line2d_15">
      <g>
       <use xlink:href="#mb3124b3d6d" x="90" y="100.694634" style="stroke: #000000; stroke-width: 0.8"/>
      </g>
     </g>
     <g id="text_16">
      <!-- $\mathdefault{10^{13}}$ -->
      <g transform="translate(60.9 104.493852) scale(0.1 -0.1)">
       <use xlink:href="#DejaVuSans-31" transform="translate(0 0.765625)"/>
       <use xlink:href="#DejaVuSans-30" transform="translate(63.623047 0.765625)"/>
       <use xlink:href="#DejaVuSans-31" transform="translate(128.203125 39.046875) scale(0.7)"/>
       <use xlink:href="#DejaVuSans-33" transform="translate(172.739258 39.046875) scale(0.7)"/>
      </g>
     </g>
    </g>
    <g id="ytick_8">
     <g id="line2d_16">
      <g>
       <use xlink:href="#mb3124b3d6d" x="90" y="58.836735" style="stroke: #000000; stroke-width: 0.8"/>
      </g>
     </g>
     <g id="text_17">
      <!-- $\mathdefault{10^{17}}$ -->
      <g transform="translate(60.9 62.635954) scale(0.1 -0.1)">
       <use xlink:href="#DejaVuSans-31" transform="translate(0 0.684375)"/>
       <use xlink:href="#DejaVuSans-30" transform="translate(63.623047 0.684375)"/>
       <use xlink:href="#DejaVuSans-31" transform="translate(128.203125 38.965625) scale(0.7)"/>
       <use xlink:href="#DejaVuSans-37" transform="translate(172.739258 38.965625) scale(0.7)"/>
      </g>
     </g>
    </g>
    <g id="text_18">
     <!-- Error -->
     <g transform="translate(49.020312 230.345156) rotate(-90) scale(0.1 -0.1)">
      <defs>
       <path id="DejaVuSans-45" d="M 628 4666 
L 3578 4666 
L 3578 4134 
L 1259 4134 
L 1259 2753 
L 3481 2753 
L 3481 2222 
L 1259 2222 
L 1259 531 
L 3634 531 
L 3634 0 
L 628 0 
L 628 4666 
z
" transform="scale(0.015625)"/>
       <path id="DejaVuSans-72" d="M 2631 2963 
Q 2534 3019 2420 3045 
Q 2306 3072 2169 3072 
Q 1681 3072 1420 2755 
Q 1159 2438 1159 1844 
L 1159 0 
L 581 0 
L 581 3500 
L 1159 3500 
L 1159 2956 
Q 1341 3275 1631 3429 
Q 1922 3584 2338 3584 
Q 2397 3584 2469 3576 
Q 2541 3569 2628 3553 
L 2631 2963 
z
" transform="scale(0.015625)"/>
       <path id="DejaVuSans-6f" d="M 1959 3097 
Q 1497 3097 1228 2736 
Q 959 2375 959 1747 
Q 959 1119 1226 758 
Q 1494 397 1959 397 
Q 2419 397 2687 759 
Q 2956 1122 2956 1747 
Q 2956 2369 2687 2733 
Q 2419 3097 1959 3097 
z
M 1959 3584 
Q 2709 3584 3137 3096 
Q 3566 2609 3566 1747 
Q 3566 888 3137 398 
Q 2709 -91 1959 -91 
Q 1206 -91 779 398 
Q 353 888 353 1747 
Q 353 2609 779 3096 
Q 1206 3584 1959 3584 
z
" transform="scale(0.015625)"/>
      </defs>
      <use xlink:href="#DejaVuSans-45"/>
      <use xlink:href="#DejaVuSans-72" x="63.183594"/>
      <use xlink:href="#DejaVuSans-72" x="102.546875"/>
      <use xlink:href="#DejaVuSans-6f" x="141.410156"/>
      <use xlink:href="#DejaVuSans-72" x="202.591797"/>
     </g>
    </g>
   </g>
   <g id="line2d_17">
    <path d="M 115.363636 241.935215 
L 174.773956 241.935215 
L 175.789517 242.527477 
L 178.328419 244.409706 
L 178.8362 244.834207 
L 182.390663 244.837642 
L 182.898444 243.676428 
L 184.929566 245.175645 
L 186.960688 246.743817 
L 187.976249 246.822489 
L 190.515152 246.726594 
L 192.546274 248.565025 
L 193.054054 249.099395 
L 193.561835 249.4476 
L 194.577396 248.882119 
L 195.085176 249.398536 
L 196.100737 250.918278 
L 196.608518 251.140092 
L 197.116298 252.577234 
L 197.624079 253.565587 
L 198.131859 253.33475 
L 198.63964 252.276573 
L 199.14742 251.808326 
L 199.655201 251.740335 
L 200.162981 251.188469 
L 200.670762 251.939314 
L 201.178542 252.41347 
L 202.194103 251.61843 
L 202.701884 252.068168 
L 203.209664 253.011574 
L 203.717445 252.695638 
L 204.225225 253.530411 
L 204.733006 254.101594 
L 205.240786 255.775002 
L 205.748567 254.965169 
L 206.256347 254.616959 
L 206.764128 254.024553 
L 207.271908 254.777976 
L 207.779689 253.920957 
L 208.287469 254.703459 
L 209.30303 255.601953 
L 209.810811 258.238868 
L 210.318591 256.433534 
L 210.826372 255.624596 
L 211.334152 255.990024 
L 212.349713 256.103434 
L 212.857494 258.322162 
L 213.365274 257.917514 
L 214.380835 256.518555 
L 214.888616 257.396638 
L 215.396396 259.214265 
L 215.904177 258.741302 
L 216.411957 258.009394 
L 216.919738 258.649463 
L 217.427518 260.713931 
L 217.935299 258.577115 
L 218.443079 258.281155 
L 218.95086 259.931565 
L 219.45864 260.101225 
L 219.966421 258.796784 
L 220.474201 260.501805 
L 220.981982 260.186542 
L 221.489762 260.378982 
L 221.997543 263.791104 
L 222.505324 260.304069 
L 223.013104 261.500292 
L 223.520885 261.374507 
L 224.028665 262.335334 
L 224.536446 262.214147 
L 225.044226 262.453334 
L 225.552007 261.661689 
L 226.059787 265.910575 
L 226.567568 262.687086 
L 227.075348 262.242432 
L 227.583129 264.940555 
L 228.090909 263.3627 
L 228.59869 263.159759 
L 229.10647 263.873197 
L 229.614251 266.495125 
L 230.122031 264.592422 
L 230.629812 263.879195 
L 231.137592 264.750918 
L 231.645373 264.38998 
L 232.153153 265.024336 
L 232.660934 264.848826 
L 233.168714 265.80558 
L 233.676495 268.553005 
L 234.184275 265.229868 
L 234.692056 265.096051 
L 235.199836 266.688878 
L 235.707617 266.123265 
L 236.215397 266.169109 
L 236.723178 266.74666 
L 237.230958 268.197536 
L 237.738739 266.733711 
L 238.246519 267.165719 
L 238.7543 266.930154 
L 239.26208 268.349587 
L 239.769861 267.796369 
L 240.277641 268.589286 
L 240.785422 268.24785 
L 241.293202 270.472735 
L 241.800983 268.853927 
L 242.308763 271.300292 
L 242.816544 269.230169 
L 243.324324 268.958937 
L 243.832105 269.571052 
L 244.339885 269.159063 
L 244.847666 270.175989 
L 245.355446 271.952943 
L 245.863227 270.502803 
L 246.371007 271.220139 
L 246.878788 270.759251 
L 247.386568 271.692435 
L 247.894349 270.768183 
L 248.402129 274.219785 
L 248.90991 271.804299 
L 249.41769 271.576472 
L 249.925471 271.870034 
L 250.433251 274.012152 
L 250.941032 272.924059 
L 251.448812 272.159846 
L 251.956593 272.640531 
L 252.464373 273.440516 
L 252.972154 275.184131 
L 253.479934 276.407672 
L 253.987715 273.543621 
L 254.495495 273.886209 
L 255.003276 274.400064 
L 255.511057 274.101382 
L 256.018837 274.768704 
L 256.526618 277.685449 
L 257.034398 275.235543 
L 257.542179 278.512546 
L 258.049959 274.913423 
L 258.55774 277.688681 
L 259.06552 276.254062 
L 259.573301 278.746035 
L 260.081081 277.02762 
L 260.588862 276.744888 
L 261.096642 275.79838 
L 261.604423 276.77785 
L 262.112203 276.492684 
L 262.619984 280.045852 
L 263.127764 279.389995 
L 263.635545 277.510486 
L 264.651106 278.828699 
L 265.158886 278.615635 
L 265.666667 278.789505 
L 266.174447 281.133194 
L 266.682228 278.26742 
L 267.190008 280.934119 
L 267.697789 279.386524 
L 268.205569 279.33494 
L 268.71335 281.386013 
L 269.22113 279.664026 
L 269.728911 280.687552 
L 270.236691 280.039156 
L 271.252252 281.461693 
L 271.760033 281.814098 
L 272.267813 281.304402 
L 272.775594 283.738995 
L 273.283374 281.305016 
L 273.791155 281.197921 
L 274.298935 282.25698 
L 274.806716 282.80075 
L 275.314496 282.730734 
L 275.822277 282.506997 
L 276.837838 283.520092 
L 277.345618 282.918636 
L 277.853399 285.145869 
L 278.361179 283.539942 
L 279.37674 285.559664 
L 279.884521 284.841857 
L 280.392301 286.658215 
L 280.900082 285.462178 
L 281.407862 284.644077 
L 281.915643 286.166404 
L 282.423423 288.749342 
L 282.931204 284.878851 
L 283.438984 286.488644 
L 283.946765 285.558069 
L 284.454545 288.73071 
L 284.962326 286.122602 
L 285.470106 287.267147 
L 285.977887 286.118133 
L 286.485667 288.824479 
L 287.501229 286.937202 
L 288.009009 288.8398 
L 288.51679 288.353708 
L 289.02457 287.495037 
L 289.532351 288.663682 
L 290.040131 288.930646 
L 290.547912 289.339879 
L 291.055692 289.534827 
L 291.563473 289.945758 
L 292.579034 289.75377 
L 293.086814 291.846827 
L 293.594595 292.909518 
L 294.102375 290.132316 
L 294.610156 290.205551 
L 295.117936 289.905151 
L 295.625717 293.596195 
L 296.133497 292.90348 
L 297.149058 290.633962 
L 297.656839 291.988688 
L 298.164619 291.399998 
L 299.18018 292.081589 
L 299.687961 293.630675 
L 300.195741 292.857718 
L 300.703522 295.208602 
L 301.211302 293.617864 
L 301.719083 294.384618 
L 302.226863 294.203617 
L 302.734644 294.375443 
L 303.242424 295.420266 
L 303.750205 293.184413 
L 304.257985 295.42073 
L 304.765766 294.42729 
L 305.273546 294.235958 
L 305.781327 294.68849 
L 306.289107 297.13937 
L 306.796888 295.037221 
L 307.304668 295.192984 
L 307.812449 298.640965 
L 308.320229 295.481298 
L 308.82801 295.78337 
L 309.843571 297.618644 
L 310.351351 297.350741 
L 310.859132 296.654342 
L 311.874693 297.165038 
L 312.382473 301.085102 
L 312.890254 299.166258 
L 313.398034 299.337756 
L 313.905815 298.407547 
L 314.921376 299.558566 
L 315.429156 299.732447 
L 316.444717 298.871744 
L 316.952498 299.297075 
L 317.460278 300.040735 
L 317.968059 299.962329 
L 318.475839 300.923944 
L 318.98362 301.302938 
L 319.4914 300.436842 
L 319.999181 300.841282 
L 320.506962 300.596244 
L 321.014742 301.175934 
L 321.522523 300.97188 
L 322.030303 301.442919 
L 322.538084 303.762977 
L 323.045864 302.17224 
L 323.553645 302.792354 
L 324.061425 302.823896 
L 324.569206 302.447215 
L 325.076986 304.984436 
L 325.584767 303.534654 
L 326.092547 303.636566 
L 326.600328 304.238705 
L 327.108108 303.910667 
L 327.615889 303.416053 
L 328.123669 308.137947 
L 328.63145 304.994815 
L 329.13923 304.928027 
L 329.647011 307.684423 
L 330.154791 304.678346 
L 330.662572 305.20769 
L 331.170352 304.866503 
L 331.678133 307.026036 
L 332.185913 305.824569 
L 332.693694 305.36248 
L 333.201474 307.128754 
L 334.217035 307.556966 
L 334.724816 307.078888 
L 335.232596 306.362454 
L 335.740377 307.772983 
L 336.248157 308.243046 
L 336.755938 308.224665 
L 337.263718 307.917705 
L 337.771499 310.146506 
L 338.279279 308.401462 
L 338.78706 308.274482 
L 339.802621 310.641877 
L 340.310401 311.677396 
L 340.818182 309.715414 
L 341.325962 309.299059 
L 341.833743 310.172937 
L 342.341523 310.736531 
L 342.849304 310.912903 
L 343.357084 310.077654 
L 343.864865 310.787985 
L 344.372645 311.071782 
L 344.880426 311.535539 
L 345.388206 311.711285 
L 345.895987 311.553923 
L 346.403767 312.740052 
L 346.911548 312.509513 
L 347.419328 312.029205 
L 347.927109 312.211353 
L 348.434889 314.767855 
L 348.94267 316.225146 
L 349.45045 315.778163 
L 349.958231 313.302103 
L 350.466011 312.977979 
L 350.973792 314.826639 
L 351.481572 313.304031 
L 353.004914 314.698189 
L 353.512695 314.372237 
L 354.020475 314.417832 
L 354.528256 317.61024 
L 355.036036 314.682967 
L 355.543817 315.273184 
L 356.051597 316.602577 
L 356.559378 316.822049 
L 357.067158 315.98141 
L 357.574939 317.741277 
L 358.082719 315.837627 
L 358.5905 316.802293 
L 359.09828 315.99848 
L 359.606061 317.734263 
L 360.113841 318.163131 
L 360.621622 317.598604 
L 361.129402 317.528631 
L 361.637183 317.879502 
L 363.668305 318.580408 
L 364.176085 319.387195 
L 364.683866 319.289141 
L 365.191646 320.016433 
L 365.699427 319.849266 
L 366.207207 323.356236 
L 366.714988 321.912756 
L 367.222768 321.255182 
L 367.730549 320.09534 
L 368.238329 321.132129 
L 368.74611 321.418837 
L 369.761671 320.712653 
L 370.269451 322.180995 
L 370.777232 321.370609 
L 371.792793 322.344893 
L 372.808354 322.638275 
L 373.316134 322.029844 
L 373.823915 322.334637 
L 374.331695 323.516422 
L 375.347256 322.536412 
L 375.855037 322.485273 
L 376.362817 322.877922 
L 376.870598 322.862741 
L 378.90172 323.270457 
L 379.4095 323.142113 
L 379.917281 323.682094 
L 380.425061 322.775809 
L 380.932842 323.916564 
L 381.440622 322.838146 
L 381.948403 322.566182 
L 382.456183 322.790632 
L 382.963964 323.443966 
L 383.471744 322.638154 
L 383.979525 322.77643 
L 384.995086 322.271713 
L 386.010647 321.901931 
L 386.518428 321.948169 
L 387.533989 321.551386 
L 388.041769 321.571991 
L 389.05733 321.113218 
L 390.580672 320.731079 
L 391.088452 320.714155 
L 392.611794 319.917088 
L 393.627355 319.780999 
L 394.135135 319.316868 
L 396.166257 318.717323 
L 396.674038 318.328645 
L 397.181818 318.27183 
L 398.197379 317.821188 
L 404.290745 315.353893 
L 420.031941 308.867215 
L 473.348894 286.870757 
L 573.381654 245.712705 
L 579.982801 243.249332 
L 583.029484 242.290727 
L 585.568387 241.74572 
L 587.599509 241.552127 
L 589.630631 241.610151 
L 595.216216 242.073208 
L 598.77068 241.8594 
L 601.817363 241.964593 
L 603.848485 241.91198 
L 605.879607 241.939043 
L 607.910729 241.951999 
L 620.605242 241.937197 
L 622.636364 241.934515 
L 622.636364 241.934515 
" clip-path="url(#p21dab5ff0a)" style="fill: none; stroke: #ff00ff; stroke-width: 2; stroke-linecap: square"/>
   </g>
   <g id="line2d_18">
    <path d="M 115.363636 241.935215 
L 174.773956 241.935215 
L 175.789517 242.721406 
L 177.820639 244.716822 
L 178.328419 244.837642 
L 182.390663 244.837642 
L 182.898444 244.472621 
L 184.929566 246.138592 
L 185.437346 246.609936 
L 185.945127 246.822489 
L 190.007371 246.822489 
L 190.515152 247.004553 
L 192.038493 248.384844 
L 193.561835 250.064948 
L 194.069615 249.852801 
L 194.577396 249.467625 
L 195.085176 250.176667 
L 195.592957 251.10451 
L 196.100737 251.335607 
L 196.608518 251.861614 
L 197.624079 256.535561 
L 198.131859 256.267829 
L 198.63964 253.700516 
L 199.14742 252.202834 
L 199.655201 252.637338 
L 200.162981 251.820548 
L 200.670762 252.810248 
L 201.178542 252.612492 
L 202.194103 251.741744 
L 202.701884 252.412656 
L 203.209664 253.419219 
L 203.717445 253.668105 
L 204.225225 254.225245 
L 204.733006 254.411406 
L 205.240786 258.3865 
L 206.764128 254.66703 
L 207.271908 255.174177 
L 207.779689 254.205082 
L 208.79525 255.853948 
L 209.30303 257.286154 
L 209.810811 261.412744 
L 210.318591 256.726777 
L 210.826372 256.22174 
L 211.334152 256.181808 
L 212.349713 256.779459 
L 212.857494 259.948051 
L 213.365274 258.206768 
L 213.873055 258.307819 
L 214.380835 256.795947 
L 214.888616 258.010228 
L 215.396396 262.153831 
L 215.904177 259.356693 
L 216.411957 258.18952 
L 216.919738 259.634628 
L 217.427518 262.064087 
L 217.935299 259.06431 
L 218.443079 258.609302 
L 218.95086 261.062743 
L 219.45864 261.469878 
L 219.966421 259.088988 
L 220.474201 261.777318 
L 220.981982 260.967399 
L 221.489762 260.596315 
L 221.997543 266.744958 
L 222.505324 260.692583 
L 223.013104 261.943438 
L 223.520885 262.088853 
L 224.028665 263.063347 
L 224.536446 262.47393 
L 225.044226 262.795183 
L 225.552007 261.845717 
L 226.059787 266.478121 
L 226.567568 263.132407 
L 227.075348 263.331626 
L 227.583129 266.502693 
L 228.090909 264.055648 
L 228.59869 263.46508 
L 229.10647 264.766265 
L 229.614251 270.268597 
L 230.122031 265.588437 
L 230.629812 264.483479 
L 231.137592 265.201614 
L 231.645373 265.130298 
L 232.153153 265.560106 
L 232.660934 265.660433 
L 233.168714 266.687792 
L 233.676495 271.566491 
L 234.184275 265.894414 
L 234.692056 265.272146 
L 235.199836 267.115529 
L 236.215397 266.535892 
L 236.723178 267.583357 
L 237.230958 269.407766 
L 237.738739 267.42605 
L 238.246519 267.687973 
L 238.7543 267.757181 
L 239.26208 269.053295 
L 239.769861 268.374935 
L 240.277641 268.839531 
L 240.785422 268.439514 
L 241.293202 271.953911 
L 241.800983 269.132367 
L 242.308763 273.263067 
L 242.816544 269.728746 
L 243.324324 269.136447 
L 243.832105 269.816476 
L 244.339885 269.208621 
L 245.355446 272.395158 
L 245.863227 271.058391 
L 246.371007 271.534953 
L 246.878788 271.160029 
L 247.386568 272.037224 
L 247.894349 271.027252 
L 248.402129 277.527422 
L 248.90991 272.732085 
L 249.41769 271.852931 
L 249.925471 272.967702 
L 250.433251 275.796043 
L 250.941032 273.695948 
L 251.448812 272.55988 
L 252.464373 274.418613 
L 252.972154 276.714544 
L 253.479934 279.836271 
L 253.987715 273.863144 
L 254.495495 275.371391 
L 255.003276 275.04635 
L 256.018837 275.542647 
L 256.526618 279.963364 
L 257.034398 275.734465 
L 257.542179 281.085084 
L 258.049959 275.863115 
L 258.55774 280.478162 
L 259.06552 276.718779 
L 259.573301 282.21777 
L 260.081081 277.104572 
L 260.588862 277.137492 
L 261.096642 276.124689 
L 261.604423 277.362561 
L 262.112203 277.426325 
L 262.619984 283.160276 
L 263.127764 282.175493 
L 263.635545 277.942999 
L 264.143325 278.480764 
L 264.651106 279.2282 
L 265.158886 279.241182 
L 265.666667 279.584814 
L 266.174447 282.249824 
L 266.682228 278.456747 
L 267.190008 282.353191 
L 267.697789 280.240529 
L 268.205569 280.42569 
L 268.71335 282.439031 
L 269.22113 279.779042 
L 269.728911 280.945555 
L 270.236691 280.616668 
L 271.252252 282.497575 
L 271.760033 281.981263 
L 272.267813 282.06861 
L 272.775594 285.698716 
L 273.283374 281.782762 
L 273.791155 281.518907 
L 274.298935 282.993267 
L 274.806716 283.605302 
L 275.314496 283.577291 
L 275.822277 282.736357 
L 276.837838 284.260766 
L 277.345618 283.370867 
L 277.853399 286.430191 
L 278.361179 284.480175 
L 278.86896 285.2064 
L 279.37674 287.096478 
L 279.884521 285.477552 
L 280.392301 287.627181 
L 280.900082 285.908949 
L 281.407862 285.234858 
L 281.915643 287.720508 
L 282.423423 291.196882 
L 282.931204 284.970007 
L 283.438984 287.803001 
L 283.946765 286.439144 
L 284.454545 291.49364 
L 284.962326 286.624008 
L 285.470106 287.561547 
L 285.977887 286.404137 
L 286.485667 290.287117 
L 286.993448 288.382843 
L 287.501229 287.209592 
L 288.009009 290.373209 
L 289.02457 287.953443 
L 289.532351 288.917291 
L 290.040131 289.567145 
L 290.547912 289.621117 
L 291.055692 289.998804 
L 291.563473 291.037436 
L 292.071253 290.623505 
L 292.579034 290.774099 
L 293.086814 293.308968 
L 293.594595 294.847555 
L 294.102375 290.504896 
L 294.610156 290.418508 
L 295.117936 290.067653 
L 295.625717 295.307697 
L 296.133497 293.793862 
L 296.641278 292.693392 
L 297.149058 290.915029 
L 297.656839 292.267365 
L 298.164619 291.686377 
L 298.6724 292.303126 
L 299.18018 292.258664 
L 299.687961 293.788401 
L 300.195741 293.645057 
L 300.703522 295.816344 
L 301.211302 294.319826 
L 301.719083 294.699794 
L 302.226863 296.201196 
L 302.734644 295.775172 
L 303.242424 296.804938 
L 303.750205 293.607056 
L 304.257985 296.043577 
L 305.273546 294.492985 
L 305.781327 294.825158 
L 306.289107 299.446164 
L 306.796888 295.5519 
L 307.304668 295.855895 
L 307.812449 301.366769 
L 308.320229 295.643585 
L 308.82801 295.949717 
L 309.33579 297.372171 
L 310.351351 298.258714 
L 310.859132 296.848318 
L 311.874693 297.785204 
L 312.382473 304.139708 
L 312.890254 299.885447 
L 313.398034 300.357084 
L 313.905815 299.385243 
L 314.413595 299.45303 
L 314.921376 300.126027 
L 315.429156 300.577779 
L 315.936937 299.666522 
L 316.952498 299.446091 
L 317.460278 300.812988 
L 317.968059 300.929275 
L 318.475839 301.168858 
L 318.98362 302.352551 
L 319.4914 301.186286 
L 319.999181 301.448289 
L 320.506962 301.300675 
L 321.014742 301.658324 
L 322.030303 301.644066 
L 322.538084 305.028541 
L 323.045864 302.931175 
L 323.553645 303.752656 
L 324.061425 303.064637 
L 324.569206 303.121803 
L 325.076986 307.457773 
L 325.584767 304.077595 
L 326.092547 304.191146 
L 326.600328 304.948318 
L 327.108108 304.034638 
L 327.615889 303.578031 
L 328.123669 310.487933 
L 328.63145 306.634512 
L 329.13923 305.327422 
L 329.647011 309.756014 
L 330.154791 304.864381 
L 330.662572 305.632804 
L 331.170352 304.917681 
L 331.678133 308.076823 
L 332.185913 306.067973 
L 332.693694 305.538126 
L 333.201474 307.511914 
L 333.709255 308.138192 
L 334.217035 308.226215 
L 334.724816 307.676324 
L 335.232596 306.829463 
L 335.740377 308.173258 
L 336.248157 308.610675 
L 336.755938 308.646115 
L 337.263718 308.232528 
L 337.771499 312.087432 
L 338.279279 308.718456 
L 338.78706 308.493807 
L 339.802621 312.141817 
L 340.310401 312.485393 
L 340.818182 310.40459 
L 341.325962 309.891898 
L 341.833743 311.171493 
L 342.341523 311.565505 
L 342.849304 311.635997 
L 343.357084 310.312669 
L 343.864865 311.034638 
L 344.372645 311.506859 
L 344.880426 312.406456 
L 345.388206 311.91814 
L 345.895987 312.039065 
L 346.403767 312.951563 
L 346.911548 313.090791 
L 347.419328 312.280668 
L 347.927109 312.623158 
L 348.94267 318.886953 
L 349.45045 317.687471 
L 349.958231 313.623623 
L 350.466011 313.557934 
L 350.973792 315.693099 
L 351.481572 314.509073 
L 351.989353 313.875755 
L 352.497133 314.510992 
L 353.004914 314.947776 
L 353.512695 315.179829 
L 354.020475 315.231847 
L 354.528256 319.870323 
L 355.036036 314.782026 
L 355.543817 316.636635 
L 356.051597 317.105253 
L 356.559378 317.273429 
L 357.067158 316.914634 
L 357.574939 318.394023 
L 358.082719 316.179771 
L 358.5905 317.152885 
L 359.09828 316.444151 
L 359.606061 318.557911 
L 360.113841 318.617907 
L 360.621622 318.137614 
L 361.129402 318.433565 
L 362.144963 318.369642 
L 362.652744 318.92095 
L 363.668305 318.89454 
L 364.176085 320.035801 
L 364.683866 320.004018 
L 365.191646 320.953682 
L 365.699427 320.006251 
L 366.207207 326.1758 
L 366.714988 322.104546 
L 367.222768 321.741076 
L 367.730549 320.529119 
L 368.74611 322.307534 
L 369.25389 322.442306 
L 369.761671 321.225122 
L 370.269451 322.703849 
L 370.777232 321.629766 
L 371.285012 323.107675 
L 372.300573 323.85403 
L 372.808354 324.887959 
L 373.316134 323.327181 
L 374.331695 323.517319 
L 374.839476 324.760106 
L 375.347256 324.112361 
L 375.855037 324.343712 
L 376.362817 325.038341 
L 376.870598 325.148959 
L 377.378378 324.416743 
L 378.393939 325.900166 
L 378.90172 327.919465 
L 379.4095 325.575308 
L 379.917281 325.373616 
L 380.425061 326.125534 
L 380.932842 325.763912 
L 381.440622 327.499952 
L 381.948403 327.010337 
L 382.456183 326.692535 
L 382.963964 327.264511 
L 383.471744 328.234307 
L 383.979525 328.369564 
L 384.487305 327.662975 
L 384.995086 332.402573 
L 385.502867 328.090974 
L 386.010647 328.243671 
L 386.518428 329.737341 
L 387.026208 329.441509 
L 388.041769 333.987216 
L 388.54955 330.38889 
L 389.05733 330.503839 
L 389.565111 330.937136 
L 390.072891 331.184641 
L 390.580672 336.447244 
L 391.596233 329.743261 
L 392.104013 330.628791 
L 392.611794 331.238416 
L 393.119574 332.048856 
L 393.627355 331.690838 
L 394.135135 332.51299 
L 394.642916 332.866151 
L 395.150696 333.872554 
L 395.658477 332.696251 
L 396.166257 332.691252 
L 396.674038 333.16707 
L 397.181818 333.294478 
L 397.689599 334.054778 
L 398.197379 332.846519 
L 398.70516 334.71816 
L 399.21294 334.26122 
L 399.720721 334.706067 
L 400.228501 335.455268 
L 400.736282 337.880666 
L 401.244062 333.958192 
L 401.751843 338.187254 
L 402.259623 338.577712 
L 402.767404 334.785531 
L 403.275184 336.363002 
L 403.782965 336.124009 
L 404.290745 336.817579 
L 404.798526 336.274942 
L 405.306306 337.004393 
L 405.814087 342.222231 
L 406.321867 336.862728 
L 406.829648 336.333321 
L 407.337428 338.267094 
L 407.845209 339.693313 
L 408.352989 341.773641 
L 408.86077 338.675907 
L 409.36855 343.097693 
L 409.876331 338.883408 
L 410.384111 342.211836 
L 410.891892 339.194275 
L 411.399672 339.298381 
L 411.907453 344.097139 
L 412.415233 340.020564 
L 412.923014 339.428612 
L 413.430794 341.403824 
L 413.938575 340.170671 
L 414.446355 341.226525 
L 414.954136 340.038709 
L 415.461916 342.055796 
L 415.969697 341.123935 
L 416.477477 340.89763 
L 417.493038 341.95756 
L 418.000819 341.9742 
L 418.5086 342.646761 
L 419.01638 342.0742 
L 419.524161 346.258016 
L 420.031941 346.745926 
L 420.539722 343.380496 
L 421.047502 342.946916 
L 421.555283 343.307717 
L 422.063063 346.693386 
L 422.570844 347.699923 
L 423.586405 343.710198 
L 424.094185 343.931855 
L 424.601966 348.634451 
L 425.109746 345.607817 
L 425.617527 344.920885 
L 426.125307 344.458225 
L 426.633088 346.196817 
L 427.140868 345.067187 
L 427.648649 345.905396 
L 428.156429 346.184694 
L 428.66421 345.194268 
L 429.17199 347.329017 
L 429.679771 346.655431 
L 430.187551 347.179136 
L 430.695332 346.754524 
L 431.203112 348.266632 
L 431.710893 346.397344 
L 432.218673 352.554637 
L 432.726454 347.907291 
L 433.234234 347.168235 
L 433.742015 350.041096 
L 434.249795 348.369383 
L 434.757576 349.190148 
L 435.265356 349.515243 
L 435.773137 348.331968 
L 436.280917 350.161233 
L 436.788698 354.92487 
L 437.296478 351.515411 
L 437.804259 350.827164 
L 438.312039 350.836941 
L 438.81982 351.13649 
L 439.3276 351.695637 
L 439.835381 350.662652 
L 440.343161 351.740612 
L 440.850942 351.469166 
L 441.358722 350.422982 
L 441.866503 351.585444 
L 442.374283 351.507869 
L 442.882064 353.13061 
L 443.389844 356.76 
L 443.897625 352.71011 
L 444.405405 351.682295 
L 444.913186 352.740167 
L 445.420966 352.437015 
L 445.928747 351.534504 
L 446.436527 353.064631 
L 446.944308 352.725251 
L 447.452088 352.199161 
L 447.959869 353.140587 
L 448.467649 355.530409 
L 448.97543 352.029497 
L 449.48321 352.167275 
L 449.990991 353.548568 
L 450.498771 351.956577 
L 451.006552 351.894433 
L 451.514333 351.665083 
L 452.022113 351.196599 
L 452.529894 350.938296 
L 453.037674 350.046064 
L 453.545455 350.370211 
L 454.561016 349.686676 
L 455.068796 348.898351 
L 455.576577 349.367945 
L 456.084357 348.29713 
L 456.592138 347.781677 
L 457.099918 347.806118 
L 458.115479 346.60013 
L 458.62326 346.596561 
L 459.13104 345.839055 
L 459.638821 345.56884 
L 460.654382 344.614627 
L 462.685504 343.131276 
L 465.224406 340.948509 
L 470.302211 336.800411 
L 475.887797 332.19585 
L 501.276822 311.244709 
L 570.334971 254.395698 
L 576.428337 249.640404 
L 580.490581 246.733017 
L 583.029484 245.136807 
L 585.060606 244.061801 
L 587.091728 243.249808 
L 591.661753 242.01301 
L 593.185094 241.836673 
L 595.216216 241.853134 
L 598.77068 241.964192 
L 603.340704 241.944086 
L 618.57412 241.93521 
L 622.636364 241.935238 
L 622.636364 241.935238 
" clip-path="url(#p21dab5ff0a)" style="fill: none; stroke: #00ffff; stroke-width: 2; stroke-linecap: square"/>
   </g>
   <g id="line2d_19">
    <path d="M 115.363636 241.935215 
L 175.281736 241.9134 
L 177.820639 243.601229 
L 179.34398 244.754293 
L 180.359541 244.837642 
L 182.390663 244.837642 
L 182.898444 243.992589 
L 184.929566 245.6216 
L 185.945127 246.455458 
L 186.452907 246.618738 
L 186.960688 246.463828 
L 187.468468 246.822489 
L 190.515152 246.724363 
L 192.546274 248.484267 
L 193.054054 248.989534 
L 194.069615 248.668675 
L 194.577396 248.486514 
L 195.085176 248.735731 
L 196.100737 250.174127 
L 197.116298 252.059257 
L 197.624079 253.305273 
L 198.131859 252.934809 
L 198.63964 251.865983 
L 199.14742 251.555787 
L 199.655201 251.717655 
L 200.162981 251.319731 
L 200.670762 252.256256 
L 202.194103 251.206067 
L 203.209664 252.896418 
L 203.717445 252.983055 
L 204.225225 253.508255 
L 204.733006 254.363789 
L 205.240786 256.696401 
L 205.748567 255.973118 
L 206.256347 254.78021 
L 206.764128 253.963961 
L 207.271908 254.570903 
L 207.779689 253.815532 
L 208.287469 254.852961 
L 208.79525 254.838966 
L 209.30303 256.109603 
L 209.810811 258.332009 
L 210.318591 256.297314 
L 210.826372 255.629807 
L 211.841933 256.277657 
L 212.349713 256.06882 
L 212.857494 258.226103 
L 213.365274 257.949123 
L 213.873055 257.445218 
L 214.380835 256.610485 
L 214.888616 257.263708 
L 215.396396 260.474204 
L 215.904177 258.27863 
L 216.411957 257.827887 
L 216.919738 258.905707 
L 217.427518 261.205513 
L 217.935299 258.890843 
L 218.443079 258.444728 
L 218.95086 259.759822 
L 219.45864 260.446971 
L 219.966421 258.761986 
L 220.474201 260.719027 
L 221.489762 260.272788 
L 221.997543 264.334303 
L 222.505324 260.324722 
L 223.013104 261.675208 
L 223.520885 261.725209 
L 224.028665 262.119583 
L 224.536446 261.865749 
L 225.044226 262.344361 
L 225.552007 261.506027 
L 226.059787 265.260343 
L 226.567568 262.743239 
L 227.075348 262.523199 
L 227.583129 265.609155 
L 228.090909 263.738853 
L 228.59869 263.173934 
L 229.10647 264.251383 
L 229.614251 267.369451 
L 230.122031 264.478026 
L 230.629812 263.820012 
L 231.137592 265.043199 
L 231.645373 264.768834 
L 232.153153 265.135002 
L 232.660934 265.262924 
L 233.168714 265.786896 
L 233.676495 268.037088 
L 234.184275 265.392045 
L 234.692056 265.10933 
L 235.199836 266.604424 
L 235.707617 266.067068 
L 236.215397 266.087497 
L 236.723178 266.877137 
L 237.230958 268.187108 
L 237.738739 267.167727 
L 238.246519 267.010293 
L 238.7543 267.142091 
L 239.26208 268.242989 
L 239.769861 267.610762 
L 240.277641 268.19872 
L 240.785422 268.166917 
L 241.293202 270.345486 
L 241.800983 268.840648 
L 242.308763 270.86708 
L 242.816544 269.249528 
L 243.324324 268.646974 
L 243.832105 269.550279 
L 244.339885 268.81387 
L 245.355446 271.500424 
L 245.863227 270.795331 
L 246.371007 271.057594 
L 246.878788 270.893136 
L 247.386568 271.296703 
L 247.894349 270.871146 
L 248.402129 274.061104 
L 248.90991 271.783792 
L 249.41769 271.777418 
L 249.925471 272.198626 
L 250.433251 274.279703 
L 250.941032 272.640854 
L 251.448812 272.249477 
L 251.956593 273.107241 
L 252.464373 273.522795 
L 252.972154 275.741968 
L 253.479934 276.276237 
L 253.987715 273.389358 
L 254.495495 274.461527 
L 255.003276 274.237692 
L 255.511057 274.604521 
L 256.018837 274.265654 
L 256.526618 276.76613 
L 257.034398 275.289162 
L 257.542179 277.943567 
L 258.049959 275.032482 
L 258.55774 278.375108 
L 259.06552 276.145387 
L 259.573301 278.701543 
L 260.081081 276.624433 
L 260.588862 276.813468 
L 261.096642 275.88321 
L 261.604423 276.963896 
L 262.112203 276.689937 
L 262.619984 280.776637 
L 263.127764 280.155564 
L 263.635545 277.466719 
L 264.651106 278.5109 
L 265.158886 278.599709 
L 265.666667 279.110558 
L 266.174447 280.676291 
L 266.682228 278.250706 
L 267.190008 280.306755 
L 267.697789 279.630214 
L 268.205569 279.613316 
L 268.71335 281.481583 
L 269.22113 279.473125 
L 269.728911 280.449411 
L 270.236691 280.078524 
L 270.744472 281.064562 
L 271.252252 281.452825 
L 271.760033 281.154187 
L 272.267813 281.261633 
L 272.775594 283.866267 
L 273.283374 281.554947 
L 273.791155 281.090949 
L 274.298935 281.740599 
L 274.806716 282.810492 
L 275.314496 283.237388 
L 275.822277 282.398942 
L 276.330057 282.653813 
L 276.837838 283.540767 
L 277.345618 282.891348 
L 277.853399 284.740806 
L 278.361179 283.53686 
L 278.86896 284.129577 
L 279.37674 285.046412 
L 279.884521 285.069013 
L 280.392301 286.380071 
L 280.900082 285.449913 
L 281.407862 285.234858 
L 282.423423 288.338887 
L 282.931204 284.663597 
L 283.438984 286.575268 
L 283.946765 285.901968 
L 284.454545 289.616826 
L 284.962326 285.921261 
L 285.470106 287.211311 
L 285.977887 286.241983 
L 286.485667 289.162892 
L 286.993448 287.465786 
L 287.501229 286.889043 
L 288.009009 288.818905 
L 289.02457 287.827691 
L 289.532351 288.153826 
L 290.040131 289.096608 
L 290.547912 289.000901 
L 291.563473 289.861702 
L 292.071253 289.751725 
L 292.579034 290.113111 
L 293.086814 291.469372 
L 293.594595 292.133987 
L 294.102375 290.296918 
L 294.610156 290.197517 
L 295.117936 289.600888 
L 295.625717 293.135386 
L 296.133497 291.693302 
L 296.641278 291.790614 
L 297.149058 290.733892 
L 297.656839 291.68026 
L 298.164619 291.434414 
L 298.6724 291.870215 
L 299.18018 292.133331 
L 299.687961 293.554111 
L 300.195741 292.82925 
L 300.703522 294.86656 
L 301.211302 293.858732 
L 301.719083 293.970748 
L 302.226863 295.05462 
L 302.734644 295.362698 
L 303.242424 296.016983 
L 303.750205 293.446282 
L 304.257985 295.425727 
L 304.765766 294.455188 
L 305.273546 294.206237 
L 305.781327 294.402611 
L 306.289107 297.413435 
L 306.796888 295.360217 
L 307.304668 295.34261 
L 307.812449 299.346294 
L 308.320229 295.337153 
L 308.82801 295.514126 
L 309.33579 296.478023 
L 309.843571 297.682038 
L 310.859132 296.642056 
L 311.874693 297.074138 
L 312.382473 301.058551 
L 312.890254 298.682923 
L 313.398034 298.893209 
L 314.413595 298.896178 
L 314.921376 299.219538 
L 315.429156 299.957341 
L 315.936937 299.318713 
L 316.444717 299.241162 
L 316.952498 299.037159 
L 317.460278 299.989762 
L 317.968059 299.9051 
L 318.475839 300.984526 
L 318.98362 301.013665 
L 319.4914 300.658986 
L 319.999181 300.891121 
L 320.506962 300.780186 
L 321.014742 300.932322 
L 321.522523 301.319797 
L 322.030303 301.311286 
L 322.538084 303.778322 
L 323.045864 302.659647 
L 323.553645 303.576295 
L 324.061425 302.714586 
L 324.569206 302.463639 
L 325.076986 304.987044 
L 325.584767 303.137414 
L 326.600328 303.763563 
L 327.108108 303.715032 
L 327.615889 303.196192 
L 328.123669 307.79138 
L 328.63145 305.977304 
L 329.13923 305.003485 
L 329.647011 307.786352 
L 330.154791 304.427687 
L 330.662572 304.965904 
L 331.170352 304.675799 
L 331.678133 306.979343 
L 332.185913 305.370855 
L 332.693694 305.170268 
L 333.201474 306.713319 
L 333.709255 307.31797 
L 334.217035 306.991677 
L 334.724816 307.051359 
L 335.232596 306.636182 
L 335.740377 307.379637 
L 336.755938 308.118884 
L 337.263718 307.798692 
L 337.771499 310.604023 
L 338.279279 308.528387 
L 338.78706 308.026445 
L 339.29484 309.817336 
L 339.802621 310.623793 
L 340.310401 311.665603 
L 340.818182 309.85518 
L 341.325962 309.051581 
L 341.833743 310.926859 
L 342.341523 311.185224 
L 342.849304 310.786698 
L 343.357084 310.059104 
L 343.864865 310.31615 
L 344.372645 311.242663 
L 344.880426 311.511908 
L 345.388206 311.471403 
L 345.895987 311.851702 
L 346.403767 312.637249 
L 346.911548 312.290545 
L 347.419328 312.144136 
L 347.927109 312.307483 
L 348.434889 315.044358 
L 348.94267 315.270895 
L 349.45045 315.670638 
L 349.958231 312.900138 
L 350.466011 313.241173 
L 350.973792 314.914422 
L 351.481572 313.186287 
L 351.989353 313.623722 
L 352.497133 313.798896 
L 353.004914 314.64767 
L 354.020475 314.892455 
L 354.528256 317.425557 
L 355.036036 314.670966 
L 355.543817 316.328765 
L 356.051597 316.842087 
L 357.067158 315.997658 
L 357.574939 316.935835 
L 358.082719 315.859232 
L 358.5905 316.742172 
L 359.09828 316.067931 
L 359.606061 318.593929 
L 360.113841 318.141992 
L 360.621622 317.168999 
L 361.129402 317.689553 
L 362.144963 318.080778 
L 362.652744 318.686656 
L 363.160524 318.165109 
L 364.176085 319.116775 
L 364.683866 319.227952 
L 365.191646 320.053148 
L 365.699427 319.786739 
L 366.207207 323.148766 
L 366.714988 321.099544 
L 367.222768 320.9351 
L 367.730549 320.290193 
L 368.74611 321.215063 
L 369.761671 320.93831 
L 370.269451 321.823035 
L 370.777232 321.208421 
L 371.285012 322.371461 
L 371.792793 322.508831 
L 372.300573 322.787711 
L 372.808354 322.138428 
L 373.316134 322.03267 
L 373.823915 323.292673 
L 374.331695 322.916274 
L 374.839476 323.218033 
L 375.347256 322.357042 
L 376.362817 323.434509 
L 376.870598 323.389733 
L 377.378378 324.314353 
L 377.886159 324.493374 
L 378.393939 323.950079 
L 378.90172 324.091834 
L 379.4095 324.526153 
L 379.917281 323.773934 
L 380.425061 323.664007 
L 380.932842 323.435174 
L 381.440622 323.021267 
L 381.948403 323.948182 
L 382.456183 323.842095 
L 382.963964 322.680034 
L 383.979525 322.38811 
L 384.487305 323.221127 
L 384.995086 322.809484 
L 386.518428 322.075406 
L 387.026208 321.801554 
L 387.533989 322.124704 
L 389.05733 321.179317 
L 390.072891 320.801761 
L 390.580672 320.737261 
L 391.088452 320.442011 
L 392.104013 320.304873 
L 392.611794 319.946704 
L 394.642916 319.200724 
L 395.150696 319.082875 
L 396.166257 318.572999 
L 396.674038 318.43993 
L 397.181818 318.167005 
L 398.197379 317.799779 
L 400.228501 316.967331 
L 401.244062 316.590732 
L 404.798526 315.133782 
L 408.86077 313.476948 
L 416.477477 310.334808 
L 466.747748 289.594244 
L 573.381654 245.714734 
L 579.47502 243.437464 
L 583.029484 242.29754 
L 585.568387 241.660835 
L 587.599509 241.331388 
L 589.12285 241.242891 
L 590.646192 241.349713 
L 592.677314 241.749817 
L 593.692875 241.559785 
L 594.708436 241.573999 
L 596.739558 241.959343 
L 597.755119 242.097753 
L 598.77068 242.071458 
L 601.309582 241.851928 
L 603.848485 241.968374 
L 605.371826 241.900399 
L 607.402948 241.936476 
L 609.941851 241.932521 
L 614.004095 241.927924 
L 619.0819 241.935679 
L 622.636364 241.935962 
L 622.636364 241.935962 
" clip-path="url(#p21dab5ff0a)" style="fill: none; stroke-dasharray: 2,3.3; stroke-dashoffset: 0; stroke: #00ff00; stroke-width: 2"/>
   </g>
   <g id="line2d_20">
    <path d="M 115.363636 243.056882 
L 174.773956 243.056882 
L 175.281736 79.56 
L 198.63964 98.833907 
L 199.14742 97.410203 
L 201.178542 99.086195 
L 201.686323 101.347895 
L 204.225225 103.442885 
L 204.733006 102.01918 
L 207.271908 104.11417 
L 207.779689 106.375871 
L 208.287469 106.794869 
L 208.79525 105.371164 
L 209.30303 105.790162 
L 209.810811 108.051863 
L 211.841933 109.727855 
L 212.349713 108.30415 
L 212.857494 110.565851 
L 213.365274 110.984849 
L 213.873055 109.561144 
L 214.380835 111.822845 
L 214.888616 112.241843 
L 215.396396 110.818138 
L 215.904177 113.079838 
L 216.411957 111.656134 
L 216.919738 112.075132 
L 217.427518 114.336832 
L 219.966421 116.431822 
L 220.474201 115.008118 
L 220.981982 117.269818 
L 232.153153 126.487774 
L 232.660934 125.064069 
L 233.168714 127.32577 
L 233.676495 125.902065 
L 234.184275 128.163766 
L 237.738739 131.096752 
L 238.246519 129.673047 
L 238.7543 131.934748 
L 242.816544 135.286731 
L 243.324324 133.863027 
L 243.832105 134.282025 
L 244.339885 136.543725 
L 244.847666 136.962723 
L 245.355446 135.539019 
L 245.863227 137.800719 
L 252.464373 143.247693 
L 252.972154 141.823989 
L 253.479934 144.085689 
L 255.511057 145.761681 
L 256.018837 144.337977 
L 256.526618 146.599677 
L 259.573301 149.113665 
L 260.081081 147.68996 
L 260.588862 148.108958 
L 261.096642 150.370659 
L 261.604423 148.946954 
L 262.112203 151.208655 
L 264.143325 152.884647 
L 264.651106 151.460942 
L 265.158886 153.722643 
L 268.205569 156.236631 
L 268.71335 154.812926 
L 269.22113 157.074626 
L 269.728911 157.493624 
L 270.236691 156.06992 
L 271.252252 156.907916 
L 271.760033 159.169616 
L 278.361179 164.61659 
L 278.86896 163.192886 
L 279.37674 165.454586 
L 281.407862 167.130578 
L 281.915643 165.706874 
L 282.423423 167.968574 
L 285.470106 170.482561 
L 285.977887 169.058857 
L 286.485667 171.320557 
L 292.579034 176.348532 
L 293.086814 174.924828 
L 293.594595 177.186527 
L 294.102375 177.605525 
L 294.610156 176.181821 
L 295.117936 178.443521 
L 297.656839 180.538509 
L 298.164619 179.114812 
L 298.6724 181.376504 
L 299.18018 181.795501 
L 299.687961 180.371798 
L 300.195741 180.790806 
L 300.703522 183.052493 
L 301.211302 181.628803 
L 301.719083 183.890487 
L 302.734644 184.728481 
L 303.242424 183.30478 
L 303.750205 185.566475 
L 304.765766 186.404468 
L 305.273546 184.980793 
L 305.781327 187.24246 
L 307.812449 188.918443 
L 308.320229 187.494791 
L 308.82801 189.756432 
L 309.33579 188.332789 
L 309.843571 188.751792 
L 310.351351 191.013415 
L 310.859132 189.589723 
L 311.366912 190.008718 
L 311.874693 192.270393 
L 312.382473 190.846799 
L 313.398034 191.684693 
L 313.905815 193.946357 
L 314.413595 194.365346 
L 314.921376 192.941812 
L 315.429156 195.203322 
L 316.952498 196.460277 
L 317.460278 195.036615 
L 317.968059 197.298242 
L 328.63145 206.096057 
L 329.13923 204.674659 
L 329.647011 206.933781 
L 330.154791 205.512855 
L 330.662572 207.771454 
L 331.170352 208.190264 
L 331.678133 206.76714 
L 332.185913 209.027837 
L 332.693694 207.604825 
L 333.201474 209.865312 
L 334.724816 211.121331 
L 335.232596 209.698755 
L 335.740377 211.958512 
L 336.248157 212.37704 
L 336.755938 210.962545 
L 337.263718 213.213961 
L 337.771499 213.632359 
L 338.279279 212.210535 
L 338.78706 214.468918 
L 340.310401 215.723242 
L 340.818182 214.302529 
L 341.325962 216.558977 
L 346.403767 220.728797 
L 346.911548 219.361936 
L 347.419328 221.560124 
L 349.45045 223.218177 
L 349.958231 221.895446 
L 350.466011 224.044723 
L 351.989353 225.279769 
L 352.497133 224.012181 
L 353.004914 224.437466 
L 353.512695 226.507587 
L 357.067158 229.334409 
L 357.574939 228.262696 
L 358.082719 230.127447 
L 359.09828 230.911952 
L 359.606061 230.066802 
L 360.113841 230.4957 
L 360.621622 232.07 
L 361.129402 231.407425 
L 361.637183 231.839841 
L 362.144963 233.20789 
L 362.652744 232.733369 
L 363.160524 233.229155 
L 363.668305 234.29565 
L 364.176085 232.721736 
L 364.683866 234.63113 
L 365.699427 235.729237 
L 367.730549 236.974609 
L 368.238329 236.614123 
L 368.74611 238.31321 
L 369.25389 238.305835 
L 369.761671 238.154164 
L 370.269451 238.42611 
L 370.777232 239.403723 
L 371.285012 239.842909 
L 371.792793 239.988526 
L 372.300573 241.118722 
L 372.808354 241.82129 
L 373.823915 241.776936 
L 374.331695 242.536918 
L 374.839476 242.537406 
L 375.347256 243.285874 
L 375.855037 244.385388 
L 376.870598 243.835715 
L 378.393939 246.184056 
L 378.90172 246.369316 
L 379.917281 247.083494 
L 380.425061 247.341273 
L 380.932842 248.318 
L 381.440622 248.524733 
L 381.948403 249.013349 
L 382.456183 248.91787 
L 382.963964 249.322868 
L 383.979525 250.833113 
L 384.487305 250.700514 
L 384.995086 251.114909 
L 385.502867 251.719423 
L 386.010647 251.089148 
L 386.518428 252.644877 
L 387.026208 252.905748 
L 387.533989 254.02204 
L 388.041769 253.930988 
L 388.54955 254.284166 
L 389.05733 254.335139 
L 389.565111 255.244498 
L 390.072891 255.721304 
L 390.580672 255.402548 
L 391.088452 256.413947 
L 392.611794 257.232114 
L 393.119574 258.293366 
L 393.627355 258.371006 
L 394.135135 258.747376 
L 394.642916 259.453194 
L 395.150696 259.825753 
L 395.658477 260.002681 
L 396.166257 259.619799 
L 396.674038 260.638171 
L 397.181818 261.302388 
L 397.689599 261.430217 
L 398.197379 262.440986 
L 398.70516 262.643112 
L 399.21294 262.327832 
L 399.720721 263.937097 
L 400.228501 263.678517 
L 400.736282 264.593552 
L 401.244062 264.991841 
L 401.751843 264.463125 
L 402.259623 264.898636 
L 402.767404 264.900344 
L 403.275184 266.144714 
L 403.782965 266.486742 
L 404.290745 266.523527 
L 404.798526 267.472874 
L 405.306306 267.877164 
L 405.814087 268.697587 
L 406.321867 269.028771 
L 406.829648 268.965645 
L 407.845209 270.120709 
L 408.352989 270.125705 
L 408.86077 271.678167 
L 409.36855 271.577821 
L 409.876331 271.844275 
L 410.384111 271.710088 
L 410.891892 272.544105 
L 411.399672 273.15059 
L 411.907453 272.755651 
L 412.415233 273.508051 
L 412.923014 274.491853 
L 413.430794 274.940805 
L 413.938575 275.185224 
L 414.954136 276.811496 
L 415.461916 276.987371 
L 415.969697 276.584993 
L 416.477477 276.992341 
L 417.493038 278.57239 
L 418.000819 278.794813 
L 418.5086 278.858565 
L 419.01638 279.11045 
L 419.524161 279.886424 
L 420.031941 279.825474 
L 420.539722 280.029871 
L 421.047502 279.864511 
L 421.555283 281.657477 
L 422.063063 281.177507 
L 422.570844 282.195418 
L 423.078624 282.787643 
L 423.586405 283.066321 
L 424.601966 284.009069 
L 425.109746 284.429035 
L 425.617527 285.153723 
L 426.125307 286.075749 
L 426.633088 285.054796 
L 427.648649 286.739708 
L 428.156429 286.732715 
L 429.17199 287.498636 
L 429.679771 288.03195 
L 430.187551 289.083637 
L 430.695332 288.97181 
L 431.203112 289.331931 
L 431.710893 290.486848 
L 432.218673 290.128848 
L 432.726454 290.582123 
L 433.742015 290.870043 
L 434.249795 292.277658 
L 434.757576 292.457633 
L 435.265356 293.060473 
L 436.280917 293.359319 
L 436.788698 293.645723 
L 438.312039 295.662945 
L 438.81982 295.00074 
L 439.3276 296.633546 
L 439.835381 296.540805 
L 440.850942 297.656828 
L 441.358722 297.336249 
L 441.866503 297.520146 
L 442.374283 298.532873 
L 442.882064 298.808172 
L 443.389844 299.980803 
L 443.897625 299.420026 
L 444.405405 300.799134 
L 444.913186 301.009301 
L 445.420966 301.031579 
L 445.928747 301.525901 
L 446.436527 302.769477 
L 446.944308 302.096515 
L 447.452088 303.563981 
L 447.959869 302.818659 
L 448.467649 302.747001 
L 448.97543 303.933434 
L 449.48321 303.967267 
L 449.990991 305.466689 
L 450.498771 305.222547 
L 451.006552 305.994345 
L 452.022113 306.938479 
L 452.529894 306.656388 
L 453.037674 307.490864 
L 453.545455 307.889194 
L 454.053235 307.899553 
L 454.561016 308.744196 
L 455.068796 308.415129 
L 455.576577 310.12865 
L 456.084357 309.678817 
L 456.592138 309.999897 
L 457.607699 311.159941 
L 458.115479 312.067996 
L 458.62326 312.003194 
L 459.13104 312.918566 
L 459.638821 313.048861 
L 460.654382 313.654641 
L 461.162162 313.71686 
L 461.669943 314.226992 
L 462.177723 314.991397 
L 462.685504 315.174457 
L 463.701065 315.940465 
L 464.208845 316.974028 
L 464.716626 317.139747 
L 465.224406 317.908145 
L 465.732187 317.732433 
L 466.239967 317.891064 
L 466.747748 318.785128 
L 467.255528 318.590792 
L 467.763309 319.792871 
L 468.271089 320.129053 
L 468.77887 321.09312 
L 469.28665 320.655284 
L 469.794431 321.667746 
L 470.809992 321.644958 
L 471.317772 323.233902 
L 471.825553 323.505183 
L 472.333333 323.255718 
L 472.841114 323.425055 
L 473.348894 324.50197 
L 473.856675 324.546073 
L 474.364455 324.464821 
L 474.872236 325.942596 
L 475.380016 325.43867 
L 476.395577 326.38319 
L 476.903358 326.517561 
L 477.918919 327.281366 
L 478.426699 327.216296 
L 478.93448 327.370753 
L 479.44226 327.361928 
L 479.950041 328.051859 
L 480.457821 327.699825 
L 480.965602 327.891939 
L 481.473382 327.832946 
L 482.488943 327.909495 
L 485.027846 326.968987 
L 486.043407 325.98136 
L 486.551188 325.937005 
L 487.058968 325.365133 
L 487.566749 325.227097 
L 488.58231 324.448722 
L 490.105651 323.294465 
L 502.292383 313.379311 
L 575.412776 253.259244 
L 580.490581 249.390968 
L 584.045045 246.935283 
L 586.583948 245.415279 
L 588.61507 244.41259 
L 590.646192 243.664306 
L 592.169533 243.302159 
L 594.200655 243.09148 
L 597.247338 243.127924 
L 602.832924 243.083775 
L 622.636364 243.057526 
L 622.636364 243.057526 
" clip-path="url(#p21dab5ff0a)" style="fill: none; stroke: #ffa500; stroke-width: 2; stroke-linecap: square"/>
   </g>
   <g id="line2d_21">
    <path d="M 115.363636 425.093346 
L 622.636364 215.803854 
L 622.636364 215.803854 
" clip-path="url(#p21dab5ff0a)" style="fill: none; stroke-dasharray: 5.55,2.4; stroke-dashoffset: 0; stroke: #ffff00; stroke-width: 1.5"/>
   </g>
   <g id="line2d_22">
    <path d="M 334.054349 433 
L 622.636364 194.874905 
L 622.636364 194.874905 
" clip-path="url(#p21dab5ff0a)" style="fill: none; stroke-dasharray: 5.55,2.4; stroke-dashoffset: 0; stroke: #00bfff; stroke-width: 1.5"/>
   </g>
   <g id="patch_3">
    <path d="M 90 384.48 
L 90 51.84 
" style="fill: none; stroke: #000000; stroke-width: 0.8; stroke-linejoin: miter; stroke-linecap: square"/>
   </g>
   <g id="patch_4">
    <path d="M 648 384.48 
L 648 51.84 
" style="fill: none; stroke: #000000; stroke-width: 0.8; stroke-linejoin: miter; stroke-linecap: square"/>
   </g>
   <g id="patch_5">
    <path d="M 90 384.48 
L 648 384.48 
" style="fill: none; stroke: #000000; stroke-width: 0.8; stroke-linejoin: miter; stroke-linecap: square"/>
   </g>
   <g id="patch_6">
    <path d="M 90 51.84 
L 648 51.84 
" style="fill: none; stroke: #000000; stroke-width: 0.8; stroke-linejoin: miter; stroke-linecap: square"/>
   </g>
   <g id="text_19">
    <!-- Error vs Step Size -->
    <g transform="translate(316.00125 45.84) scale(0.12 -0.12)">
     <defs>
      <path id="DejaVuSans-20" transform="scale(0.015625)"/>
      <path id="DejaVuSans-76" d="M 191 3500 
L 800 3500 
L 1894 563 
L 2988 3500 
L 3597 3500 
L 2284 0 
L 1503 0 
L 191 3500 
z
" transform="scale(0.015625)"/>
      <path id="DejaVuSans-73" d="M 2834 3397 
L 2834 2853 
Q 2591 2978 2328 3040 
Q 2066 3103 1784 3103 
Q 1356 3103 1142 2972 
Q 928 2841 928 2578 
Q 928 2378 1081 2264 
Q 1234 2150 1697 2047 
L 1894 2003 
Q 2506 1872 2764 1633 
Q 3022 1394 3022 966 
Q 3022 478 2636 193 
Q 2250 -91 1575 -91 
Q 1294 -91 989 -36 
Q 684 19 347 128 
L 347 722 
Q 666 556 975 473 
Q 1284 391 1588 391 
Q 1994 391 2212 530 
Q 2431 669 2431 922 
Q 2431 1156 2273 1281 
Q 2116 1406 1581 1522 
L 1381 1569 
Q 847 1681 609 1914 
Q 372 2147 372 2553 
Q 372 3047 722 3315 
Q 1072 3584 1716 3584 
Q 2034 3584 2315 3537 
Q 2597 3491 2834 3397 
z
" transform="scale(0.015625)"/>
      <path id="DejaVuSans-53" d="M 3425 4513 
L 3425 3897 
Q 3066 4069 2747 4153 
Q 2428 4238 2131 4238 
Q 1616 4238 1336 4038 
Q 1056 3838 1056 3469 
Q 1056 3159 1242 3001 
Q 1428 2844 1947 2747 
L 2328 2669 
Q 3034 2534 3370 2195 
Q 3706 1856 3706 1288 
Q 3706 609 3251 259 
Q 2797 -91 1919 -91 
Q 1588 -91 1214 -16 
Q 841 59 441 206 
L 441 856 
Q 825 641 1194 531 
Q 1563 422 1919 422 
Q 2459 422 2753 634 
Q 3047 847 3047 1241 
Q 3047 1584 2836 1778 
Q 2625 1972 2144 2069 
L 1759 2144 
Q 1053 2284 737 2584 
Q 422 2884 422 3419 
Q 422 4038 858 4394 
Q 1294 4750 2059 4750 
Q 2388 4750 2728 4690 
Q 3069 4631 3425 4513 
z
" transform="scale(0.015625)"/>
      <path id="DejaVuSans-74" d="M 1172 4494 
L 1172 3500 
L 2356 3500 
L 2356 3053 
L 1172 3053 
L 1172 1153 
Q 1172 725 1289 603 
Q 1406 481 1766 481 
L 2356 481 
L 2356 0 
L 1766 0 
Q 1100 0 847 248 
Q 594 497 594 1153 
L 594 3053 
L 172 3053 
L 172 3500 
L 594 3500 
L 594 4494 
L 1172 4494 
z
" transform="scale(0.015625)"/>
      <path id="DejaVuSans-65" d="M 3597 1894 
L 3597 1613 
L 953 1613 
Q 991 1019 1311 708 
Q 1631 397 2203 397 
Q 2534 397 2845 478 
Q 3156 559 3463 722 
L 3463 178 
Q 3153 47 2828 -22 
Q 2503 -91 2169 -91 
Q 1331 -91 842 396 
Q 353 884 353 1716 
Q 353 2575 817 3079 
Q 1281 3584 2069 3584 
Q 2775 3584 3186 3129 
Q 3597 2675 3597 1894 
z
M 3022 2063 
Q 3016 2534 2758 2815 
Q 2500 3097 2075 3097 
Q 1594 3097 1305 2825 
Q 1016 2553 972 2059 
L 3022 2063 
z
" transform="scale(0.015625)"/>
      <path id="DejaVuSans-70" d="M 1159 525 
L 1159 -1331 
L 581 -1331 
L 581 3500 
L 1159 3500 
L 1159 2969 
Q 1341 3281 1617 3432 
Q 1894 3584 2278 3584 
Q 2916 3584 3314 3078 
Q 3713 2572 3713 1747 
Q 3713 922 3314 415 
Q 2916 -91 2278 -91 
Q 1894 -91 1617 61 
Q 1341 213 1159 525 
z
M 3116 1747 
Q 3116 2381 2855 2742 
Q 2594 3103 2138 3103 
Q 1681 3103 1420 2742 
Q 1159 2381 1159 1747 
Q 1159 1113 1420 752 
Q 1681 391 2138 391 
Q 2594 391 2855 752 
Q 3116 1113 3116 1747 
z
" transform="scale(0.015625)"/>
      <path id="DejaVuSans-69" d="M 603 3500 
L 1178 3500 
L 1178 0 
L 603 0 
L 603 3500 
z
M 603 4863 
L 1178 4863 
L 1178 4134 
L 603 4134 
L 603 4863 
z
" transform="scale(0.015625)"/>
      <path id="DejaVuSans-7a" d="M 353 3500 
L 3084 3500 
L 3084 2975 
L 922 459 
L 3084 459 
L 3084 0 
L 275 0 
L 275 525 
L 2438 3041 
L 353 3041 
L 353 3500 
z
" transform="scale(0.015625)"/>
     </defs>
     <use xlink:href="#DejaVuSans-45"/>
     <use xlink:href="#DejaVuSans-72" x="63.183594"/>
     <use xlink:href="#DejaVuSans-72" x="102.546875"/>
     <use xlink:href="#DejaVuSans-6f" x="141.410156"/>
     <use xlink:href="#DejaVuSans-72" x="202.591797"/>
     <use xlink:href="#DejaVuSans-20" x="243.705078"/>
     <use xlink:href="#DejaVuSans-76" x="275.492188"/>
     <use xlink:href="#DejaVuSans-73" x="334.671875"/>
     <use xlink:href="#DejaVuSans-20" x="386.771484"/>
     <use xlink:href="#DejaVuSans-53" x="418.558594"/>
     <use xlink:href="#DejaVuSans-74" x="482.035156"/>
     <use xlink:href="#DejaVuSans-65" x="521.244141"/>
     <use xlink:href="#DejaVuSans-70" x="582.767578"/>
     <use xlink:href="#DejaVuSans-20" x="646.244141"/>
     <use xlink:href="#DejaVuSans-53" x="678.03125"/>
     <use xlink:href="#DejaVuSans-69" x="741.507812"/>
     <use xlink:href="#DejaVuSans-7a" x="769.291016"/>
     <use xlink:href="#DejaVuSans-65" x="821.78125"/>
    </g>
   </g>
   <g id="legend_1">
    <g id="patch_7">
     <path d="M 534.2 154.118125 
L 641 154.118125 
Q 643 154.118125 643 152.118125 
L 643 58.84 
Q 643 56.84 641 56.84 
L 534.2 56.84 
Q 532.2 56.84 532.2 58.84 
L 532.2 152.118125 
Q 532.2 154.118125 534.2 154.118125 
z
" style="fill: #ffffff; opacity: 0.8; stroke: #cccccc; stroke-linejoin: miter"/>
    </g>
    <g id="line2d_23">
     <path d="M 536.2 65.64 
L 546.2 65.64 
L 556.2 65.64 
" style="fill: none; stroke: #ff00ff; stroke-width: 2; stroke-linecap: square"/>
    </g>
    <g id="text_20">
     <!-- Error in $D_h^+ f(x)$ -->
     <g transform="translate(564.2 69.14) scale(0.1 -0.1)">
      <defs>
       <path id="DejaVuSans-6e" d="M 3513 2113 
L 3513 0 
L 2938 0 
L 2938 2094 
Q 2938 2591 2744 2837 
Q 2550 3084 2163 3084 
Q 1697 3084 1428 2787 
Q 1159 2491 1159 1978 
L 1159 0 
L 581 0 
L 581 3500 
L 1159 3500 
L 1159 2956 
Q 1366 3272 1645 3428 
Q 1925 3584 2291 3584 
Q 2894 3584 3203 3211 
Q 3513 2838 3513 2113 
z
" transform="scale(0.015625)"/>
       <path id="DejaVuSans-Oblique-44" d="M 1081 4666 
L 2438 4666 
Q 3519 4666 4070 4208 
Q 4622 3750 4622 2847 
Q 4622 2250 4412 1698 
Q 4203 1147 3834 769 
Q 3463 381 2891 190 
Q 2319 0 1538 0 
L 172 0 
L 1081 4666 
z
M 1613 4147 
L 909 519 
L 1734 519 
Q 2794 519 3375 1128 
Q 3956 1738 3956 2847 
Q 3956 3519 3581 3833 
Q 3206 4147 2406 4147 
L 1613 4147 
z
" transform="scale(0.015625)"/>
       <path id="DejaVuSans-2b" d="M 2944 4013 
L 2944 2272 
L 4684 2272 
L 4684 1741 
L 2944 1741 
L 2944 0 
L 2419 0 
L 2419 1741 
L 678 1741 
L 678 2272 
L 2419 2272 
L 2419 4013 
L 2944 4013 
z
" transform="scale(0.015625)"/>
       <path id="DejaVuSans-Oblique-66" d="M 3059 4863 
L 2969 4384 
L 2419 4384 
Q 2106 4384 1964 4261 
Q 1822 4138 1753 3809 
L 1691 3500 
L 2638 3500 
L 2553 3053 
L 1606 3053 
L 1013 0 
L 434 0 
L 1031 3053 
L 481 3053 
L 563 3500 
L 1113 3500 
L 1159 3744 
Q 1278 4363 1576 4613 
Q 1875 4863 2516 4863 
L 3059 4863 
z
" transform="scale(0.015625)"/>
       <path id="DejaVuSans-28" d="M 1984 4856 
Q 1566 4138 1362 3434 
Q 1159 2731 1159 2009 
Q 1159 1288 1364 580 
Q 1569 -128 1984 -844 
L 1484 -844 
Q 1016 -109 783 600 
Q 550 1309 550 2009 
Q 550 2706 781 3412 
Q 1013 4119 1484 4856 
L 1984 4856 
z
" transform="scale(0.015625)"/>
       <path id="DejaVuSans-Oblique-78" d="M 3841 3500 
L 2234 1784 
L 3219 0 
L 2559 0 
L 1819 1388 
L 531 0 
L -166 0 
L 1556 1844 
L 641 3500 
L 1300 3500 
L 1972 2234 
L 3144 3500 
L 3841 3500 
z
" transform="scale(0.015625)"/>
       <path id="DejaVuSans-29" d="M 513 4856 
L 1013 4856 
Q 1481 4119 1714 3412 
Q 1947 2706 1947 2009 
Q 1947 1309 1714 600 
Q 1481 -109 1013 -844 
L 513 -844 
Q 928 -128 1133 580 
Q 1338 1288 1338 2009 
Q 1338 2731 1133 3434 
Q 928 4138 513 4856 
z
" transform="scale(0.015625)"/>
      </defs>
      <use xlink:href="#DejaVuSans-45" transform="translate(0 0.7625)"/>
      <use xlink:href="#DejaVuSans-72" transform="translate(63.183594 0.7625)"/>
      <use xlink:href="#DejaVuSans-72" transform="translate(104.296875 0.7625)"/>
      <use xlink:href="#DejaVuSans-6f" transform="translate(145.410156 0.7625)"/>
      <use xlink:href="#DejaVuSans-72" transform="translate(206.591797 0.7625)"/>
      <use xlink:href="#DejaVuSans-20" transform="translate(247.705078 0.7625)"/>
      <use xlink:href="#DejaVuSans-69" transform="translate(279.492188 0.7625)"/>
      <use xlink:href="#DejaVuSans-6e" transform="translate(307.275391 0.7625)"/>
      <use xlink:href="#DejaVuSans-20" transform="translate(370.654297 0.7625)"/>
      <use xlink:href="#DejaVuSans-Oblique-44" transform="translate(402.441406 0.7625)"/>
      <use xlink:href="#DejaVuSans-2b" transform="translate(500.097826 39.107813) scale(0.7)"/>
      <use xlink:href="#DejaVuSans-Oblique-68" transform="translate(479.443359 -26.58125) scale(0.7)"/>
      <use xlink:href="#DejaVuSans-Oblique-66" transform="translate(575.12224 0.7625)"/>
      <use xlink:href="#DejaVuSans-28" transform="translate(610.327318 0.7625)"/>
      <use xlink:href="#DejaVuSans-Oblique-78" transform="translate(649.34099 0.7625)"/>
      <use xlink:href="#DejaVuSans-29" transform="translate(708.520677 0.7625)"/>
     </g>
    </g>
    <g id="line2d_24">
     <path d="M 536.2 81.34 
L 546.2 81.34 
L 556.2 81.34 
" style="fill: none; stroke: #00ffff; stroke-width: 2; stroke-linecap: square"/>
    </g>
    <g id="text_21">
     <!-- Error in $D_h^c f(x)$ -->
     <g transform="translate(564.2 84.84) scale(0.1 -0.1)">
      <defs>
       <path id="DejaVuSans-Oblique-63" d="M 3431 3366 
L 3316 2797 
Q 3109 2947 2876 3022 
Q 2644 3097 2394 3097 
Q 2119 3097 1870 3000 
Q 1622 2903 1453 2725 
Q 1184 2453 1037 2087 
Q 891 1722 891 1331 
Q 891 859 1127 628 
Q 1363 397 1844 397 
Q 2081 397 2348 469 
Q 2616 541 2906 684 
L 2797 116 
Q 2547 13 2283 -39 
Q 2019 -91 1741 -91 
Q 1044 -91 669 257 
Q 294 606 294 1253 
Q 294 1797 489 2255 
Q 684 2713 1069 3078 
Q 1331 3328 1684 3456 
Q 2038 3584 2456 3584 
Q 2700 3584 2940 3529 
Q 3181 3475 3431 3366 
z
" transform="scale(0.015625)"/>
      </defs>
      <use xlink:href="#DejaVuSans-45" transform="translate(0 0.459375)"/>
      <use xlink:href="#DejaVuSans-72" transform="translate(63.183594 0.459375)"/>
      <use xlink:href="#DejaVuSans-72" transform="translate(104.296875 0.459375)"/>
      <use xlink:href="#DejaVuSans-6f" transform="translate(145.410156 0.459375)"/>
      <use xlink:href="#DejaVuSans-72" transform="translate(206.591797 0.459375)"/>
      <use xlink:href="#DejaVuSans-20" transform="translate(247.705078 0.459375)"/>
      <use xlink:href="#DejaVuSans-69" transform="translate(279.492188 0.459375)"/>
      <use xlink:href="#DejaVuSans-6e" transform="translate(307.275391 0.459375)"/>
      <use xlink:href="#DejaVuSans-20" transform="translate(370.654297 0.459375)"/>
      <use xlink:href="#DejaVuSans-Oblique-44" transform="translate(402.441406 0.459375)"/>
      <use xlink:href="#DejaVuSans-Oblique-63" transform="translate(486.46013 39.8) scale(0.7)"/>
      <use xlink:href="#DejaVuSans-Oblique-68" transform="translate(479.443359 -26.884375) scale(0.7)"/>
      <use xlink:href="#DejaVuSans-Oblique-66" transform="translate(527.680833 0.459375)"/>
      <use xlink:href="#DejaVuSans-28" transform="translate(562.885911 0.459375)"/>
      <use xlink:href="#DejaVuSans-Oblique-78" transform="translate(601.899583 0.459375)"/>
      <use xlink:href="#DejaVuSans-29" transform="translate(661.079271 0.459375)"/>
     </g>
    </g>
    <g id="line2d_25">
     <path d="M 536.2 96.74 
L 546.2 96.74 
L 556.2 96.74 
" style="fill: none; stroke-dasharray: 2,3.3; stroke-dashoffset: 0; stroke: #00ff00; stroke-width: 2"/>
    </g>
    <g id="text_22">
     <!-- Error in $D_h^- f(x)$ -->
     <g transform="translate(564.2 100.24) scale(0.1 -0.1)">
      <use xlink:href="#DejaVuSans-45" transform="translate(0 0.015625)"/>
      <use xlink:href="#DejaVuSans-72" transform="translate(63.183594 0.015625)"/>
      <use xlink:href="#DejaVuSans-72" transform="translate(104.296875 0.015625)"/>
      <use xlink:href="#DejaVuSans-6f" transform="translate(145.410156 0.015625)"/>
      <use xlink:href="#DejaVuSans-72" transform="translate(206.591797 0.015625)"/>
      <use xlink:href="#DejaVuSans-20" transform="translate(247.705078 0.015625)"/>
      <use xlink:href="#DejaVuSans-69" transform="translate(279.492188 0.015625)"/>
      <use xlink:href="#DejaVuSans-6e" transform="translate(307.275391 0.015625)"/>
      <use xlink:href="#DejaVuSans-20" transform="translate(370.654297 0.015625)"/>
      <use xlink:href="#DejaVuSans-Oblique-44" transform="translate(402.441406 0.015625)"/>
      <use xlink:href="#DejaVuSans-2212" transform="translate(500.097826 38.360938) scale(0.7)"/>
      <use xlink:href="#DejaVuSans-Oblique-68" transform="translate(479.443359 -27.328125) scale(0.7)"/>
      <use xlink:href="#DejaVuSans-Oblique-66" transform="translate(575.12224 0.015625)"/>
      <use xlink:href="#DejaVuSans-28" transform="translate(610.327318 0.015625)"/>
      <use xlink:href="#DejaVuSans-Oblique-78" transform="translate(649.34099 0.015625)"/>
      <use xlink:href="#DejaVuSans-29" transform="translate(708.520677 0.015625)"/>
     </g>
    </g>
    <g id="line2d_26">
     <path d="M 536.2 113.64 
L 546.2 113.64 
L 556.2 113.64 
" style="fill: none; stroke: #ffa500; stroke-width: 2; stroke-linecap: square"/>
    </g>
    <g id="text_23">
     <!-- Error in $D_h^2 f(x)$ -->
     <g transform="translate(564.2 117.14) scale(0.1 -0.1)">
      <use xlink:href="#DejaVuSans-45" transform="translate(0 0.701562)"/>
      <use xlink:href="#DejaVuSans-72" transform="translate(63.183594 0.701562)"/>
      <use xlink:href="#DejaVuSans-72" transform="translate(104.296875 0.701562)"/>
      <use xlink:href="#DejaVuSans-6f" transform="translate(145.410156 0.701562)"/>
      <use xlink:href="#DejaVuSans-72" transform="translate(206.591797 0.701562)"/>
      <use xlink:href="#DejaVuSans-20" transform="translate(247.705078 0.701562)"/>
      <use xlink:href="#DejaVuSans-69" transform="translate(279.492188 0.701562)"/>
      <use xlink:href="#DejaVuSans-6e" transform="translate(307.275391 0.701562)"/>
      <use xlink:href="#DejaVuSans-20" transform="translate(370.654297 0.701562)"/>
      <use xlink:href="#DejaVuSans-Oblique-44" transform="translate(402.441406 0.701562)"/>
      <use xlink:href="#DejaVuSans-32" transform="translate(486.46013 39.046875) scale(0.7)"/>
      <use xlink:href="#DejaVuSans-Oblique-68" transform="translate(479.443359 -26.642188) scale(0.7)"/>
      <use xlink:href="#DejaVuSans-Oblique-66" transform="translate(533.730638 0.701562)"/>
      <use xlink:href="#DejaVuSans-28" transform="translate(568.935716 0.701562)"/>
      <use xlink:href="#DejaVuSans-Oblique-78" transform="translate(607.949388 0.701562)"/>
      <use xlink:href="#DejaVuSans-29" transform="translate(667.129076 0.701562)"/>
     </g>
    </g>
    <g id="line2d_27">
     <path d="M 536.2 129.038437 
L 546.2 129.038437 
L 556.2 129.038437 
" style="fill: none; stroke-dasharray: 5.55,2.4; stroke-dashoffset: 0; stroke: #ffff00; stroke-width: 1.5"/>
    </g>
    <g id="text_24">
     <!-- $O(h)$ -->
     <g transform="translate(564.2 132.538437) scale(0.1 -0.1)">
      <defs>
       <path id="DejaVuSans-Oblique-4f" d="M 2919 4238 
Q 2400 4238 2003 3986 
Q 1606 3734 1313 3219 
Q 1125 2891 1026 2522 
Q 928 2153 928 1778 
Q 928 1128 1239 775 
Q 1550 422 2119 422 
Q 2631 422 3032 676 
Q 3434 931 3719 1434 
Q 3909 1772 4009 2142 
Q 4109 2513 4109 2881 
Q 4109 3528 3796 3883 
Q 3484 4238 2919 4238 
z
M 2100 -91 
Q 1241 -91 748 418 
Q 256 928 256 1813 
Q 256 2319 448 2847 
Q 641 3375 978 3788 
Q 1375 4272 1862 4511 
Q 2350 4750 2938 4750 
Q 3794 4750 4287 4245 
Q 4781 3741 4781 2869 
Q 4781 2331 4593 1812 
Q 4406 1294 4056 872 
Q 3656 384 3173 146 
Q 2691 -91 2100 -91 
z
" transform="scale(0.015625)"/>
      </defs>
      <use xlink:href="#DejaVuSans-Oblique-4f" transform="translate(0 0.015625)"/>
      <use xlink:href="#DejaVuSans-28" transform="translate(78.710938 0.015625)"/>
      <use xlink:href="#DejaVuSans-Oblique-68" transform="translate(117.724609 0.015625)"/>
      <use xlink:href="#DejaVuSans-29" transform="translate(181.103516 0.015625)"/>
     </g>
    </g>
    <g id="line2d_28">
     <path d="M 536.2 144.538437 
L 546.2 144.538437 
L 556.2 144.538437 
" style="fill: none; stroke-dasharray: 5.55,2.4; stroke-dashoffset: 0; stroke: #00bfff; stroke-width: 1.5"/>
    </g>
    <g id="text_25">
     <!-- $O(h^2)$ -->
     <g transform="translate(564.2 148.038437) scale(0.1 -0.1)">
      <use xlink:href="#DejaVuSans-Oblique-4f" transform="translate(0 0.765625)"/>
      <use xlink:href="#DejaVuSans-28" transform="translate(78.710938 0.765625)"/>
      <use xlink:href="#DejaVuSans-Oblique-68" transform="translate(117.724609 0.765625)"/>
      <use xlink:href="#DejaVuSans-32" transform="translate(188.551224 39.046875) scale(0.7)"/>
      <use xlink:href="#DejaVuSans-29" transform="translate(235.821732 0.765625)"/>
     </g>
    </g>
   </g>
  </g>
 </g>
 <defs>
  <clipPath id="p21dab5ff0a">
   <rect x="90" y="51.84" width="558" height="332.64"/>
  </clipPath>
 </defs>
</svg>
